<svg version="1.1" viewBox="0.0 0.0 1280.0 720.0" fill="none" stroke="none" stroke-linecap="square" stroke-miterlimit="10" xmlns:xlink="http://www.w3.org/1999/xlink" xmlns="http://www.w3.org/2000/svg"><clipPath id="g7681e36bab_0_171.0"><path d="m0 0l1280.0 0l0 720.0l-1280.0 0l0 -720.0z" clip-rule="nonzero"/></clipPath><g clip-path="url(#g7681e36bab_0_171.0)"><path fill="#000000" fill-opacity="0.0" d="m0 0l1280.0 0l0 720.0l-1280.0 0z" fill-rule="evenodd"/><g filter="url(#shadowFilter-g7681e36bab_0_171.1)"><use xlink:href="#g7681e36bab_0_171.1" transform="matrix(1.0 0.0 0.0 1.0 0.0 2.0)"/></g><defs><filter id="shadowFilter-g7681e36bab_0_171.1" filterUnits="userSpaceOnUse"><feGaussianBlur in="SourceAlpha" stdDeviation="2.0" result="blur"/><feComponentTransfer in="blur" color-interpolation-filters="sRGB"><feFuncR type="linear" slope="0" intercept="0.0"/><feFuncG type="linear" slope="0" intercept="0.0"/><feFuncB type="linear" slope="0" intercept="0.0"/><feFuncA type="linear" slope="0.5" intercept="0"/></feComponentTransfer></filter></defs><g id="g7681e36bab_0_171.1"><defs><linearGradient id="g7681e36bab_0_171.2" gradientUnits="userSpaceOnUse" gradientTransform="matrix(7.365209092775075 -9.780524699121646 9.780524699121646 7.365209092775075 0.0 0.0)" spreadMethod="pad" x1="-10.625023568065618" y1="68.32030526555" x2="-10.625059575775522" y2="78.10082996460537"><stop offset="0.0" stop-color="#1d324a"/><stop offset="1.0" stop-color="#c96b59"/></linearGradient></defs><path fill="url(#g7681e36bab_0_171.2)" d="m667.6804 511.68958c7.582947 -0.57766724 14.2960205 4.9417725 14.994324 12.328125l8.94165 94.59442l-0.35876465 3.2330933l17.277954 12.422607c3.8955688 2.8008423 4.7631226 8.112793 1.9378052 11.864624c-2.8253174 3.751831 -8.273621 4.522766 -12.169128 1.7219849l-8.804138 -6.330078l1.2984009 13.735901c0.44128418 4.6676636 -3.0858154 8.747437 -7.8777466 9.112488c-4.791931 0.36499023 -9.03418 -3.123108 -9.475403 -7.7908325l-1.6052246 -16.981018l-7.6917725 11.792908c-2.562317 3.9283447 -7.9415283 5.0478516 -12.014832 2.5004883c-4.073303 -2.5473633 -5.298218 -7.796875 -2.7359009 -11.72522l13.664429 -20.949707l1.0744019 -0.7265625l-8.921753 -94.383545c-0.6983032 -7.3863525 4.8828735 -13.842163 12.465698 -14.419678z" fill-rule="evenodd"/></g><g filter="url(#shadowFilter-g7681e36bab_0_171.3)"><use xlink:href="#g7681e36bab_0_171.3" transform="matrix(1.0 0.0 0.0 1.0 0.0 2.0)"/></g><defs><filter id="shadowFilter-g7681e36bab_0_171.3" filterUnits="userSpaceOnUse"><feGaussianBlur in="SourceAlpha" stdDeviation="2.0" result="blur"/><feComponentTransfer in="blur" color-interpolation-filters="sRGB"><feFuncR type="linear" slope="0" intercept="0.0"/><feFuncG type="linear" slope="0" intercept="0.0"/><feFuncB type="linear" slope="0" intercept="0.0"/><feFuncA type="linear" slope="0.5" intercept="0"/></feComponentTransfer></filter></defs><g id="g7681e36bab_0_171.3"><defs><linearGradient id="g7681e36bab_0_171.4" gradientUnits="userSpaceOnUse" gradientTransform="matrix(8.454386635691822 -9.435406243906908 9.435406243906908 8.454386635691822 0.0 0.0)" spreadMethod="pad" x1="-10.412124780969666" y1="59.812622571967175" x2="-10.412158770255209" y2="69.24802881581286"><stop offset="0.0" stop-color="#1d324a"/><stop offset="1.0" stop-color="#c96b59"/></linearGradient></defs><path fill="url(#g7681e36bab_0_171.4)" d="m562.1797 515.12274c7.6119385 0.046203613 13.821594 6.10437 13.869934 13.531494l0.6175537 95.11621l-0.6413574 3.1964111l16.138794 13.813171c3.6386719 3.11438 4.0377197 8.485596 0.8913574 11.99707c-3.1464233 3.5114746 -8.6467285 3.833435 -12.2854 0.7190552l-8.223633 -7.0386353l0.089660645 13.8116455c0.030517578 4.6934814 -3.8443604 8.474487 -8.654602 8.4453125c-4.8102417 -0.029174805 -8.734375 -3.857788 -8.764893 -8.5512085l-0.110839844 -17.074707l-8.704407 11.134949c-2.8995972 3.7091675 -8.361633 4.3845825 -12.199829 1.5085449c-3.8381958 -2.8760376 -4.59906 -8.214355 -1.6994629 -11.923523l15.463257 -19.780884l1.1350708 -0.63671875l-0.616272 -94.904236c-0.04827881 -7.427124 6.083252 -13.410278 13.695068 -13.363953z" fill-rule="evenodd"/></g><g filter="url(#shadowFilter-g7681e36bab_0_171.5)"><use xlink:href="#g7681e36bab_0_171.5" transform="matrix(1.0 0.0 0.0 1.0 0.0 2.0)"/></g><defs><filter id="shadowFilter-g7681e36bab_0_171.5" filterUnits="userSpaceOnUse"><feGaussianBlur in="SourceAlpha" stdDeviation="2.0" result="blur"/><feComponentTransfer in="blur" color-interpolation-filters="sRGB"><feFuncR type="linear" slope="0" intercept="0.0"/><feFuncG type="linear" slope="0" intercept="0.0"/><feFuncB type="linear" slope="0" intercept="0.0"/><feFuncA type="linear" slope="0.5" intercept="0"/></feComponentTransfer></filter></defs><g id="g7681e36bab_0_171.5"><defs><linearGradient id="g7681e36bab_0_171.6" gradientUnits="userSpaceOnUse" gradientTransform="matrix(10.744898765324617 -1.4755414561352767 1.4755414561352767 10.744898765324617 0.0 0.0)" spreadMethod="pad" x1="27.580227670127645" y1="49.71363814160846" x2="27.580187966959056" y2="60.45853690685973"><stop offset="0.0" stop-color="#1d324a"/><stop offset="1.0" stop-color="#c96b59"/></linearGradient></defs><path fill="url(#g7681e36bab_0_171.6)" d="m496.90927 480.60968c5.801422 4.8122864 6.44751 13.252808 1.4431152 18.852722l-64.089905 71.714905l-2.6611328 1.9943848l2.990448 20.488037c0.67422485 4.6192627 -2.6658936 8.897644 -7.4603577 9.55603c-4.7944946 0.65838623 -9.227692 -2.5524902 -9.9019165 -7.171753l-1.5238037 -10.43988l-9.306366 10.413635c-3.1624756 3.5387573 -8.698151 3.9420776 -12.364258 0.901001c-3.6661072 -3.0410767 -4.0742493 -8.375122 -0.9118042 -11.913879l11.505005 -12.87384l-14.228027 2.8867188c-4.7395935 0.96154785 -9.383362 -1.9602661 -10.372253 -6.526062c-0.9888611 -4.565796 2.0516357 -9.046509 6.7912292 -10.008057l25.275818 -5.1280518l1.3019714 0.23498535l63.94702 -71.555084c5.004364 -5.599884 13.764008 -6.2381287 19.565216 -1.4258118z" fill-rule="evenodd"/></g><g filter="url(#shadowFilter-g7681e36bab_0_171.7)"><use xlink:href="#g7681e36bab_0_171.7" transform="matrix(1.0 0.0 0.0 1.0 0.0 2.0)"/></g><defs><filter id="shadowFilter-g7681e36bab_0_171.7" filterUnits="userSpaceOnUse"><feGaussianBlur in="SourceAlpha" stdDeviation="2.0" result="blur"/><feComponentTransfer in="blur" color-interpolation-filters="sRGB"><feFuncR type="linear" slope="0" intercept="0.0"/><feFuncG type="linear" slope="0" intercept="0.0"/><feFuncB type="linear" slope="0" intercept="0.0"/><feFuncA type="linear" slope="0.5" intercept="0"/></feComponentTransfer></filter></defs><g id="g7681e36bab_0_171.7"><defs><linearGradient id="g7681e36bab_0_171.8" gradientUnits="userSpaceOnUse" gradientTransform="matrix(-3.053682843660718 -10.775364613899256 10.775364613899256 -3.053682843660718 0.0 0.0)" spreadMethod="pad" x1="-70.1108639426074" y1="49.12882234891265" x2="-70.11090788357264" y2="59.904186962722314"><stop offset="0.0" stop-color="#1d324a"/><stop offset="1.0" stop-color="#c96b59"/></linearGradient></defs><path fill="url(#g7681e36bab_0_171.8)" d="m714.01263 484.14392c4.2266235 -6.1907043 12.825562 -7.9414062 19.206482 -3.9103699l81.71759 51.624603l2.381836 2.2755737l20.695618 -5.6087646c4.6660767 -1.2645264 9.481018 1.3533325 10.754578 5.847168c1.2734985 4.4938354 -1.4766235 9.161926 -6.1427 10.426453l-10.545654 2.8579712l11.866089 7.496338c4.0322876 2.5473022 5.135742 7.7838135 2.4647827 11.695923c-2.6709595 3.9121094 -8.105164 5.0183105 -12.137451 2.4709473l-14.669434 -9.267273l4.7385254 13.210632c1.5784302 4.400696 -0.8482666 9.231201 -5.420227 10.789246c-4.5718994 1.5581055 -9.557678 -0.7462158 -11.136108 -5.1469116l-8.417786 -23.468445l0.079589844 -1.2758789l-81.5354 -51.50952c-6.3809204 -4.031006 -8.127014 -12.3172 -3.9003296 -18.50769z" fill-rule="evenodd"/></g><g filter="url(#shadowFilter-g7681e36bab_0_171.9)"><use xlink:href="#g7681e36bab_0_171.9" transform="matrix(1.0 0.0 0.0 1.0 0.0 2.0)"/></g><defs><filter id="shadowFilter-g7681e36bab_0_171.9" filterUnits="userSpaceOnUse"><feGaussianBlur in="SourceAlpha" stdDeviation="2.0" result="blur"/><feComponentTransfer in="blur" color-interpolation-filters="sRGB"><feFuncR type="linear" slope="0" intercept="0.0"/><feFuncG type="linear" slope="0" intercept="0.0"/><feFuncB type="linear" slope="0" intercept="0.0"/><feFuncA type="linear" slope="0.5" intercept="0"/></feComponentTransfer></filter></defs><g id="g7681e36bab_0_171.9"><defs><linearGradient id="g7681e36bab_0_171.10" gradientUnits="userSpaceOnUse" gradientTransform="matrix(-6.4501537044825 -10.046159511177555 10.046159511177555 -6.4501537044825 0.0 0.0)" spreadMethod="pad" x1="-73.91904384786356" y1="34.42082912174352" x2="-73.91907819908681" y2="44.46698863286235"><stop offset="0.0" stop-color="#1d324a"/><stop offset="1.0" stop-color="#c96b59"/></linearGradient></defs><path fill="url(#g7681e36bab_0_171.10)" d="m758.4084 411.9324c2.2347412 -7.1045227 9.958252 -11.171539 17.251099 -9.084106l93.39606 26.734283l2.94812 1.5175781l18.17987 -11.124725c4.098877 -2.5082092 9.477722 -1.3390808 12.014038 2.6113281c2.536377 3.950409 1.2697754 9.186096 -2.8291016 11.694275l-9.263733 5.6687317l13.56189 3.882019c4.6085815 1.3191528 7.199585 6.0281677 5.7873535 10.517761c-1.4122925 4.4895935 -6.293213 7.0596313 -10.901794 5.7404785l-16.76587 -4.799164l8.408936 11.336609c2.8011475 3.7763977 1.8919067 9.077759 -2.0308228 11.840973c-3.9226685 2.763214 -9.373291 1.9418335 -12.174438 -1.8345947l-14.938232 -20.139282l-0.2975464 -1.2442017l-93.18787 -26.674652c-7.2928467 -2.0874634 -11.392883 -9.538971 -9.157959 -16.64331z" fill-rule="evenodd"/></g><g filter="url(#shadowFilter-g7681e36bab_0_171.11)"><use xlink:href="#g7681e36bab_0_171.11" transform="matrix(1.0 0.0 0.0 1.0 0.0 2.0)"/></g><defs><filter id="shadowFilter-g7681e36bab_0_171.11" filterUnits="userSpaceOnUse"><feGaussianBlur in="SourceAlpha" stdDeviation="2.0" result="blur"/><feComponentTransfer in="blur" color-interpolation-filters="sRGB"><feFuncR type="linear" slope="0" intercept="0.0"/><feFuncG type="linear" slope="0" intercept="0.0"/><feFuncB type="linear" slope="0" intercept="0.0"/><feFuncA type="linear" slope="0.5" intercept="0"/></feComponentTransfer></filter></defs><g id="g7681e36bab_0_171.11"><defs><linearGradient id="g7681e36bab_0_171.12" gradientUnits="userSpaceOnUse" gradientTransform="matrix(10.496074090746164 3.657189197003765 -3.657189197003765 10.496074090746164 0.0 0.0)" spreadMethod="pad" x1="39.27993220469045" y1="21.409616920787904" x2="39.27989530806271" y2="31.90569101146922"><stop offset="0.0" stop-color="#1d324a"/><stop offset="1.0" stop-color="#c96b59"/></linearGradient></defs><path fill="url(#g7681e36bab_0_171.12)" d="m454.44092 415.1794c2.8424072 6.8812866 -0.60961914 14.636444 -7.710388 17.3219l-90.93729 34.39041l-3.3070374 0.5585327l-7.120056 19.468292c-1.6052856 4.3893433 -6.602417 6.6598206 -11.1614685 5.071289c-4.5590515 -1.588501 -6.953491 -6.4344788 -5.3482056 -10.823822l3.6281128 -9.920258l-13.204834 4.9937744c-4.4872437 1.6970215 -9.580933 -0.4526062 -11.377136 -4.8011475c-1.7962036 -4.3485107 0.385437 -9.249359 4.8726807 -10.946381l16.324493 -6.1735535l-13.974091 -3.8893127c-4.6549377 -1.2956543 -7.373657 -5.9813843 -6.0724792 -10.465912c1.3012085 -4.484497 6.1295776 -7.0695496 10.784546 -5.7738953l24.824585 6.909363l1.0407715 0.7972107l90.73453 -34.31378c7.1007996 -2.6854553 15.161041 0.71606445 18.003265 7.59729z" fill-rule="evenodd"/></g></g></svg>