<svg version="1.1" viewBox="0.0 0.0 1280.0 720.0" fill="none" stroke="none" stroke-linecap="square" stroke-miterlimit="10" xmlns:xlink="http://www.w3.org/1999/xlink" xmlns="http://www.w3.org/2000/svg"><clipPath id="g7681e36bab_0_129.0"><path d="m0 0l1280.0 0l0 720.0l-1280.0 0l0 -720.0z" clip-rule="nonzero"/></clipPath><g clip-path="url(#g7681e36bab_0_129.0)"><path fill="#000000" fill-opacity="0.0" d="m0 0l1280.0 0l0 720.0l-1280.0 0z" fill-rule="evenodd"/><g filter="url(#shadowFilter-g7681e36bab_0_129.1)"><use xlink:href="#g7681e36bab_0_129.1" transform="matrix(1.0 0.0 0.0 1.0 0.0 2.0)"/></g><defs><filter id="shadowFilter-g7681e36bab_0_129.1" filterUnits="userSpaceOnUse"><feGaussianBlur in="SourceAlpha" stdDeviation="2.0" result="blur"/><feComponentTransfer in="blur" color-interpolation-filters="sRGB"><feFuncR type="linear" slope="0" intercept="0.0"/><feFuncG type="linear" slope="0" intercept="0.0"/><feFuncB type="linear" slope="0" intercept="0.0"/><feFuncA type="linear" slope="0.5" intercept="0"/></feComponentTransfer></filter></defs><g id="g7681e36bab_0_129.1"><defs><linearGradient id="g7681e36bab_0_129.2" gradientUnits="userSpaceOnUse" gradientTransform="matrix(8.754829123423034 7.513472754890053 -7.513472754890053 8.754829123423034 0.0 0.0)" spreadMethod="pad" x1="55.56452950392288" y1="-37.066722638160066" x2="55.56449751131342" y2="-28.31189351479549"><stop offset="0.0" stop-color="#fb9195"/><stop offset="0.51" stop-color="#c96b59"/><stop offset="0.97" stop-color="#1d324a"/><stop offset="1.0" stop-color="#1d324a"/></linearGradient></defs><path fill="url(#g7681e36bab_0_129.2)" d="m699.1786 169.61678l120.97638 -29.275589l-7.0236206 127.07086z" fill-rule="evenodd"/></g><g filter="url(#shadowFilter-g7681e36bab_0_129.3)"><use xlink:href="#g7681e36bab_0_129.3" transform="matrix(1.0 0.0 0.0 1.0 0.0 2.0)"/></g><defs><filter id="shadowFilter-g7681e36bab_0_129.3" filterUnits="userSpaceOnUse"><feGaussianBlur in="SourceAlpha" stdDeviation="2.0" result="blur"/><feComponentTransfer in="blur" color-interpolation-filters="sRGB"><feFuncR type="linear" slope="0" intercept="0.0"/><feFuncG type="linear" slope="0" intercept="0.0"/><feFuncB type="linear" slope="0" intercept="0.0"/><feFuncA type="linear" slope="0.5" intercept="0"/></feComponentTransfer></filter></defs><g id="g7681e36bab_0_129.3"><defs><linearGradient id="g7681e36bab_0_129.4" gradientUnits="userSpaceOnUse" gradientTransform="matrix(8.889616241744097 -7.072360611488154 7.072360611488154 8.889616241744097 0.0 0.0)" spreadMethod="pad" x1="15.526889336431243" y1="31.928149459931333" x2="15.526856844959077" y2="40.817765701616054"><stop offset="0.0" stop-color="#fb9195"/><stop offset="0.51" stop-color="#c96b59"/><stop offset="0.97" stop-color="#1d324a"/><stop offset="1.0" stop-color="#1d324a"/></linearGradient></defs><path fill="url(#g7681e36bab_0_129.4)" d="m426.70602 253.04248l-8.456665 -122.31496l120.92911 32.834656z" fill-rule="evenodd"/></g><g filter="url(#shadowFilter-g7681e36bab_0_129.5)"><use xlink:href="#g7681e36bab_0_129.5" transform="matrix(1.0 0.0 0.0 1.0 0.0 2.0)"/></g><defs><filter id="shadowFilter-g7681e36bab_0_129.5" filterUnits="userSpaceOnUse"><feGaussianBlur in="SourceAlpha" stdDeviation="2.0" result="blur"/><feComponentTransfer in="blur" color-interpolation-filters="sRGB"><feFuncR type="linear" slope="0" intercept="0.0"/><feFuncG type="linear" slope="0" intercept="0.0"/><feFuncB type="linear" slope="0" intercept="0.0"/><feFuncA type="linear" slope="0.5" intercept="0"/></feComponentTransfer></filter></defs><g id="g7681e36bab_0_129.5"><defs><linearGradient id="g7681e36bab_0_129.6" gradientUnits="userSpaceOnUse" gradientTransform="matrix(8.180444476806803 -6.509121371299658 6.509121371299658 8.180444476806803 0.0 0.0)" spreadMethod="pad" x1="17.73085873796836" y1="36.3694431366066" x2="17.73082931615656" y2="44.5498876133605"><stop offset="0.0" stop-color="#fb9195"/><stop offset="0.51" stop-color="#c96b59"/><stop offset="0.97" stop-color="#1d324a"/><stop offset="1.0" stop-color="#1d324a"/></linearGradient></defs><path fill="url(#g7681e36bab_0_129.6)" d="m435.02692 249.02559l-5.680481 -104.76782l103.89972 26.615509z" fill-rule="evenodd"/></g><g filter="url(#shadowFilter-g7681e36bab_0_129.7)"><use xlink:href="#g7681e36bab_0_129.7" transform="matrix(1.0 0.0 0.0 1.0 0.0 2.0)"/></g><defs><filter id="shadowFilter-g7681e36bab_0_129.7" filterUnits="userSpaceOnUse"><feGaussianBlur in="SourceAlpha" stdDeviation="2.0" result="blur"/><feComponentTransfer in="blur" color-interpolation-filters="sRGB"><feFuncR type="linear" slope="0" intercept="0.0"/><feFuncG type="linear" slope="0" intercept="0.0"/><feFuncB type="linear" slope="0" intercept="0.0"/><feFuncA type="linear" slope="0.5" intercept="0"/></feComponentTransfer></filter></defs><g id="g7681e36bab_0_129.7"><defs><linearGradient id="g7681e36bab_0_129.8" gradientUnits="userSpaceOnUse" gradientTransform="matrix(8.28914860684851 6.130385504962178 -6.130385504962178 8.28914860684851 0.0 0.0)" spreadMethod="pad" x1="65.37855536717976" y1="-34.88649834019483" x2="65.37852354458836" y2="-26.597349733407402"><stop offset="0.0" stop-color="#fb9195"/><stop offset="0.51" stop-color="#c96b59"/><stop offset="0.97" stop-color="#1d324a"/><stop offset="1.0" stop-color="#1d324a"/></linearGradient></defs><path fill="url(#g7681e36bab_0_129.8)" d="m704.98456 180.32635l102.892334 -30.195206l-1.8748779 104.90445z" fill-rule="evenodd"/></g><g filter="url(#shadowFilter-g7681e36bab_0_129.9)"><use xlink:href="#g7681e36bab_0_129.9" transform="matrix(1.0 0.0 0.0 1.0 0.0 2.0)"/></g><defs><filter id="shadowFilter-g7681e36bab_0_129.9" filterUnits="userSpaceOnUse"><feGaussianBlur in="SourceAlpha" stdDeviation="2.0" result="blur"/><feComponentTransfer in="blur" color-interpolation-filters="sRGB"><feFuncR type="linear" slope="0" intercept="0.0"/><feFuncG type="linear" slope="0" intercept="0.0"/><feFuncB type="linear" slope="0" intercept="0.0"/><feFuncA type="linear" slope="0.5" intercept="0"/></feComponentTransfer></filter></defs><g id="g7681e36bab_0_129.9"><defs><radialGradient id="g7681e36bab_0_129.10" gradientUnits="userSpaceOnUse" gradientTransform="matrix(24.69065594747933 -9.65291835995637 -9.65291835995637 -24.69065594747933 0.0 0.0)" spreadMethod="pad" cx="25.570762080462647" cy="-11.41790368282648" fx="25.570762080462647" fy="-11.41790368282648" r="24.690656661987305"><stop offset="0.0" stop-color="#ffb4ad"/><stop offset="0.73" stop-color="#c96b59"/><stop offset="1.0" stop-color="#1d324a"/></radialGradient></defs><path fill="url(#g7681e36bab_0_129.10)" d="m622.0844 81.79839l-14.011047 56.2938l4.5386353 -0.43319702l48.71161 -34.315666l-25.515137 35.129234l21.14441 1.5318146c88.91107 14.114395 158.70868 79.14221 175.69348 163.00658l0.9225464 9.915436l26.540588 25.349426l-23.47522 -10.590973l13.90564 64.83829l-16.457214 -25.909943l-2.5403442 21.388428c-21.907593 96.32437 -112.176575 169.63895 -219.24475 170.88101c-107.06818 1.2420654 -195.45914 -70.00018 -214.87064 -165.84518l-1.961792 -21.084137l-16.16565 26.359161l13.299988 -63.473846l-15.52002 13.473145l20.98822 -36.363007l0.4635315 -3.902069c19.169067 -84.283676 90.67737 -150.95064 179.98224 -167.13245l4.602112 -0.4393158z" fill-rule="evenodd"/></g><g filter="url(#shadowFilter-g7681e36bab_0_129.11)"><use xlink:href="#g7681e36bab_0_129.11" transform="matrix(1.0 0.0 0.0 1.0 0.0026246719160104987 0.0)"/></g><defs><filter id="shadowFilter-g7681e36bab_0_129.11" filterUnits="userSpaceOnUse"><feGaussianBlur in="SourceAlpha" stdDeviation="2.2222223" result="blur"/><feComponentTransfer in="blur" color-interpolation-filters="sRGB"><feFuncR type="linear" slope="0" intercept="0.0"/><feFuncG type="linear" slope="0" intercept="0.0"/><feFuncB type="linear" slope="0" intercept="0.0"/><feFuncA type="linear" slope="0.2667" intercept="0"/></feComponentTransfer></filter></defs><g id="g7681e36bab_0_129.11"><defs><linearGradient id="g7681e36bab_0_129.12" gradientUnits="userSpaceOnUse" gradientTransform="matrix(-15.491383154857703 0.0 0.0 15.491383154857703 0.0 0.0)" spreadMethod="pad" x1="-57.25128918175633" y1="20.100440974008947" x2="-46.29286454280404" y2="31.050138754450767"><stop offset="0.0" stop-color="#cfcfd2"/><stop offset="1.0" stop-color="#ffffff"/></linearGradient></defs><path fill="url(#g7681e36bab_0_129.12)" d="m807.4783 311.32037l0 0c0 -43.86429 -40.41339 -79.42331 -90.26587 -79.42331l0 0c-49.85254 0 -90.26593 35.55902 -90.26593 79.42331l0 0c0 43.86429 40.41339 79.42334 90.26593 79.42334l0 0c49.852478 0 90.26587 -35.55905 90.26587 -79.42334z" fill-rule="evenodd"/></g><g filter="url(#shadowFilter-g7681e36bab_0_129.13)"><use xlink:href="#g7681e36bab_0_129.13" transform="matrix(1.0 0.0 0.0 1.0 0.0 2.0)"/></g><defs><filter id="shadowFilter-g7681e36bab_0_129.13" filterUnits="userSpaceOnUse"><feGaussianBlur in="SourceAlpha" stdDeviation="2.0" result="blur"/><feComponentTransfer in="blur" color-interpolation-filters="sRGB"><feFuncR type="linear" slope="0" intercept="0.0"/><feFuncG type="linear" slope="0" intercept="0.0"/><feFuncB type="linear" slope="0" intercept="0.0"/><feFuncA type="linear" slope="0.5" intercept="0"/></feComponentTransfer></filter></defs><g id="g7681e36bab_0_129.13"><defs><linearGradient id="g7681e36bab_0_129.14" gradientUnits="userSpaceOnUse" gradientTransform="matrix(11.465989567825627 0.0 0.0 11.465989567825627 0.0 0.0)" spreadMethod="pad" x1="56.179180136377695" y1="21.668388463677157" x2="56.176844545935666" y2="33.134377793626115"><stop offset="0.0" stop-color="#1d324a"/><stop offset="0.1" stop-color="#22384f" stop-opacity="0.94509804"/><stop offset="0.2" stop-color="#273f55" stop-opacity="0.8901961"/><stop offset="0.3" stop-color="#2f475c" stop-opacity="0.8352941"/><stop offset="0.4" stop-color="#365164" stop-opacity="0.78039217"/><stop offset="0.5" stop-color="#3f5a6e" stop-opacity="0.7294118"/><stop offset="0.6" stop-color="#496678" stop-opacity="0.6745098"/><stop offset="0.7" stop-color="#547684" stop-opacity="0.61960787"/><stop offset="0.8" stop-color="#638793" stop-opacity="0.5647059"/><stop offset="0.90000004" stop-color="#749ba5" stop-opacity="0.50980395"/><stop offset="1.0" stop-color="#8ab5bb" stop-opacity="0.45882353"/></linearGradient></defs><path fill="url(#g7681e36bab_0_129.14)" d="m644.1499 314.19843l0 0c0 -36.296143 31.780396 -65.72 70.98352 -65.72l0 0c39.203125 0 70.98352 29.423859 70.98352 65.72l0 0c0 36.296143 -31.780396 65.72 -70.98352 65.72l0 0c-39.203125 0 -70.98352 -29.423859 -70.98352 -65.72z" fill-rule="evenodd"/></g><defs><radialGradient id="g7681e36bab_0_129.15" gradientUnits="userSpaceOnUse" gradientTransform="matrix(-8.542548946976128 0.0 0.0 8.542548946976128 0.0 0.0)" spreadMethod="pad" cx="-83.63469208499505" cy="36.80601120499321" fx="-83.63469208499505" fy="36.80601120499321" r="8.542549133300781"><stop offset="0.0" stop-color="#7f7f7f"/><stop offset="0.29" stop-color="#000000"/><stop offset="1.0" stop-color="#000000"/></radialGradient></defs><path fill="url(#g7681e36bab_0_129.15)" d="m768.5004 314.41714l0 0c0 -27.080536 -24.197693 -49.03363 -54.046997 -49.03363l0 0c-29.849304 0 -54.046936 21.953094 -54.046936 49.03363l0 0c0 27.080536 24.197632 49.03366 54.046936 49.03366l0 0c29.849304 0 54.046997 -21.953125 54.046997 -49.03366z" fill-rule="evenodd"/><g filter="url(#shadowFilter-g7681e36bab_0_129.16)"><use xlink:href="#g7681e36bab_0_129.16" transform="matrix(1.0 0.0 0.0 1.0 0.0 2.0)"/></g><defs><filter id="shadowFilter-g7681e36bab_0_129.16" filterUnits="userSpaceOnUse"><feGaussianBlur in="SourceAlpha" stdDeviation="2.0" result="blur"/><feComponentTransfer in="blur" color-interpolation-filters="sRGB"><feFuncR type="linear" slope="0" intercept="0.0"/><feFuncG type="linear" slope="0" intercept="0.0"/><feFuncB type="linear" slope="0" intercept="0.0"/><feFuncA type="linear" slope="0.5" intercept="0"/></feComponentTransfer></filter></defs><g id="g7681e36bab_0_129.16"><defs><linearGradient id="g7681e36bab_0_129.17" gradientUnits="userSpaceOnUse" gradientTransform="matrix(-8.748108095071018 0.0 0.0 8.748108095071018 0.0 0.0)" spreadMethod="pad" x1="-90.52548809902592" y1="32.94049080255077" x2="-84.33717969847582" y2="39.12387453500084"><stop offset="0.0" stop-color="#cfcfd2"/><stop offset="1.0" stop-color="#ffffff"/></linearGradient></defs><path fill="url(#g7681e36bab_0_129.17)" d="m766.2913 288.14658l0 0c0 -14.158081 -12.749939 -25.635468 -28.477844 -25.635468l0 0c-15.727905 0 -28.477905 11.477386 -28.477905 25.635468l0 0c0 14.158081 12.75 25.635468 28.477905 25.635468l0 0c15.727905 0 28.477844 -11.477386 28.477844 -25.635468z" fill-rule="evenodd"/></g><g filter="url(#shadowFilter-g7681e36bab_0_129.18)"><use xlink:href="#g7681e36bab_0_129.18" transform="matrix(1.0 0.0 0.0 1.0 0.0 2.0)"/></g><defs><filter id="shadowFilter-g7681e36bab_0_129.18" filterUnits="userSpaceOnUse"><feGaussianBlur in="SourceAlpha" stdDeviation="2.0" result="blur"/><feComponentTransfer in="blur" color-interpolation-filters="sRGB"><feFuncR type="linear" slope="0" intercept="0.0"/><feFuncG type="linear" slope="0" intercept="0.0"/><feFuncB type="linear" slope="0" intercept="0.0"/><feFuncA type="linear" slope="0.5" intercept="0"/></feComponentTransfer></filter></defs><g id="g7681e36bab_0_129.18"><defs><linearGradient id="g7681e36bab_0_129.19" gradientUnits="userSpaceOnUse" gradientTransform="matrix(-5.920128844702668 0.0 0.0 5.920128844702668 0.0 0.0)" spreadMethod="pad" x1="-120.874220824839" y1="56.988791356238295" x2="-116.68639188952372" y2="61.17328826105454"><stop offset="0.0" stop-color="#cfcfd2"/><stop offset="1.0" stop-color="#ffffff"/></linearGradient></defs><path fill="url(#g7681e36bab_0_129.19)" d="m703.0063 337.37097l0 0c0 -6.950348 -5.4612427 -12.584686 -12.198059 -12.584686l0 0c-3.2351685 0 -6.3377686 1.3258667 -8.625366 3.6859741c-2.2875977 2.360077 -3.572754 5.561035 -3.572754 8.898712l0 0c0 6.9503174 5.4613037 12.584686 12.19812 12.584686l0 0c6.7368164 0 12.198059 -5.634369 12.198059 -12.584686z" fill-rule="evenodd"/></g><g filter="url(#shadowFilter-g7681e36bab_0_129.20)"><use xlink:href="#g7681e36bab_0_129.20" transform="matrix(1.0 0.0 0.0 1.0 0.0 2.0)"/></g><defs><filter id="shadowFilter-g7681e36bab_0_129.20" filterUnits="userSpaceOnUse"><feGaussianBlur in="SourceAlpha" stdDeviation="2.0" result="blur"/><feComponentTransfer in="blur" color-interpolation-filters="sRGB"><feFuncR type="linear" slope="0" intercept="0.0"/><feFuncG type="linear" slope="0" intercept="0.0"/><feFuncB type="linear" slope="0" intercept="0.0"/><feFuncA type="linear" slope="0.5" intercept="0"/></feComponentTransfer></filter></defs><g id="g7681e36bab_0_129.20"><defs><linearGradient id="g7681e36bab_0_129.21" gradientUnits="userSpaceOnUse" gradientTransform="matrix(-5.766670390874455 2.1254072370975017 -2.1254072370975017 -5.766670390874455 0.0 0.0)" spreadMethod="pad" x1="-80.04956984808618" y1="-103.70558860723129" x2="-75.97029359608713" y2="-99.62956203017555"><stop offset="0.0" stop-color="#cfcfd2"/><stop offset="1.0" stop-color="#ffffff"/></linearGradient></defs><path fill="url(#g7681e36bab_0_129.21)" d="m663.55255 419.379l3.1205444 29.53717l-23.134949 -22.160522z" fill-rule="evenodd"/></g><g filter="url(#shadowFilter-g7681e36bab_0_129.22)"><use xlink:href="#g7681e36bab_0_129.22" transform="matrix(1.0 0.0 0.0 1.0 0.0 2.0)"/></g><defs><filter id="shadowFilter-g7681e36bab_0_129.22" filterUnits="userSpaceOnUse"><feGaussianBlur in="SourceAlpha" stdDeviation="2.0" result="blur"/><feComponentTransfer in="blur" color-interpolation-filters="sRGB"><feFuncR type="linear" slope="0" intercept="0.0"/><feFuncG type="linear" slope="0" intercept="0.0"/><feFuncB type="linear" slope="0" intercept="0.0"/><feFuncA type="linear" slope="0.5" intercept="0"/></feComponentTransfer></filter></defs><g id="g7681e36bab_0_129.22"><defs><linearGradient id="g7681e36bab_0_129.23" gradientUnits="userSpaceOnUse" gradientTransform="matrix(-5.7541477823170535 -1.8466074899950533 1.8466074899950533 -5.7541477823170535 0.0 0.0)" spreadMethod="pad" x1="-118.31096967533313" y1="-39.27468926718975" x2="-114.24054778087104" y2="-35.207517977235526"><stop offset="0.0" stop-color="#cfcfd2"/><stop offset="1.0" stop-color="#ffffff"/></linearGradient></defs><path fill="url(#g7681e36bab_0_129.23)" d="m599.31696 427.0997l-21.090454 22.251953l0.57385254 -28.83609z" fill-rule="evenodd"/></g><g filter="url(#shadowFilter-g7681e36bab_0_129.24)"><use xlink:href="#g7681e36bab_0_129.24" transform="matrix(1.0 0.0 0.0 1.0 0.0 2.0)"/></g><defs><filter id="shadowFilter-g7681e36bab_0_129.24" filterUnits="userSpaceOnUse"><feGaussianBlur in="SourceAlpha" stdDeviation="2.0" result="blur"/><feComponentTransfer in="blur" color-interpolation-filters="sRGB"><feFuncR type="linear" slope="0" intercept="0.0"/><feFuncG type="linear" slope="0" intercept="0.0"/><feFuncB type="linear" slope="0" intercept="0.0"/><feFuncA type="linear" slope="0.5" intercept="0"/></feComponentTransfer></filter></defs><g id="g7681e36bab_0_129.24"><path fill="#000000" fill-opacity="0.0" d="m669.1555 413.33588l0 0c-7.5651245 9.585419 -26.544434 16.028564 -48.00122 16.295532c-21.456787 0.26693726 -41.11389 -5.6954956 -49.715393 -15.079803l48.34027 -10.089905z" fill-rule="evenodd"/><path fill="#000000" fill-opacity="0.0" d="m669.1555 413.33588l0 0c-7.5651245 9.585419 -26.544434 16.028564 -48.00122 16.295532c-21.456787 0.26693726 -41.11389 -5.6954956 -49.715393 -15.079803" fill-rule="evenodd"/><path stroke="#000000" stroke-width="2.0" stroke-miterlimit="800.0" stroke-linecap="butt" d="m669.1555 413.33588l0 0c-7.5651245 9.585419 -26.544434 16.028564 -48.00122 16.295532c-21.456787 0.26693726 -41.11389 -5.6954956 -49.715393 -15.079803" fill-rule="evenodd"/></g><g filter="url(#shadowFilter-g7681e36bab_0_129.25)"><use xlink:href="#g7681e36bab_0_129.25" transform="matrix(1.0 0.0 0.0 1.0 0.0 2.0)"/></g><defs><filter id="shadowFilter-g7681e36bab_0_129.25" filterUnits="userSpaceOnUse"><feGaussianBlur in="SourceAlpha" stdDeviation="2.0" result="blur"/><feComponentTransfer in="blur" color-interpolation-filters="sRGB"><feFuncR type="linear" slope="0" intercept="0.0"/><feFuncG type="linear" slope="0" intercept="0.0"/><feFuncB type="linear" slope="0" intercept="0.0"/><feFuncA type="linear" slope="0.5" intercept="0"/></feComponentTransfer></filter></defs><g id="g7681e36bab_0_129.25"><defs><radialGradient id="g7681e36bab_0_129.26" gradientUnits="userSpaceOnUse" gradientTransform="matrix(-6.156681323739281 0.0 0.0 6.156681323739281 0.0 0.0)" spreadMethod="pad" cx="-100.63279046299115" cy="63.690116659958164" fx="-100.63279046299115" fy="63.690116659958164" r="6.156681537628174"><stop offset="0.0" stop-color="#3a3838"/><stop offset="0.86" stop-color="#000000"/><stop offset="1.0" stop-color="#000000"/></radialGradient></defs><path fill="url(#g7681e36bab_0_129.26)" d="m654.8274 387.78143c-3.071167 -3.4672241 -23.2146 -8.0672 -34.8219 -8.34436c-11.607239 -0.27716064 -30.51001 3.3804626 -34.82184 6.6814575c-4.3118896 3.3009644 2.6688232 9.571594 8.95105 11.461182c6.2822266 1.8895569 18.487793 6.749756 25.870789 7.1931458c7.3830566 0.4434204 12.350159 -2.5321045 18.427246 -4.532501c6.0770264 -2.0004272 19.46582 -8.99173 16.394653 -12.458923z" fill-rule="evenodd"/></g><path fill="#924d40" d="m725.323 413.10245l0 0c0 -5.7070007 6.190979 -10.333435 13.827881 -10.333435l0 0c7.636963 0 13.827942 4.6264343 13.827942 10.333435l0 0c0 5.7070007 -6.190979 10.333466 -13.827942 10.333466l0 0c-7.636902 0 -13.827881 -4.626465 -13.827881 -10.333466z" fill-rule="evenodd"/><path fill="#924d40" d="m478.7464 412.25818l0 0c0 -5.7070312 6.1909485 -10.333466 13.827881 -10.333466l0 0c7.636963 0 13.827911 4.6264343 13.827911 10.333466l0 0c0 5.7070007 -6.1909485 10.333435 -13.827911 10.333435l0 0c-7.6369324 0 -13.827881 -4.6264343 -13.827881 -10.333435z" fill-rule="evenodd"/><path fill="#924d40" d="m509.93564 428.11777l0 0c0 -3.5858154 3.6125793 -6.4927063 8.068939 -6.4927063l0 0c4.456299 0 8.068909 2.9068909 8.068909 6.4927063l0 0c0 3.5858154 -3.6126099 6.4927063 -8.068909 6.4927063l0 0c-4.45636 0 -8.068939 -2.9068909 -8.068939 -6.4927063z" fill-rule="evenodd"/><path fill="#924d40" d="m703.56665 426.87912l0 0c0 -3.5858154 3.6126099 -6.4927063 8.068909 -6.4927063l0 0c4.45636 0 8.068909 2.9068909 8.068909 6.4927063l0 0c0 3.5858154 -3.6125488 6.492676 -8.068909 6.492676l0 0c-4.456299 0 -8.068909 -2.9068604 -8.068909 -6.492676z" fill-rule="evenodd"/><path fill="#924d40" d="m755.39636 429.55075l0 0c0 -3.5858154 3.6125488 -6.4927063 8.068909 -6.4927063l0 0c4.45636 0 8.068909 2.9068909 8.068909 6.4927063l0 0c0 3.5858154 -3.6125488 6.492676 -8.068909 6.492676l0 0c-4.45636 0 -8.068909 -2.9068604 -8.068909 -6.492676z" fill-rule="evenodd"/><path fill="#924d40" d="m460.1301 430.14627l0 0c0 -3.5858154 3.6125793 -6.4927063 8.068939 -6.4927063l0 0c4.4563293 0 8.068909 2.9068909 8.068909 6.4927063l0 0c0 3.5858154 -3.6125793 6.492676 -8.068909 6.492676l0 0c-4.45636 0 -8.068939 -2.9068604 -8.068939 -6.492676z" fill-rule="evenodd"/><g filter="url(#shadowFilter-g7681e36bab_0_129.27)"><use xlink:href="#g7681e36bab_0_129.27" transform="matrix(1.0 0.0 0.0 1.0 0.0026246719160104987 0.0)"/></g><defs><filter id="shadowFilter-g7681e36bab_0_129.27" filterUnits="userSpaceOnUse"><feGaussianBlur in="SourceAlpha" stdDeviation="2.2222223" result="blur"/><feComponentTransfer in="blur" color-interpolation-filters="sRGB"><feFuncR type="linear" slope="0" intercept="0.0"/><feFuncG type="linear" slope="0" intercept="0.0"/><feFuncB type="linear" slope="0" intercept="0.0"/><feFuncA type="linear" slope="0.2667" intercept="0"/></feComponentTransfer></filter></defs><g id="g7681e36bab_0_129.27"><defs><linearGradient id="g7681e36bab_0_129.28" gradientUnits="userSpaceOnUse" gradientTransform="matrix(-15.49138221851943 0.0 0.0 15.49138221851943 0.0 0.0)" spreadMethod="pad" x1="-44.1845519120866" y1="20.037399136866206" x2="-33.226129258089934" y2="30.987097579135416"><stop offset="0.0" stop-color="#cfcfd2"/><stop offset="1.0" stop-color="#ffffff"/></linearGradient></defs><path fill="url(#g7681e36bab_0_129.28)" d="m605.05646 310.34375l0 0c0 -43.86429 -40.413452 -79.423325 -90.26593 -79.423325l0 0c-49.852478 0 -90.2659 35.559036 -90.2659 79.423325l0 0c0 43.86429 40.41342 79.42334 90.2659 79.42334l0 0c49.852478 0 90.26593 -35.55905 90.26593 -79.42334z" fill-rule="evenodd"/></g><g filter="url(#shadowFilter-g7681e36bab_0_129.29)"><use xlink:href="#g7681e36bab_0_129.29" transform="matrix(1.0 0.0 0.0 1.0 0.0 2.0)"/></g><defs><filter id="shadowFilter-g7681e36bab_0_129.29" filterUnits="userSpaceOnUse"><feGaussianBlur in="SourceAlpha" stdDeviation="2.0" result="blur"/><feComponentTransfer in="blur" color-interpolation-filters="sRGB"><feFuncR type="linear" slope="0" intercept="0.0"/><feFuncG type="linear" slope="0" intercept="0.0"/><feFuncB type="linear" slope="0" intercept="0.0"/><feFuncA type="linear" slope="0.5" intercept="0"/></feComponentTransfer></filter></defs><g id="g7681e36bab_0_129.29"><defs><linearGradient id="g7681e36bab_0_129.30" gradientUnits="userSpaceOnUse" gradientTransform="matrix(11.465990462002623 0.0 0.0 11.465990462002623 0.0 0.0)" spreadMethod="pad" x1="38.525067751194605" y1="21.583209263536673" x2="38.522732160934716" y2="33.04919948766268"><stop offset="0.0" stop-color="#1d324a"/><stop offset="0.1" stop-color="#22384f" stop-opacity="0.94509804"/><stop offset="0.2" stop-color="#273f55" stop-opacity="0.8901961"/><stop offset="0.3" stop-color="#2f475c" stop-opacity="0.8352941"/><stop offset="0.4" stop-color="#365164" stop-opacity="0.78039217"/><stop offset="0.5" stop-color="#3f5a6e" stop-opacity="0.7294118"/><stop offset="0.6" stop-color="#496678" stop-opacity="0.6745098"/><stop offset="0.7" stop-color="#547684" stop-opacity="0.61960787"/><stop offset="0.8" stop-color="#638793" stop-opacity="0.5647059"/><stop offset="0.90000004" stop-color="#749ba5" stop-opacity="0.50980395"/><stop offset="1.0" stop-color="#8ab5bb" stop-opacity="0.45882353"/></linearGradient></defs><path fill="url(#g7681e36bab_0_129.30)" d="m441.72806 313.2218l0 0c0 -36.296173 31.780396 -65.72002 70.98355 -65.72002l0 0c39.203125 0 70.98352 29.423843 70.98352 65.72002l0 0c0 36.296143 -31.780396 65.72 -70.98352 65.72l0 0c-39.203156 0 -70.98355 -29.423859 -70.98355 -65.72z" fill-rule="evenodd"/></g><g filter="url(#shadowFilter-g7681e36bab_0_129.31)"><use xlink:href="#g7681e36bab_0_129.31" transform="matrix(1.0 0.0 0.0 1.0 0.0 2.0)"/></g><defs><filter id="shadowFilter-g7681e36bab_0_129.31" filterUnits="userSpaceOnUse"><feGaussianBlur in="SourceAlpha" stdDeviation="2.0" result="blur"/><feComponentTransfer in="blur" color-interpolation-filters="sRGB"><feFuncR type="linear" slope="0" intercept="0.0"/><feFuncG type="linear" slope="0" intercept="0.0"/><feFuncB type="linear" slope="0" intercept="0.0"/><feFuncA type="linear" slope="0.5" intercept="0"/></feComponentTransfer></filter></defs><g id="g7681e36bab_0_129.31"><defs><radialGradient id="g7681e36bab_0_129.32" gradientUnits="userSpaceOnUse" gradientTransform="matrix(-8.542548946976128 0.0 0.0 8.542548946976128 0.0 0.0)" spreadMethod="pad" cx="-59.93897399474777" cy="36.69168576381315" fx="-59.93897399474777" fy="36.69168576381315" r="8.542549133300781"><stop offset="0.0" stop-color="#7f7f7f"/><stop offset="0.29" stop-color="#000000"/><stop offset="1.0" stop-color="#000000"/></radialGradient></defs><path fill="url(#g7681e36bab_0_129.32)" d="m566.07855 313.44052l0 0c0 -27.080536 -24.197632 -49.03366 -54.046936 -49.03366l0 0c-29.849304 0 -54.046936 21.953125 -54.046936 49.03366l0 0c0 27.080536 24.197632 49.03366 54.046936 49.03366l0 0c29.849304 0 54.046936 -21.953125 54.046936 -49.03366z" fill-rule="evenodd"/></g><g filter="url(#shadowFilter-g7681e36bab_0_129.33)"><use xlink:href="#g7681e36bab_0_129.33" transform="matrix(1.0 0.0 0.0 1.0 0.0 2.0)"/></g><defs><filter id="shadowFilter-g7681e36bab_0_129.33" filterUnits="userSpaceOnUse"><feGaussianBlur in="SourceAlpha" stdDeviation="2.0" result="blur"/><feComponentTransfer in="blur" color-interpolation-filters="sRGB"><feFuncR type="linear" slope="0" intercept="0.0"/><feFuncG type="linear" slope="0" intercept="0.0"/><feFuncB type="linear" slope="0" intercept="0.0"/><feFuncA type="linear" slope="0.5" intercept="0"/></feComponentTransfer></filter></defs><g id="g7681e36bab_0_129.33"><defs><linearGradient id="g7681e36bab_0_129.34" gradientUnits="userSpaceOnUse" gradientTransform="matrix(-9.081710765509222 0.0 0.0 9.081710765509222 0.0 0.0)" spreadMethod="pad" x1="-64.25833165326088" y1="32.54235230895303" x2="-57.83403699507995" y2="38.96153516763792"><stop offset="0.0" stop-color="#cfcfd2"/><stop offset="1.0" stop-color="#ffffff"/></linearGradient></defs><path fill="url(#g7681e36bab_0_129.34)" d="m555.4698 295.51785l0 0c0 -15.5224 -13.527161 -28.105774 -30.213745 -28.105774l0 0c-16.686584 0 -30.213715 12.583374 -30.213715 28.105774l0 0c0 15.5224 13.52713 28.105804 30.213715 28.105804l0 0c16.686584 0 30.213745 -12.583405 30.213745 -28.105804z" fill-rule="evenodd"/></g><g filter="url(#shadowFilter-g7681e36bab_0_129.35)"><use xlink:href="#g7681e36bab_0_129.35" transform="matrix(1.0 0.0 0.0 1.0 0.0 2.0)"/></g><defs><filter id="shadowFilter-g7681e36bab_0_129.35" filterUnits="userSpaceOnUse"><feGaussianBlur in="SourceAlpha" stdDeviation="2.0" result="blur"/><feComponentTransfer in="blur" color-interpolation-filters="sRGB"><feFuncR type="linear" slope="0" intercept="0.0"/><feFuncG type="linear" slope="0" intercept="0.0"/><feFuncB type="linear" slope="0" intercept="0.0"/><feFuncA type="linear" slope="0.5" intercept="0"/></feComponentTransfer></filter></defs><g id="g7681e36bab_0_129.35"><defs><linearGradient id="g7681e36bab_0_129.36" gradientUnits="userSpaceOnUse" gradientTransform="matrix(-5.920128844702668 0.0 0.0 5.920128844702668 0.0 0.0)" spreadMethod="pad" x1="-86.68209455715993" y1="56.82382467369355" x2="-82.49426562184465" y2="61.00832157850979"><stop offset="0.0" stop-color="#cfcfd2"/><stop offset="1.0" stop-color="#ffffff"/></linearGradient></defs><path fill="url(#g7681e36bab_0_129.36)" d="m500.58447 336.39435l0 0c0 -6.950348 -5.461273 -12.584686 -12.19809 -12.584686l0 0c-3.235138 0 -6.3377686 1.3258667 -8.625366 3.6859741c-2.2875671 2.360077 -3.5727234 5.561035 -3.5727234 8.898712l0 0c0 6.9503174 5.461273 12.584656 12.19809 12.584656l0 0c6.7368164 0 12.19809 -5.6343384 12.19809 -12.584656z" fill-rule="evenodd"/></g><defs><linearGradient id="g7681e36bab_0_129.37" gradientUnits="userSpaceOnUse" gradientTransform="matrix(7.4976159634853365 0.0 0.0 7.4976159634853365 0.0 0.0)" spreadMethod="pad" x1="79.58505285355774" y1="11.101715571822846" x2="79.58352677791055" y2="18.59933137999835"><stop offset="0.0" stop-color="#ffb4ad"/><stop offset="0.85" stop-color="#c96b59"/><stop offset="1.0" stop-color="#c96b59"/></linearGradient></defs><path fill="url(#g7681e36bab_0_129.37)" d="m621.5798 83.24147l-24.881592 56.209167l11.060181 -0.95422363z" fill-rule="evenodd"/></g></svg>