<svg version="1.1" viewBox="0.0 0.0 1280.0 720.0" fill="none" stroke="none" stroke-linecap="square" stroke-miterlimit="10" xmlns:xlink="http://www.w3.org/1999/xlink" xmlns="http://www.w3.org/2000/svg"><clipPath id="g767f0c93c4_0_371.0"><path d="m0 0l1280.0 0l0 720.0l-1280.0 0l0 -720.0z" clip-rule="nonzero"/></clipPath><g clip-path="url(#g767f0c93c4_0_371.0)"><path fill="#ffffff" d="m0 0l1280.0 0l0 720.0l-1280.0 0z" fill-rule="evenodd"/><defs><linearGradient id="g767f0c93c4_0_371.1" gradientUnits="userSpaceOnUse" gradientTransform="matrix(8.17113285104286 -6.496129466688472 6.496129466688472 8.17113285104286 0.0 0.0)" spreadMethod="pad" x1="17.6911624059416" y1="36.40987266942406" x2="17.69113294079562" y2="44.5810055204138"><stop offset="0.0" stop-color="#fb9195"/><stop offset="0.51" stop-color="#c96b59"/><stop offset="0.97" stop-color="#1d324a"/><stop offset="1.0" stop-color="#1d324a"/></linearGradient></defs><path fill="url(#g767f0c93c4_0_371.1)" d="m434.16083 249.35324l-5.6686707 -104.4599l103.68332 26.537277z" fill-rule="evenodd"/><defs><linearGradient id="g767f0c93c4_0_371.2" gradientUnits="userSpaceOnUse" gradientTransform="matrix(8.279471856240308 6.11797116883347 -6.11797116883347 8.279471856240308 0.0 0.0)" spreadMethod="pad" x1="65.40476281795081" y1="-34.765283406818405" x2="65.4047309484936" y2="-26.485811550639433"><stop offset="0.0" stop-color="#fb9195"/><stop offset="0.51" stop-color="#c96b59"/><stop offset="0.97" stop-color="#1d324a"/><stop offset="1.0" stop-color="#1d324a"/></linearGradient></defs><path fill="url(#g767f0c93c4_0_371.2)" d="m703.55634 180.85591l102.67804 -30.10646l-1.8709106 104.59613z" fill-rule="evenodd"/><defs><linearGradient id="g767f0c93c4_0_371.3" gradientUnits="userSpaceOnUse" gradientTransform="matrix(7.361570261836035 -9.767298640733046 9.767298640733046 7.361570261836035 0.0 0.0)" spreadMethod="pad" x1="-10.613851650245795" y1="68.28264380960398" x2="-10.61388685723982" y2="78.04994245027358"><stop offset="0.0" stop-color="#1d324a"/><stop offset="1.0" stop-color="#c96b59"/></linearGradient></defs><path fill="url(#g767f0c93c4_0_371.3)" d="m666.32983 511.2452c7.5671997 -0.57598877 14.266296 4.9272156 14.963135 12.291901l8.923035 94.31641l-0.35803223 3.2235718l17.242004 12.386108c3.8873901 2.7926025 4.753174 8.088928 1.9337158 11.829712c-2.819458 3.7408447 -8.256348 4.5095215 -12.143738 1.716919l-8.785828 -6.3114624l1.2957153 13.695557c0.44030762 4.6539917 -3.0794067 8.721741 -7.861328 9.085693c-4.7819824 0.36395264 -9.015381 -3.1139526 -9.4557495 -7.7679443l-1.6018066 -16.931091l-7.6757812 11.75824c-2.5570068 3.916809 -7.924988 5.03302 -11.989807 2.493164c-4.0648193 -2.539856 -5.2871704 -7.773987 -2.7302246 -11.690735l13.635986 -20.888184l1.0721436 -0.72442627l-8.903137 -94.10614c-0.6968384 -7.364624 4.8726807 -13.801483 12.439697 -14.377289z" fill-rule="evenodd"/><defs><linearGradient id="g767f0c93c4_0_371.4" gradientUnits="userSpaceOnUse" gradientTransform="matrix(8.449604033765766 -9.421971541374479 9.421971541374479 8.449604033765766 0.0 0.0)" spreadMethod="pad" x1="-10.40038331746111" y1="59.78568183055019" x2="-10.400417342186962" y2="69.20765337186323"><stop offset="0.0" stop-color="#1d324a"/><stop offset="1.0" stop-color="#c96b59"/></linearGradient></defs><path fill="url(#g767f0c93c4_0_371.4)" d="m561.04877 514.6683c7.5961304 0.046081543 13.792847 6.086426 13.841064 13.491699l0.616333 94.83673l-0.6400757 3.1869507l16.105164 13.772644c3.6311035 3.1051636 4.029358 8.460632 0.88952637 11.961792c-3.1398315 3.5011597 -8.628662 3.8221436 -12.259766 0.71691895l-8.206543 -7.0179443l0.08947754 13.771057c0.030456543 4.6796875 -3.8363037 8.449585 -8.636597 8.420471c-4.800232 -0.02911377 -8.7161255 -3.8464355 -8.746582 -8.526062l-0.11065674 -17.024536l-8.686279 11.102234c-2.8935547 3.6982422 -8.344238 4.371643 -12.174438 1.5040894c-3.8302002 -2.8676147 -4.5894775 -8.190186 -1.6958618 -11.888489l15.430969 -19.722717l1.1326904 -0.6348877l-0.6149292 -94.625244c-0.048217773 -7.4052734 6.0705566 -13.37085 13.666504 -13.324707z" fill-rule="evenodd"/><defs><linearGradient id="g767f0c93c4_0_371.5" gradientUnits="userSpaceOnUse" gradientTransform="matrix(10.673310968181076 2.2669674781381 -2.2669674781381 10.673310968181076 0.0 0.0)" spreadMethod="pad" x1="42.328680721802066" y1="31.707105495708063" x2="42.32864313680968" y2="42.38041646382296"><stop offset="0.0" stop-color="#1d324a"/><stop offset="1.0" stop-color="#c96b59"/></linearGradient></defs><path fill="url(#g767f0c93c4_0_371.5)" d="m504.5782 465.5191c3.7027283 6.4635315 1.3019409 14.586487 -5.3623047 18.143341l-85.34726 45.550507l-3.1937866 0.9703369l-4.4999695 20.196777c-1.0145874 4.553589 -5.654999 7.434021 -10.364746 6.433716c-4.7097473 -1.0003662 -7.7052307 -5.5026245 -6.6906433 -10.056213l2.2929993 -10.291443l-12.393127 6.614319c-4.2113953 2.2476807 -9.522217 0.7584839 -11.862091 -3.3260498c-2.3398743 -4.0845337 -0.8225403 -9.217834 3.388855 -11.465515l15.320984 -8.176941l-14.308533 -2.0949097c-4.766388 -0.697937 -8.06131 -5.0004883 -7.359497 -9.610107c0.70181274 -4.609619 5.1346436 -7.78067 9.901001 -7.0827637l25.418793 3.7216797l1.1317139 0.65914917l85.15695 -45.448975c6.664276 -3.5568542 15.068115 -1.2003784 18.77066 5.263092z" fill-rule="evenodd"/><defs><linearGradient id="g767f0c93c4_0_371.6" gradientUnits="userSpaceOnUse" gradientTransform="matrix(-3.052928406146781 -10.763452474702836 10.763452474702836 -3.052928406146781 0.0 0.0)" spreadMethod="pad" x1="-69.020513585477" y1="50.19956563659506" x2="-69.02055024113055" y2="60.96301811123548"><stop offset="0.0" stop-color="#1d324a"/><stop offset="1.0" stop-color="#c96b59"/></linearGradient></defs><path fill="url(#g767f0c93c4_0_371.6)" d="m721.6224 468.6637c4.2178955 -6.1724854 12.798889 -7.91803 19.166565 -3.8988647l81.54736 51.4729l2.3769531 2.2688599l20.652527 -5.592285c4.656311 -1.2608032 9.461243 1.3493652 10.732117 5.829956c1.270874 4.480652 -1.4735718 9.13501 -6.129883 10.395813l-10.523682 2.8496094l11.841309 7.474243c4.023987 2.539917 5.125122 7.7609863 2.4597168 11.661621c-2.6654663 3.9005737 -8.088257 5.00354 -12.112244 2.463684l-14.638855 -9.240051l4.7286987 13.171814c1.5751343 4.3877563 -0.8465576 9.204041 -5.4089355 10.757568c-4.562378 1.5534668 -9.537781 -0.7440796 -11.112915 -5.131836l-8.40033 -23.399475l0.07946777 -1.2721558l-81.3656 -51.358093c-6.367676 -4.019165 -8.110168 -12.281006 -3.892273 -18.453308z" fill-rule="evenodd"/><defs><linearGradient id="g767f0c93c4_0_371.7" gradientUnits="userSpaceOnUse" gradientTransform="matrix(-11.817497047627075 -3.964281218107586 3.964281218107586 -11.817497047627075 0.0 0.0)" spreadMethod="pad" x1="-80.62501029686025" y1="-14.014227692351485" x2="-80.62505635869503" y2="-2.196730644814181"><stop offset="0.0" stop-color="#1d324a"/><stop offset="1.0" stop-color="#c96b59"/></linearGradient></defs><path fill="url(#g767f0c93c4_0_371.7)" d="m762.59467 433.98495c-2.972107 -8.405487 1.1952515 -18.273193 9.3081665 -22.040405l103.89972 -48.24411l3.7544556 -0.8920593l8.715759 -24.67978c1.9650879 -5.5643616 7.687683 -8.689758 12.781921 -6.9808655c5.0941772 1.7088928 7.6308594 7.60495 5.6657715 13.169281l-4.441223 12.575836l15.087097 -7.0054626c5.126892 -2.3806152 10.805542 -0.0043029785 12.683716 5.307434c1.8781738 5.311737 -0.75561523 11.547577 -5.8824463 13.928192l-18.651428 8.660522l15.648376 4.0172424c5.2127075 1.3382874 8.121094 7.015442 6.496216 12.680328c-1.6248779 5.6648865 -7.1677856 9.172241 -12.380493 7.833954l-27.79889 -7.136688l-1.1478882 -0.9315796l-103.66809 48.136566c-8.112915 3.7672424 -17.098816 0.0069885254 -20.07074 -8.398407z" fill-rule="evenodd"/><defs><linearGradient id="g767f0c93c4_0_371.8" gradientUnits="userSpaceOnUse" gradientTransform="matrix(6.647743898105832 11.528234360403916 -11.528234360403916 6.647743898105832 0.0 0.0)" spreadMethod="pad" x1="33.51316900787235" y1="-15.030006148767189" x2="33.513125863637335" y2="-3.501771788444004"><stop offset="0.0" stop-color="#1d324a"/><stop offset="1.0" stop-color="#c96b59"/></linearGradient></defs><path fill="url(#g767f0c93c4_0_371.8)" d="m466.98022 421.4509c-3.4693604 8.62738 -13.571075 13.377441 -22.56314 10.609711l-115.15732 -35.446594l-3.5729065 -1.9432068l-23.920929 13.079376c-5.3932495 2.948883 -12.059509 1.3608398 -14.889648 -3.5470276c-2.8301086 -4.9078674 -0.75231934 -11.276978 4.64093 -14.225861l12.189148 -6.6647034l-16.721802 -5.1471252c-5.682373 -1.749054 -8.511383 -7.5867004 -6.3189697 -13.038666c2.1924438 -5.451935 8.576324 -8.453583 14.258728 -6.704529l20.672333 6.3631287l-9.545166 -14.11734c-3.179535 -4.702759 -1.5458069 -11.162659 3.6490784 -14.428741c5.194916 -3.2660522 11.983673 -2.10141 15.163208 2.6013489l16.956635 25.079193l0.25997925 1.5310974l114.900604 35.367554c8.992065 2.7677307 13.4687195 12.0052185 9.999237 20.632385z" fill-rule="evenodd"/><defs><radialGradient id="g767f0c93c4_0_371.9" gradientUnits="userSpaceOnUse" gradientTransform="matrix(24.662098256425658 -9.633474692565981 -9.633474692565981 -24.662098256425658 0.0 0.0)" spreadMethod="pad" cx="25.54768742204442" cy="-11.437943666843653" fx="25.54768742204442" fy="-11.437943666843653" r="24.662097930908203"><stop offset="0.0" stop-color="#ffb4ad"/><stop offset="0.73" stop-color="#c96b59"/><stop offset="1.0" stop-color="#1d324a"/></radialGradient></defs><path fill="url(#g767f0c93c4_0_371.9)" d="m620.8288 82.617546l-13.981873 56.12835l4.529175 -0.43193054l48.61017 -34.214813l-25.461975 35.025986l21.100342 1.5273132c88.72601 14.072922 158.37823 78.90961 175.3277 162.52748l0.92059326 9.8862915l26.485352 25.274933l-23.426392 -10.559845l13.876709 64.647705l-16.422974 -25.833801l-2.5349731 21.325562c-21.862 96.04126 -111.943054 169.14038 -218.78827 170.37878c-106.845215 1.2384033 -195.05215 -69.79443 -214.42322 -165.35773l-1.9577026 -21.022186l-16.132019 26.281677l13.272308 -63.287292l-15.487701 13.433563l20.944519 -36.256104l0.46255493 -3.890625c19.12915 -84.03595 90.488556 -150.50697 179.60745 -166.64122l4.5925293 -0.43803406z" fill-rule="evenodd"/><g filter="url(#shadowFilter-g767f0c93c4_0_371.10)"><use xlink:href="#g767f0c93c4_0_371.10" transform="matrix(1.0199999809265137 0.0 0.0 1.0199999809265137 -14.315159878931546 -6.229292763390795)"/></g><defs><filter id="shadowFilter-g767f0c93c4_0_371.10" filterUnits="userSpaceOnUse"><feGaussianBlur in="SourceAlpha" stdDeviation="2.2222223" result="blur"/><feComponentTransfer in="blur" color-interpolation-filters="sRGB"><feFuncR type="linear" slope="0" intercept="0.0"/><feFuncG type="linear" slope="0" intercept="0.0"/><feFuncB type="linear" slope="0" intercept="0.0"/><feFuncA type="linear" slope="0.2667" intercept="0"/></feComponentTransfer></filter></defs><g id="g767f0c93c4_0_371.10"><defs><radialGradient id="g767f0c93c4_0_371.11" gradientUnits="userSpaceOnUse" gradientTransform="matrix(-15.487917699039821 0.0 0.0 15.487917699039821 0.0 0.0)" spreadMethod="pad" cx="-40.39798841088095" cy="25.22319845292766" fx="-40.39798841088095" fy="25.22319845292766" r="15.48791790008545"><stop offset="0.0" stop-color="#f4deab"/><stop offset="0.58" stop-color="#ffffff"/><stop offset="1.0" stop-color="#ffffff"/></radialGradient></defs><path fill="url(#g767f0c93c4_0_371.11)" d="m805.8366 311.46494l0 0c0 -43.73535 -40.329224 -79.18988 -90.07794 -79.18988l0 0c-49.748657 0 -90.07794 35.45453 -90.07794 79.18988l0 0c0 43.73535 40.329285 79.18988 90.07794 79.18988l0 0c49.74872 0 90.07794 -35.45453 90.07794 -79.18988z" fill-rule="evenodd"/></g><defs><radialGradient id="g767f0c93c4_0_371.12" gradientUnits="userSpaceOnUse" gradientTransform="matrix(9.823235221313524 0.0 0.0 9.823235221313524 0.0 0.0)" spreadMethod="pad" cx="72.65264802971241" cy="31.999082832482262" fx="72.65264802971241" fy="31.999082832482262" r="9.823235511779785"><stop offset="0.0" stop-color="#81b7c7"/><stop offset="0.99" stop-color="#1d324a"/><stop offset="1.0" stop-color="#1d324a"/></radialGradient></defs><path fill="url(#g767f0c93c4_0_371.12)" d="m642.8483 314.3345l0 0c0 -36.189453 31.714233 -65.526825 70.83569 -65.526825l0 0c39.12152 0 70.835754 29.337372 70.835754 65.526825l0 0c0 36.189484 -31.714233 65.526855 -70.835754 65.526855l0 0c-39.12146 0 -70.83569 -29.337372 -70.83569 -65.526855z" fill-rule="evenodd"/><defs><radialGradient id="g767f0c93c4_0_371.13" gradientUnits="userSpaceOnUse" gradientTransform="matrix(-8.531996418511829 0.0 0.0 8.531996418511829 0.0 0.0)" spreadMethod="pad" cx="-83.5684239924312" cy="36.867409036706164" fx="-83.5684239924312" fy="36.867409036706164" r="8.531996726989746"><stop offset="0.0" stop-color="#7f7f7f"/><stop offset="0.29" stop-color="#000000"/><stop offset="1.0" stop-color="#000000"/></radialGradient></defs><path fill="url(#g767f0c93c4_0_371.13)" d="m766.9399 314.5526l0 0c0 -27.000946 -24.147217 -48.889526 -53.934387 -48.889526l0 0c-29.78717 0 -53.934387 21.88858 -53.934387 48.889526l0 0c0 27.000946 24.147217 48.889526 53.934387 48.889526l0 0c29.78717 0 53.934387 -21.88858 53.934387 -48.889526z" fill-rule="evenodd"/><path fill="#ffffff" d="m764.7354 288.35922l0 0c0 -14.116455 -12.723389 -25.56012 -28.418518 -25.56012l0 0c-15.69519 0 -28.41858 11.443665 -28.41858 25.56012l0 0c0 14.116486 12.723389 25.56012 28.41858 25.56012l0 0c15.695129 0 28.418518 -11.443634 28.418518 -25.56012z" fill-rule="evenodd"/><path fill="#ffffff" d="m701.5822 337.43896l0 0c0 -6.929901 -5.449951 -12.547699 -12.1727295 -12.547699l0 0c-3.2283936 0 -6.324585 1.321991 -8.607361 3.6751404c-2.282837 2.3531494 -3.5653076 5.5446777 -3.5653076 8.872559l0 0c0 6.9298706 5.44989 12.547668 12.172668 12.547668l0 0c6.7227783 0 12.1727295 -5.617798 12.1727295 -12.547668z" fill-rule="evenodd"/><defs><radialGradient id="g767f0c93c4_0_371.14" gradientUnits="userSpaceOnUse" gradientTransform="matrix(-6.1499717760432535 0.0 0.0 6.1499717760432535 0.0 0.0)" spreadMethod="pad" cx="-100.53926647164758" cy="63.74449129410305" fx="-100.53926647164758" fy="63.74449129410305" r="6.149971961975098"><stop offset="0.0" stop-color="#3a3838"/><stop offset="0.86" stop-color="#000000"/><stop offset="1.0" stop-color="#000000"/></radialGradient></defs><path fill="url(#g767f0c93c4_0_371.14)" d="m653.5036 387.70123c-3.0647583 -3.4570007 -23.16626 -8.043457 -34.74939 -8.319824c-11.58313 -0.27633667 -30.446472 3.3705444 -34.74933 6.6618347c-4.3029175 3.2912598 2.663269 9.543457 8.932434 11.42749c6.269104 1.8840027 18.44928 6.7299194 25.816895 7.171997c7.367676 0.44210815 12.324402 -2.5246582 18.388855 -4.5191956c6.064392 -1.9945068 19.425293 -8.965271 16.360535 -12.422302z" fill-rule="evenodd"/><path fill="#924d40" d="m723.8524 412.94785l0 0c0 -5.690216 6.1780396 -10.30307 13.799072 -10.30307l0 0c7.6210938 0 13.799133 4.612854 13.799133 10.30307l0 0c0 5.6902466 -6.1780396 10.30307 -13.799133 10.30307l0 0c-7.6210327 0 -13.799072 -4.6128235 -13.799072 -10.30307z" fill-rule="evenodd"/><path fill="#924d40" d="m477.78925 412.10605l0 0c0 -5.6902466 6.17807 -10.30307 13.799103 -10.30307l0 0c7.6210327 0 13.799103 4.6128235 13.799103 10.30307l0 0c0 5.690216 -6.17807 10.30307 -13.799103 10.30307l0 0c-7.6210327 0 -13.799103 -4.612854 -13.799103 -10.30307z" fill-rule="evenodd"/><path fill="#924d40" d="m508.91354 427.91904l0 0c0 -3.5752869 3.605072 -6.4736023 8.052155 -6.4736023l0 0c4.4470215 0 8.052063 2.8983154 8.052063 6.4736023l0 0c0 3.5752869 -3.6050415 6.4736023 -8.052063 6.4736023l0 0c-4.4470825 0 -8.052155 -2.8983154 -8.052155 -6.4736023z" fill-rule="evenodd"/><path fill="#924d40" d="m702.14136 426.68402l0 0c0 -3.5752869 3.6051025 -6.4736023 8.052124 -6.4736023l0 0c4.4470825 0 8.052124 2.8983154 8.052124 6.4736023l0 0c0 3.5752869 -3.6050415 6.4736023 -8.052124 6.4736023l0 0c-4.4470215 0 -8.052124 -2.8983154 -8.052124 -6.4736023z" fill-rule="evenodd"/><path fill="#924d40" d="m753.86316 429.3478l0 0c0 -3.5752869 3.6050415 -6.473633 8.052124 -6.473633l0 0c4.4470215 0 8.052063 2.898346 8.052063 6.473633l0 0c0 3.5752563 -3.6050415 6.4736023 -8.052063 6.4736023l0 0c-4.4470825 0 -8.052124 -2.898346 -8.052124 -6.4736023z" fill-rule="evenodd"/><path fill="#924d40" d="m459.21173 429.94156l0 0c0 -3.5752869 3.6050415 -6.4736023 8.052124 -6.4736023l0 0c4.447052 0 8.0520935 2.8983154 8.0520935 6.4736023l0 0c0 3.5752869 -3.6050415 6.4736023 -8.0520935 6.4736023l0 0c-4.4470825 0 -8.052124 -2.8983154 -8.052124 -6.4736023z" fill-rule="evenodd"/><g filter="url(#shadowFilter-g767f0c93c4_0_371.15)"><use xlink:href="#g767f0c93c4_0_371.15" transform="matrix(1.0199999809265137 0.0 0.0 1.0199999809265137 -10.27515707042782 -6.209817577554366)"/></g><defs><filter id="shadowFilter-g767f0c93c4_0_371.15" filterUnits="userSpaceOnUse"><feGaussianBlur in="SourceAlpha" stdDeviation="2.2222223" result="blur"/><feComponentTransfer in="blur" color-interpolation-filters="sRGB"><feFuncR type="linear" slope="0" intercept="0.0"/><feFuncG type="linear" slope="0" intercept="0.0"/><feFuncB type="linear" slope="0" intercept="0.0"/><feFuncA type="linear" slope="0.2667" intercept="0"/></feComponentTransfer></filter></defs><g id="g767f0c93c4_0_371.15"><defs><radialGradient id="g767f0c93c4_0_371.16" gradientUnits="userSpaceOnUse" gradientTransform="matrix(-15.487917699039821 0.0 0.0 15.487917699039821 0.0 0.0)" spreadMethod="pad" cx="-27.355542228445483" cy="25.160326203772257" fx="-27.355542228445483" fy="25.160326203772257" r="15.48791790008545"><stop offset="0.0" stop-color="#f4deab"/><stop offset="0.58" stop-color="#ffffff"/><stop offset="1.0" stop-color="#ffffff"/></radialGradient></defs><path fill="url(#g767f0c93c4_0_371.16)" d="m603.8363 310.49118l0 0c0 -43.735382 -40.329285 -79.189896 -90.07794 -79.189896l0 0c-49.748688 0 -90.07797 35.454514 -90.07797 79.189896l0 0c0 43.73535 40.329285 79.18988 90.07797 79.18988l0 0c49.748657 0 90.07794 -35.45453 90.07794 -79.18988z" fill-rule="evenodd"/></g><defs><radialGradient id="g767f0c93c4_0_371.17" gradientUnits="userSpaceOnUse" gradientTransform="matrix(9.823235221313524 0.0 0.0 9.823235221313524 0.0 0.0)" spreadMethod="pad" cx="52.08912404634741" cy="31.899954571931232" fx="52.08912404634741" fy="31.899954571931232" r="9.823235511779785"><stop offset="0.0" stop-color="#81b7c7"/><stop offset="0.99" stop-color="#1d324a"/><stop offset="1.0" stop-color="#1d324a"/></radialGradient></defs><path fill="url(#g767f0c93c4_0_371.17)" d="m440.848 313.36075l0 0c0 -36.189453 31.714233 -65.52684 70.835724 -65.52684l0 0c39.12152 0 70.835754 29.337387 70.835754 65.52684l0 0c0 36.189484 -31.714233 65.526855 -70.835754 65.526855l0 0c-39.12149 0 -70.835724 -29.337372 -70.835724 -65.526855z" fill-rule="evenodd"/><defs><radialGradient id="g767f0c93c4_0_371.18" gradientUnits="userSpaceOnUse" gradientTransform="matrix(-8.531996418511829 0.0 0.0 8.531996418511829 0.0 0.0)" spreadMethod="pad" cx="-59.89280070812725" cy="36.75327863009234" fx="-59.89280070812725" fy="36.75327863009234" r="8.531996726989746"><stop offset="0.0" stop-color="#7f7f7f"/><stop offset="0.29" stop-color="#000000"/><stop offset="1.0" stop-color="#000000"/></radialGradient></defs><path fill="url(#g767f0c93c4_0_371.18)" d="m564.9396 313.57883l0 0c0 -27.000916 -24.147278 -48.889526 -53.934418 -48.889526l0 0c-29.78714 0 -53.934418 21.88861 -53.934418 48.889526l0 0c0 27.000946 24.147278 48.889557 53.934418 48.889557l0 0c29.78714 0 53.934418 -21.88861 53.934418 -48.889557z" fill-rule="evenodd"/><path fill="#ffffff" d="m562.7351 287.38547l0 0c0 -14.116455 -12.72345 -25.56012 -28.41858 -25.56012l0 0c-15.695129 0 -28.418549 11.443665 -28.418549 25.56012l0 0c0 14.116455 12.723419 25.56012 28.418549 25.56012l0 0c15.695129 0 28.41858 -11.443665 28.41858 -25.56012z" fill-rule="evenodd"/><path fill="#ffffff" d="m499.58185 336.46518l0 0c0 -6.929901 -5.44989 -12.547668 -12.172699 -12.547668l0 0c-3.2283936 0 -6.3245544 1.3219604 -8.607391 3.6751099c-2.2828064 2.3531494 -3.5653076 5.5447083 -3.5653076 8.872559l0 0c0 6.929901 5.4499207 12.547699 12.172699 12.547699l0 0c6.722809 0 12.172699 -5.617798 12.172699 -12.547699z" fill-rule="evenodd"/><defs><linearGradient id="g767f0c93c4_0_371.19" gradientUnits="userSpaceOnUse" gradientTransform="matrix(2.240312932404702 -6.245311791935802 6.245311791935802 2.240312932404702 0.0 0.0)" spreadMethod="pad" x1="-33.530670197894935" y1="107.17865934527913" x2="-33.53194347473884" y2="113.42397100741886"><stop offset="0.0" stop-color="#ffb4ad"/><stop offset="0.87" stop-color="#ffb4ad"/><stop offset="1.0" stop-color="#fb9195"/></linearGradient></defs><path fill="url(#g767f0c93c4_0_371.19)" d="m639.144 428.4043l0 0c4.2994995 8.337463 2.19281 18.444092 -5.1000977 24.467499c-7.2929077 6.023407 -17.881165 6.401825 -25.633484 0.9161377c-7.7522583 -5.485718 -10.65863 -15.4131775 -7.0360107 -24.033783z" fill-rule="evenodd"/><defs><linearGradient id="g767f0c93c4_0_371.20" gradientUnits="userSpaceOnUse" gradientTransform="matrix(-10.633737391344509 1.9608025466287742 -1.9608025466287742 -10.633737391344509 0.0 0.0)" spreadMethod="pad" x1="-50.152402191139984" y1="-39.739971002346174" x2="-50.15456782323805" y2="-29.106233831524438"><stop offset="0.0" stop-color="#ffb4ad"/><stop offset="0.85" stop-color="#c96b59"/><stop offset="1.0" stop-color="#c96b59"/></linearGradient></defs><path fill="url(#g767f0c93c4_0_371.20)" d="m438.43332 259.60843c28.184265 -30.708572 75.96622 -41.31398 115.45865 -25.626541c39.49243 15.687454 60.35028 53.558395 50.400208 91.510086z" fill-rule="evenodd"/><defs><linearGradient id="g767f0c93c4_0_371.21" gradientUnits="userSpaceOnUse" gradientTransform="matrix(-9.104631883665496 9.637613622587626 -9.637613622587626 -9.104631883665496 0.0 0.0)" spreadMethod="pad" x1="-26.684047027047196" y1="-58.063117240371646" x2="-26.686011231166272" y2="-48.42550381794238"><stop offset="0.0" stop-color="#ffb4ad"/><stop offset="0.85" stop-color="#c96b59"/><stop offset="1.0" stop-color="#c96b59"/></linearGradient></defs><path fill="url(#g767f0c93c4_0_371.21)" d="m620.6865 320.28085c-3.27594 -43.57733 24.949036 -82.3873 67.884705 -93.343155c42.93567 -10.955856 89.05121 8.884735 110.914 47.719254z" fill-rule="evenodd"/><path fill="#ffffff" d="m662.21063 419.20593l3.1140137 29.450378l-23.086792 -22.095367z" fill-rule="evenodd"/><path fill="#ffffff" d="m599.3036 427.0886l-21.09021 22.2518l0.57385254 -28.835876z" fill-rule="evenodd"/><path fill="#000000" fill-opacity="0.0" d="m669.1412 413.32486c-7.5649414 9.585358 -26.544067 16.028473 -48.00061 16.29541c-21.456482 0.26696777 -41.113342 -5.695465 -49.71472 -15.079712l48.33966 -10.089752z" fill-rule="evenodd"/><path fill="#000000" fill-opacity="0.0" d="m669.1412 413.32486c-7.5649414 9.585358 -26.544067 16.028473 -48.00061 16.29541c-21.456482 0.26696777 -41.113342 -5.695465 -49.71472 -15.079712" fill-rule="evenodd"/><path stroke="#000000" stroke-width="2.0" stroke-miterlimit="800.0" stroke-linecap="butt" d="m669.1412 413.32486c-7.5649414 9.585358 -26.544067 16.028473 -48.00061 16.29541c-21.456482 0.26696777 -41.113342 -5.695465 -49.71472 -15.079712" fill-rule="evenodd"/></g></svg>