<svg version="1.1" viewBox="0.0 0.0 1280.0 720.0" fill="none" stroke="none" stroke-linecap="square" stroke-miterlimit="10" xmlns:xlink="http://www.w3.org/1999/xlink" xmlns="http://www.w3.org/2000/svg"><clipPath id="g767f0c93c4_0_1788.0"><path d="m0 0l1280.0 0l0 720.0l-1280.0 0l0 -720.0z" clip-rule="nonzero"/></clipPath><g clip-path="url(#g767f0c93c4_0_1788.0)"><path fill="#000000" fill-opacity="0.0" d="m0 0l1280.0 0l0 720.0l-1280.0 0z" fill-rule="evenodd"/><defs><linearGradient id="g767f0c93c4_0_1788.1" gradientUnits="userSpaceOnUse" gradientTransform="matrix(6.368621537624459 8.831419217471584 -8.831419217471584 6.368621537624459 0.0 0.0)" spreadMethod="pad" x1="54.00186633451834" y1="-53.427109410441176" x2="54.00183620250137" y2="-44.595690193021"><stop offset="0.0" stop-color="#fb9195"/><stop offset="0.51" stop-color="#c96b59"/><stop offset="0.97" stop-color="#1d324a"/><stop offset="1.0" stop-color="#1d324a"/></linearGradient></defs><path fill="url(#g767f0c93c4_0_1788.1)" d="m737.7607 192.90004l117.21265 -1.8582611l-36.173218 114.236206z" fill-rule="evenodd"/><defs><linearGradient id="g767f0c93c4_0_1788.2" gradientUnits="userSpaceOnUse" gradientTransform="matrix(6.6034001375581655 -8.763787186597456 8.763787186597456 6.6034001375581655 0.0 0.0)" spreadMethod="pad" x1="-0.8815569233752992" y1="37.90371061913107" x2="-0.8815886326044893" y2="46.667497805671154"><stop offset="0.0" stop-color="#fb9195"/><stop offset="0.51" stop-color="#c96b59"/><stop offset="0.97" stop-color="#1d324a"/><stop offset="1.0" stop-color="#1d324a"/></linearGradient></defs><path fill="url(#g767f0c93c4_0_1788.2)" d="m403.16275 315.88992l-36.456696 -111.41731l119.82678 0.7716522z" fill-rule="evenodd"/><g filter="url(#shadowFilter-g767f0c93c4_0_1788.3)"><use xlink:href="#g767f0c93c4_0_1788.3" transform="matrix(1.0 0.0 0.0 1.0 0.0 2.0)"/></g><defs><filter id="shadowFilter-g767f0c93c4_0_1788.3" filterUnits="userSpaceOnUse"><feGaussianBlur in="SourceAlpha" stdDeviation="2.0" result="blur"/><feComponentTransfer in="blur" color-interpolation-filters="sRGB"><feFuncR type="linear" slope="0" intercept="0.0"/><feFuncG type="linear" slope="0" intercept="0.0"/><feFuncB type="linear" slope="0" intercept="0.0"/><feFuncA type="linear" slope="0.5" intercept="0"/></feComponentTransfer></filter></defs><g id="g767f0c93c4_0_1788.3"><defs><linearGradient id="g767f0c93c4_0_1788.4" gradientUnits="userSpaceOnUse" gradientTransform="matrix(6.226220132573438 -8.266057171426507 8.266057171426507 6.226220132573438 0.0 0.0)" spreadMethod="pad" x1="-0.3215287217328664" y1="41.70416991608612" x2="-0.3215586602276481" y2="49.97022708745841"><stop offset="0.0" stop-color="#fb9195"/><stop offset="0.51" stop-color="#c96b59"/><stop offset="0.97" stop-color="#1d324a"/><stop offset="1.0" stop-color="#1d324a"/></linearGradient></defs><path fill="url(#g767f0c93c4_0_1788.4)" d="m411.05484 313.7834l-31.760345 -100.01309l107.2576 -0.21859741z" fill-rule="evenodd"/></g><g filter="url(#shadowFilter-g767f0c93c4_0_1788.5)"><use xlink:href="#g767f0c93c4_0_1788.5" transform="matrix(1.0 0.0 0.0 1.0 0.0 2.0)"/></g><defs><filter id="shadowFilter-g767f0c93c4_0_1788.5" filterUnits="userSpaceOnUse"><feGaussianBlur in="SourceAlpha" stdDeviation="2.0" result="blur"/><feComponentTransfer in="blur" color-interpolation-filters="sRGB"><feFuncR type="linear" slope="0" intercept="0.0"/><feFuncG type="linear" slope="0" intercept="0.0"/><feFuncB type="linear" slope="0" intercept="0.0"/><feFuncA type="linear" slope="0.5" intercept="0"/></feComponentTransfer></filter></defs><g id="g767f0c93c4_0_1788.5"><defs><linearGradient id="g767f0c93c4_0_1788.6" gradientUnits="userSpaceOnUse" gradientTransform="matrix(6.182758431227994 8.274832035653407 -8.274832035653407 6.182758431227994 0.0 0.0)" spreadMethod="pad" x1="58.12763927379618" y1="-53.658882898266164" x2="58.12760751206567" y2="-45.38405086267372"><stop offset="0.0" stop-color="#fb9195"/><stop offset="0.51" stop-color="#c96b59"/><stop offset="0.97" stop-color="#1d324a"/><stop offset="1.0" stop-color="#1d324a"/></linearGradient></defs><path fill="url(#g767f0c93c4_0_1788.6)" d="m734.9346 200.39781l107.229614 0.71047974l-32.012207 99.95845z" fill-rule="evenodd"/></g><g filter="url(#shadowFilter-g767f0c93c4_0_1788.7)"><use xlink:href="#g767f0c93c4_0_1788.7" transform="matrix(1.0 0.0 0.0 1.0 0.0 2.0)"/></g><defs><filter id="shadowFilter-g767f0c93c4_0_1788.7" filterUnits="userSpaceOnUse"><feGaussianBlur in="SourceAlpha" stdDeviation="2.0" result="blur"/><feComponentTransfer in="blur" color-interpolation-filters="sRGB"><feFuncR type="linear" slope="0" intercept="0.0"/><feFuncG type="linear" slope="0" intercept="0.0"/><feFuncB type="linear" slope="0" intercept="0.0"/><feFuncA type="linear" slope="0.5" intercept="0"/></feComponentTransfer></filter></defs><g id="g767f0c93c4_0_1788.7"><defs><linearGradient id="g767f0c93c4_0_1788.8" gradientUnits="userSpaceOnUse" gradientTransform="matrix(7.365209092775075 -9.780524699121646 9.780524699121646 7.365209092775075 0.0 0.0)" spreadMethod="pad" x1="-10.625023568065618" y1="68.32030526555" x2="-10.625059575775522" y2="78.10082996460537"><stop offset="0.0" stop-color="#1d324a"/><stop offset="1.0" stop-color="#c96b59"/></linearGradient></defs><path fill="url(#g767f0c93c4_0_1788.8)" d="m667.6804 511.68958c7.582947 -0.57766724 14.2960205 4.9417725 14.994324 12.328125l8.94165 94.59442l-0.35876465 3.2330933l17.277954 12.422607c3.8955688 2.8008423 4.7631226 8.112793 1.9378052 11.864624c-2.8253174 3.751831 -8.273621 4.522766 -12.169128 1.7219849l-8.804138 -6.330078l1.2984009 13.735901c0.44128418 4.6676636 -3.0858154 8.747437 -7.8777466 9.112488c-4.791931 0.36499023 -9.03418 -3.123108 -9.475403 -7.7908325l-1.6052246 -16.981018l-7.6917725 11.792908c-2.562317 3.9283447 -7.9415283 5.0478516 -12.014832 2.5004883c-4.073303 -2.5473633 -5.298218 -7.796875 -2.7359009 -11.72522l13.664429 -20.949707l1.0744019 -0.7265625l-8.921753 -94.383545c-0.6983032 -7.3863525 4.8828735 -13.842163 12.465698 -14.419678z" fill-rule="evenodd"/></g><g filter="url(#shadowFilter-g767f0c93c4_0_1788.9)"><use xlink:href="#g767f0c93c4_0_1788.9" transform="matrix(1.0 0.0 0.0 1.0 0.0 2.0)"/></g><defs><filter id="shadowFilter-g767f0c93c4_0_1788.9" filterUnits="userSpaceOnUse"><feGaussianBlur in="SourceAlpha" stdDeviation="2.0" result="blur"/><feComponentTransfer in="blur" color-interpolation-filters="sRGB"><feFuncR type="linear" slope="0" intercept="0.0"/><feFuncG type="linear" slope="0" intercept="0.0"/><feFuncB type="linear" slope="0" intercept="0.0"/><feFuncA type="linear" slope="0.5" intercept="0"/></feComponentTransfer></filter></defs><g id="g767f0c93c4_0_1788.9"><defs><linearGradient id="g767f0c93c4_0_1788.10" gradientUnits="userSpaceOnUse" gradientTransform="matrix(8.454386635691822 -9.435406243906908 9.435406243906908 8.454386635691822 0.0 0.0)" spreadMethod="pad" x1="-10.412124780969666" y1="59.812622571967175" x2="-10.412158770255209" y2="69.24802881581286"><stop offset="0.0" stop-color="#1d324a"/><stop offset="1.0" stop-color="#c96b59"/></linearGradient></defs><path fill="url(#g767f0c93c4_0_1788.10)" d="m562.1797 515.12274c7.6119385 0.046203613 13.821594 6.10437 13.869934 13.531494l0.6175537 95.11621l-0.6413574 3.1964111l16.138794 13.813171c3.6386719 3.11438 4.0377197 8.485596 0.8913574 11.99707c-3.1464233 3.5114746 -8.6467285 3.833435 -12.2854 0.7190552l-8.223633 -7.0386353l0.089660645 13.8116455c0.030517578 4.6934814 -3.8443604 8.474487 -8.654602 8.4453125c-4.8102417 -0.029174805 -8.734375 -3.857788 -8.764893 -8.5512085l-0.110839844 -17.074707l-8.704407 11.134949c-2.8995972 3.7091675 -8.361633 4.3845825 -12.199829 1.5085449c-3.8381958 -2.8760376 -4.59906 -8.214355 -1.6994629 -11.923523l15.463257 -19.780884l1.1350708 -0.63671875l-0.616272 -94.904236c-0.04827881 -7.427124 6.083252 -13.410278 13.695068 -13.363953z" fill-rule="evenodd"/></g><g filter="url(#shadowFilter-g767f0c93c4_0_1788.11)"><use xlink:href="#g767f0c93c4_0_1788.11" transform="matrix(1.0 0.0 0.0 1.0 0.0 2.0)"/></g><defs><filter id="shadowFilter-g767f0c93c4_0_1788.11" filterUnits="userSpaceOnUse"><feGaussianBlur in="SourceAlpha" stdDeviation="2.0" result="blur"/><feComponentTransfer in="blur" color-interpolation-filters="sRGB"><feFuncR type="linear" slope="0" intercept="0.0"/><feFuncG type="linear" slope="0" intercept="0.0"/><feFuncB type="linear" slope="0" intercept="0.0"/><feFuncA type="linear" slope="0.5" intercept="0"/></feComponentTransfer></filter></defs><g id="g767f0c93c4_0_1788.11"><defs><linearGradient id="g767f0c93c4_0_1788.12" gradientUnits="userSpaceOnUse" gradientTransform="matrix(9.592994108284444 -7.452308989524359 7.452308989524359 9.592994108284444 0.0 0.0)" spreadMethod="pad" x1="-2.3860133489053363" y1="54.68955578015415" x2="-2.386048164281371" y2="64.28254988837541"><stop offset="0.0" stop-color="#1d324a"/><stop offset="1.0" stop-color="#c96b59"/></linearGradient></defs><path fill="url(#g767f0c93c4_0_1788.12)" d="m488.26642 467.72095c7.435852 1.2597046 12.228088 8.236481 10.703888 15.583282l-19.520782 94.087616l-1.3036804 3.0562134l12.863556 16.223572c2.900238 3.6577759 2.1541443 9.028992 -1.6664734 11.997009c-3.8205872 2.9680786 -9.26886 2.4089355 -12.169098 -1.2489014l-6.5547485 -8.266846l-2.8345642 13.6622925c-0.9631958 4.6427 -5.553406 7.7609253 -10.25238 6.9648438c-4.699005 -0.7960205 -7.7273254 -5.205139 -6.7641296 -9.847839l3.504242 -16.890015l-10.870148 9.614685c-3.6210632 3.2027588 -9.106659 2.9989624 -12.252472 -0.45513916c-3.1458435 -3.4541626 -2.7605896 -8.850525 0.86047363 -12.053284l19.310669 -17.0802l1.2449951 -0.44812012l19.477234 -93.87787c1.5242004 -7.3468018 8.78772 -12.281097 16.22342 -11.021301z" fill-rule="evenodd"/></g><g filter="url(#shadowFilter-g767f0c93c4_0_1788.13)"><use xlink:href="#g767f0c93c4_0_1788.13" transform="matrix(1.0 0.0 0.0 1.0 0.0 2.0)"/></g><defs><filter id="shadowFilter-g767f0c93c4_0_1788.13" filterUnits="userSpaceOnUse"><feGaussianBlur in="SourceAlpha" stdDeviation="2.0" result="blur"/><feComponentTransfer in="blur" color-interpolation-filters="sRGB"><feFuncR type="linear" slope="0" intercept="0.0"/><feFuncG type="linear" slope="0" intercept="0.0"/><feFuncB type="linear" slope="0" intercept="0.0"/><feFuncA type="linear" slope="0.5" intercept="0"/></feComponentTransfer></filter></defs><g id="g767f0c93c4_0_1788.13"><defs><linearGradient id="g767f0c93c4_0_1788.14" gradientUnits="userSpaceOnUse" gradientTransform="matrix(4.806222957337927 -10.469962124508902 10.469962124508902 4.806222957337927 0.0 0.0)" spreadMethod="pad" x1="-20.15463330386485" y1="74.06714083275939" x2="-20.154670681889783" y2="84.53710295720157"><stop offset="0.0" stop-color="#1d324a"/><stop offset="1.0" stop-color="#c96b59"/></linearGradient></defs><path fill="url(#g767f0c93c4_0_1788.14)" d="m734.9437 455.60992c7.2285156 -1.9606323 14.899109 2.293396 17.133057 9.5017395l28.607544 92.31473l0.33374023 3.2766724l19.366516 9.1779175c4.366394 2.069275 6.3270874 7.1863403 4.3793335 11.429382c-1.9477539 4.242981 -7.066345 6.005188 -11.432739 3.935913l-9.868408 -4.676697l4.1540527 13.404846c1.4116821 4.555237 -1.1471558 9.252258 -5.715149 10.491272c-4.567932 1.2389526 -9.415344 -1.4495239 -10.826965 -6.0047607l-5.135498 -16.571716l-4.9699097 13.119324c-1.6556396 4.3702393 -6.633789 6.4659424 -11.11908 4.680969c-4.4853516 -1.7849731 -6.779236 -6.774719 -5.123596 -11.1449585l8.829041 -23.306213l0.88830566 -0.9180908l-28.543823 -92.10892c-2.2338867 -7.2083435 1.8151245 -14.640961 9.043579 -16.60141z" fill-rule="evenodd"/></g><g filter="url(#shadowFilter-g767f0c93c4_0_1788.15)"><use xlink:href="#g767f0c93c4_0_1788.15" transform="matrix(1.0 0.0 0.0 1.0 0.0 2.0)"/></g><defs><filter id="shadowFilter-g767f0c93c4_0_1788.15" filterUnits="userSpaceOnUse"><feGaussianBlur in="SourceAlpha" stdDeviation="2.0" result="blur"/><feComponentTransfer in="blur" color-interpolation-filters="sRGB"><feFuncR type="linear" slope="0" intercept="0.0"/><feFuncG type="linear" slope="0" intercept="0.0"/><feFuncB type="linear" slope="0" intercept="0.0"/><feFuncA type="linear" slope="0.5" intercept="0"/></feComponentTransfer></filter></defs><g id="g767f0c93c4_0_1788.15"><defs><linearGradient id="g767f0c93c4_0_1788.16" gradientUnits="userSpaceOnUse" gradientTransform="matrix(-1.252939030860501 -10.913934518715328 10.913934518715328 -1.252939030860501 0.0 0.0)" spreadMethod="pad" x1="-56.49567618968133" y1="63.20008005661861" x2="-56.49571725386617" y2="74.11401457525668"><stop offset="0.0" stop-color="#1d324a"/><stop offset="1.0" stop-color="#c96b59"/></linearGradient></defs><path fill="url(#g767f0c93c4_0_1788.16)" d="m750.8282 411.5809c5.1366577 -5.382202 13.8602295 -5.6183777 19.484863 -0.52749634l72.03192 65.1976l1.9768066 2.6619263l21.217773 -1.9468384c4.7837524 -0.43893433 9.09552 2.9837341 9.630615 7.644806c0.5350952 4.661072 -2.9091187 8.79538 -7.692871 9.234314l-10.811768 0.9920349l10.459656 9.467224c3.5543823 3.217102 3.8041992 8.582306 0.5581665 11.983551c-3.2460938 3.401184 -8.758972 3.550293 -12.313416 0.33319092l-12.930664 -11.703857l2.5499268 13.874939c0.8493042 4.6220093 -2.3031006 8.972961 -7.0411377 9.718262c-4.738098 0.7453613 -9.267578 -2.3972778 -10.116882 -7.019287l-4.529785 -24.64859l0.28137207 -1.2467041l-71.87134 -65.052246c-5.624634 -5.090851 -6.0199585 -13.58078 -0.88323975 -18.96283z" fill-rule="evenodd"/></g><g filter="url(#shadowFilter-g767f0c93c4_0_1788.17)"><use xlink:href="#g767f0c93c4_0_1788.17" transform="matrix(1.0 0.0 0.0 1.0 0.0 2.0)"/></g><defs><filter id="shadowFilter-g767f0c93c4_0_1788.17" filterUnits="userSpaceOnUse"><feGaussianBlur in="SourceAlpha" stdDeviation="2.0" result="blur"/><feComponentTransfer in="blur" color-interpolation-filters="sRGB"><feFuncR type="linear" slope="0" intercept="0.0"/><feFuncG type="linear" slope="0" intercept="0.0"/><feFuncB type="linear" slope="0" intercept="0.0"/><feFuncA type="linear" slope="0.5" intercept="0"/></feComponentTransfer></filter></defs><g id="g767f0c93c4_0_1788.17"><defs><linearGradient id="g767f0c93c4_0_1788.18" gradientUnits="userSpaceOnUse" gradientTransform="matrix(10.503975776013728 -3.6358638435935857 3.6358638435935857 10.503975776013728 0.0 0.0)" spreadMethod="pad" x1="13.90025768571426" y1="46.04345418709146" x2="13.90021986826391" y2="56.54742996303712"><stop offset="0.0" stop-color="#1d324a"/><stop offset="1.0" stop-color="#c96b59"/></linearGradient></defs><path fill="url(#g767f0c93c4_0_1788.18)" d="m436.80783 395.2269c6.498657 3.6419373 8.606506 11.871033 4.7080994 18.380463l-49.9263 83.36322l-2.2452087 2.4880981l6.5029907 19.700073c1.466156 4.4415894 -1.0410767 9.321411 -5.6000977 10.899536c-4.5590515 1.578064 -9.44339 -0.74328613 -10.909576 -5.1848755l-3.3136597 -10.03833l-7.249695 12.1050415c-2.4635315 4.1135254 -7.789856 5.5823364 -11.896606 3.2808228c-4.10672 -2.3014526 -5.438629 -7.501892 -2.9750671 -11.6154175l8.962433 -14.964874l-13.365997 5.6063538c-4.4524536 1.8674927 -9.491455 -0.12704468 -11.255035 -4.454895c-1.7635803 -4.327881 0.4161682 -9.350159 4.8685913 -11.217651l23.744446 -9.959442l1.3104553 -0.019012451l49.815002 -83.17737c3.8983765 -6.50943 12.326752 -8.83374 18.825226 -5.191742z" fill-rule="evenodd"/></g><g filter="url(#shadowFilter-g767f0c93c4_0_1788.19)"><use xlink:href="#g767f0c93c4_0_1788.19" transform="matrix(1.0 0.0 0.0 1.0 0.0 2.0)"/></g><defs><filter id="shadowFilter-g767f0c93c4_0_1788.19" filterUnits="userSpaceOnUse"><feGaussianBlur in="SourceAlpha" stdDeviation="2.0" result="blur"/><feComponentTransfer in="blur" color-interpolation-filters="sRGB"><feFuncR type="linear" slope="0" intercept="0.0"/><feFuncG type="linear" slope="0" intercept="0.0"/><feFuncB type="linear" slope="0" intercept="0.0"/><feFuncA type="linear" slope="0.5" intercept="0"/></feComponentTransfer></filter></defs><g id="g767f0c93c4_0_1788.19"><defs><radialGradient id="g767f0c93c4_0_1788.20" gradientUnits="userSpaceOnUse" gradientTransform="matrix(24.69065594747933 -9.65291835995637 -9.65291835995637 -24.69065594747933 0.0 0.0)" spreadMethod="pad" cx="25.570762080462647" cy="-11.41790368282648" fx="25.570762080462647" fy="-11.41790368282648" r="24.690656661987305"><stop offset="0.0" stop-color="#ffb4ad"/><stop offset="0.73" stop-color="#c96b59"/><stop offset="1.0" stop-color="#1d324a"/></radialGradient></defs><path fill="url(#g767f0c93c4_0_1788.20)" d="m622.0844 81.79839l-14.011047 56.2938l4.5386353 -0.43319702l48.71161 -34.315666l-25.515137 35.129234l21.14441 1.5318146c88.91107 14.114395 158.70868 79.14221 175.69348 163.00658l0.9225464 9.915436l26.540588 25.349426l-23.47522 -10.590973l13.90564 64.83829l-16.457214 -25.909943l-2.5403442 21.388428c-21.907593 96.32437 -112.176575 169.63895 -219.24475 170.88101c-107.06818 1.2420654 -195.45914 -70.00018 -214.87064 -165.84518l-1.961792 -21.084137l-16.16565 26.359161l13.299988 -63.473846l-15.52002 13.473145l20.98822 -36.363007l0.4635315 -3.902069c19.169067 -84.283676 90.67737 -150.95064 179.98224 -167.13245l4.602112 -0.4393158z" fill-rule="evenodd"/></g><g filter="url(#shadowFilter-g767f0c93c4_0_1788.21)"><use xlink:href="#g767f0c93c4_0_1788.21" transform="matrix(1.0 0.0 0.0 1.0 0.0 2.0)"/></g><defs><filter id="shadowFilter-g767f0c93c4_0_1788.21" filterUnits="userSpaceOnUse"><feGaussianBlur in="SourceAlpha" stdDeviation="2.0" result="blur"/><feComponentTransfer in="blur" color-interpolation-filters="sRGB"><feFuncR type="linear" slope="0" intercept="0.0"/><feFuncG type="linear" slope="0" intercept="0.0"/><feFuncB type="linear" slope="0" intercept="0.0"/><feFuncA type="linear" slope="0.5" intercept="0"/></feComponentTransfer></filter></defs><g id="g767f0c93c4_0_1788.21"><defs><linearGradient id="g767f0c93c4_0_1788.22" gradientUnits="userSpaceOnUse" gradientTransform="matrix(-5.716123911364417 -2.4111589388917 2.4111589388917 -5.716123911364417 0.0 0.0)" spreadMethod="pad" x1="-127.3247902988447" y1="-24.766805242554746" x2="-123.28127181090301" y2="-20.726504411212396"><stop offset="0.0" stop-color="#cfcfd2"/><stop offset="1.0" stop-color="#ffffff"/></linearGradient></defs><path fill="url(#g767f0c93c4_0_1788.22)" d="m660.4063 429.7028l-17.934143 23.715088l-1.7216797 -32.006226z" fill-rule="evenodd"/></g><g filter="url(#shadowFilter-g767f0c93c4_0_1788.23)"><use xlink:href="#g767f0c93c4_0_1788.23" transform="matrix(1.0 0.0 0.0 1.0 0.0 2.0)"/></g><defs><filter id="shadowFilter-g767f0c93c4_0_1788.23" filterUnits="userSpaceOnUse"><feGaussianBlur in="SourceAlpha" stdDeviation="2.0" result="blur"/><feComponentTransfer in="blur" color-interpolation-filters="sRGB"><feFuncR type="linear" slope="0" intercept="0.0"/><feFuncG type="linear" slope="0" intercept="0.0"/><feFuncB type="linear" slope="0" intercept="0.0"/><feFuncA type="linear" slope="0.5" intercept="0"/></feComponentTransfer></filter></defs><g id="g767f0c93c4_0_1788.23"><defs><linearGradient id="g767f0c93c4_0_1788.24" gradientUnits="userSpaceOnUse" gradientTransform="matrix(-5.68579120430155 2.2514687086939644 -2.2514687086939644 -5.68579120430155 0.0 0.0)" spreadMethod="pad" x1="-67.88513793389606" y1="-102.36161213595227" x2="-63.86307731287088" y2="-98.34275035931559"><stop offset="0.0" stop-color="#cfcfd2"/><stop offset="1.0" stop-color="#ffffff"/></linearGradient></defs><path fill="url(#g767f0c93c4_0_1788.24)" d="m598.5056 421.41205l-2.1879272 30.604065l-17.826477 -22.67871z" fill-rule="evenodd"/></g><g filter="url(#shadowFilter-g767f0c93c4_0_1788.25)"><use xlink:href="#g767f0c93c4_0_1788.25" transform="matrix(1.0 0.0 0.0 1.0 0.0 2.0)"/></g><defs><filter id="shadowFilter-g767f0c93c4_0_1788.25" filterUnits="userSpaceOnUse"><feGaussianBlur in="SourceAlpha" stdDeviation="2.0" result="blur"/><feComponentTransfer in="blur" color-interpolation-filters="sRGB"><feFuncR type="linear" slope="0" intercept="0.0"/><feFuncG type="linear" slope="0" intercept="0.0"/><feFuncB type="linear" slope="0" intercept="0.0"/><feFuncA type="linear" slope="0.5" intercept="0"/></feComponentTransfer></filter></defs><g id="g767f0c93c4_0_1788.25"><path fill="#000000" fill-opacity="0.0" d="m570.40283 435.58755l0 0c7.5651245 -9.585449 26.544434 -16.028595 48.00122 -16.295532c21.456787 -0.26696777 41.11389 5.6954956 49.715393 15.079803l-48.34027 10.089874z" fill-rule="evenodd"/><path fill="#000000" fill-opacity="0.0" d="m570.40283 435.58755l0 0c7.5651245 -9.585449 26.544434 -16.028595 48.00122 -16.295532c21.456787 -0.26696777 41.11389 5.6954956 49.715393 15.079803" fill-rule="evenodd"/><path stroke="#000000" stroke-width="2.0" stroke-miterlimit="800.0" stroke-linecap="butt" d="m570.40283 435.58755l0 0c7.5651245 -9.585449 26.544434 -16.028595 48.00122 -16.295532c21.456787 -0.26696777 41.11389 5.6954956 49.715393 15.079803" fill-rule="evenodd"/></g><g filter="url(#shadowFilter-g767f0c93c4_0_1788.26)"><use xlink:href="#g767f0c93c4_0_1788.26" transform="matrix(1.0 0.0 0.0 1.0 0.0 2.0)"/></g><defs><filter id="shadowFilter-g767f0c93c4_0_1788.26" filterUnits="userSpaceOnUse"><feGaussianBlur in="SourceAlpha" stdDeviation="2.0" result="blur"/><feComponentTransfer in="blur" color-interpolation-filters="sRGB"><feFuncR type="linear" slope="0" intercept="0.0"/><feFuncG type="linear" slope="0" intercept="0.0"/><feFuncB type="linear" slope="0" intercept="0.0"/><feFuncA type="linear" slope="0.5" intercept="0"/></feComponentTransfer></filter></defs><g id="g767f0c93c4_0_1788.26"><defs><radialGradient id="g767f0c93c4_0_1788.27" gradientUnits="userSpaceOnUse" gradientTransform="matrix(-6.156681323739281 0.0 0.0 6.156681323739281 0.0 0.0)" spreadMethod="pad" cx="-100.63279046299115" cy="63.690116659958164" fx="-100.63279046299115" fy="63.690116659958164" r="6.156681537628174"><stop offset="0.0" stop-color="#3a3838"/><stop offset="0.86" stop-color="#000000"/><stop offset="1.0" stop-color="#000000"/></radialGradient></defs><path fill="url(#g767f0c93c4_0_1788.27)" d="m654.8274 387.78143c-3.071167 -3.4672241 -23.2146 -8.0672 -34.8219 -8.34436c-11.607239 -0.27716064 -30.51001 3.3804626 -34.82184 6.6814575c-4.3118896 3.3009644 2.6688232 9.571594 8.95105 11.461182c6.2822266 1.8895569 18.487793 6.749756 25.870789 7.1931458c7.3830566 0.4434204 12.350159 -2.5321045 18.427246 -4.532501c6.0770264 -2.0004272 19.46582 -8.99173 16.394653 -12.458923z" fill-rule="evenodd"/></g><path fill="#924d40" d="m725.323 413.10245l0 0c0 -5.7070007 6.190979 -10.333435 13.827881 -10.333435l0 0c7.636963 0 13.827942 4.6264343 13.827942 10.333435l0 0c0 5.7070007 -6.190979 10.333466 -13.827942 10.333466l0 0c-7.636902 0 -13.827881 -4.626465 -13.827881 -10.333466z" fill-rule="evenodd"/><path fill="#924d40" d="m478.7464 412.25818l0 0c0 -5.7070312 6.1909485 -10.333466 13.827881 -10.333466l0 0c7.636963 0 13.827911 4.6264343 13.827911 10.333466l0 0c0 5.7070007 -6.1909485 10.333435 -13.827911 10.333435l0 0c-7.6369324 0 -13.827881 -4.6264343 -13.827881 -10.333435z" fill-rule="evenodd"/><path fill="#924d40" d="m509.93564 428.11777l0 0c0 -3.5858154 3.6125793 -6.4927063 8.068939 -6.4927063l0 0c4.456299 0 8.068909 2.9068909 8.068909 6.4927063l0 0c0 3.5858154 -3.6126099 6.4927063 -8.068909 6.4927063l0 0c-4.45636 0 -8.068939 -2.9068909 -8.068939 -6.4927063z" fill-rule="evenodd"/><path fill="#924d40" d="m703.56665 426.87912l0 0c0 -3.5858154 3.6126099 -6.4927063 8.068909 -6.4927063l0 0c4.45636 0 8.068909 2.9068909 8.068909 6.4927063l0 0c0 3.5858154 -3.6125488 6.492676 -8.068909 6.492676l0 0c-4.456299 0 -8.068909 -2.9068604 -8.068909 -6.492676z" fill-rule="evenodd"/><path fill="#924d40" d="m755.39636 429.55075l0 0c0 -3.5858154 3.6125488 -6.4927063 8.068909 -6.4927063l0 0c4.45636 0 8.068909 2.9068909 8.068909 6.4927063l0 0c0 3.5858154 -3.6125488 6.492676 -8.068909 6.492676l0 0c-4.45636 0 -8.068909 -2.9068604 -8.068909 -6.492676z" fill-rule="evenodd"/><path fill="#924d40" d="m460.1301 430.14627l0 0c0 -3.5858154 3.6125793 -6.4927063 8.068939 -6.4927063l0 0c4.4563293 0 8.068909 2.9068909 8.068909 6.4927063l0 0c0 3.5858154 -3.6125793 6.492676 -8.068909 6.492676l0 0c-4.45636 0 -8.068939 -2.9068604 -8.068939 -6.492676z" fill-rule="evenodd"/><defs><linearGradient id="g767f0c93c4_0_1788.28" gradientUnits="userSpaceOnUse" gradientTransform="matrix(3.6933145868991923 -3.6933145844224784 3.6933145844224784 3.6933145868991923 0.0 0.0)" spreadMethod="pad" x1="50.79336024052511" y1="157.34543360261827" x2="50.7926064772318" y2="161.03874811260025"><stop offset="0.0" stop-color="#cfe2f3"/><stop offset="0.1" stop-color="#cbdff0" stop-opacity="0.94509804"/><stop offset="0.2" stop-color="#c8dded" stop-opacity="0.8901961"/><stop offset="0.3" stop-color="#c3dbe9" stop-opacity="0.8352941"/><stop offset="0.4" stop-color="#bfd7e7" stop-opacity="0.78039217"/><stop offset="0.5" stop-color="#b9d3e1" stop-opacity="0.7294118"/><stop offset="0.6" stop-color="#b2d0db" stop-opacity="0.6745098"/><stop offset="0.7" stop-color="#abcad7" stop-opacity="0.61960787"/><stop offset="0.8" stop-color="#a1c5cf" stop-opacity="0.5647059"/><stop offset="0.90000004" stop-color="#97bec6" stop-opacity="0.50980395"/><stop offset="1.0" stop-color="#8ab5bb" stop-opacity="0.45882353"/></linearGradient></defs><path fill="url(#g767f0c93c4_0_1788.28)" d="m775.54376 400.35202l0 0c-3.7659912 -3.7659607 -3.7589722 -9.878876 0.01574707 -13.653534q3.4172974 -3.417328 6.8345947 -6.834656q3.4094849 3.4094543 6.8189087 6.8189087l0 0c3.7659912 3.7659607 3.7589111 9.878876 -0.01574707 13.653534l0 0c-3.7746582 3.7746887 -9.887573 3.7817383 -13.653503 0.01574707z" fill-rule="evenodd"/><defs><linearGradient id="g767f0c93c4_0_1788.29" gradientUnits="userSpaceOnUse" gradientTransform="matrix(3.817077539594757 -3.3141796347790407 3.3141796347790407 3.817077539594757 0.0 0.0)" spreadMethod="pad" x1="13.804660755980017" y1="111.08597950216983" x2="13.80388294851461" y2="114.90305696251752"><stop offset="0.0" stop-color="#cfe2f3"/><stop offset="0.1" stop-color="#cbdff0" stop-opacity="0.94509804"/><stop offset="0.2" stop-color="#c8dded" stop-opacity="0.8901961"/><stop offset="0.3" stop-color="#c3dbe9" stop-opacity="0.8352941"/><stop offset="0.4" stop-color="#bfd7e7" stop-opacity="0.78039217"/><stop offset="0.5" stop-color="#b9d3e1" stop-opacity="0.7294118"/><stop offset="0.6" stop-color="#b2d0db" stop-opacity="0.6745098"/><stop offset="0.7" stop-color="#abcad7" stop-opacity="0.61960787"/><stop offset="0.8" stop-color="#a1c5cf" stop-opacity="0.5647059"/><stop offset="0.90000004" stop-color="#97bec6" stop-opacity="0.50980395"/><stop offset="1.0" stop-color="#8ab5bb" stop-opacity="0.45882353"/></linearGradient></defs><path fill="url(#g767f0c93c4_0_1788.29)" d="m427.1789 385.5592l0 0c-3.487671 -4.0269165 -3.050537 -10.125702 0.9763794 -13.62207q3.6456604 -3.1653442 7.291321 -6.3306885q3.1574707 3.6456604 6.314972 7.291321l0 0c3.4876404 4.0269165 3.0505066 10.125702 -0.9763794 13.62207l0 0c-4.0269165 3.496338 -10.118652 3.0662537 -13.606293 -0.9606323z" fill-rule="evenodd"/><defs><linearGradient id="g767f0c93c4_0_1788.30" gradientUnits="userSpaceOnUse" gradientTransform="matrix(3.2124824764953184 -2.7895224016702724 2.7895224016702724 3.2124824764953184 0.0 0.0)" spreadMethod="pad" x1="16.79298250429861" y1="139.587481498926" x2="16.792328248073062" y2="142.79996390879822"><stop offset="0.0" stop-color="#cfe2f3"/><stop offset="0.1" stop-color="#cbdff0" stop-opacity="0.94509804"/><stop offset="0.2" stop-color="#c8dded" stop-opacity="0.8901961"/><stop offset="0.3" stop-color="#c3dbe9" stop-opacity="0.8352941"/><stop offset="0.4" stop-color="#bfd7e7" stop-opacity="0.78039217"/><stop offset="0.5" stop-color="#b9d3e1" stop-opacity="0.7294118"/><stop offset="0.6" stop-color="#b2d0db" stop-opacity="0.6745098"/><stop offset="0.7" stop-color="#abcad7" stop-opacity="0.61960787"/><stop offset="0.8" stop-color="#a1c5cf" stop-opacity="0.5647059"/><stop offset="0.90000004" stop-color="#97bec6" stop-opacity="0.50980395"/><stop offset="1.0" stop-color="#8ab5bb" stop-opacity="0.45882353"/></linearGradient></defs><path fill="url(#g767f0c93c4_0_1788.30)" d="m447.8111 406.73898l0 0c-2.4700623 -2.8527527 -2.223297 -7.118408 0.551178 -9.527588q2.5118103 -2.1810913 5.0236206 -4.3621826q2.2362366 2.582672 4.4724426 5.165344l0 0c2.4700623 2.8527527 2.223297 7.1183777 -0.551178 9.527557l0 0c-2.774475 2.4091797 -7.026001 2.049591 -9.496063 -0.8031311z" fill-rule="evenodd"/><g filter="url(#shadowFilter-g767f0c93c4_0_1788.31)"><use xlink:href="#g767f0c93c4_0_1788.31" transform="matrix(1.0 0.0 0.0 1.0 0.0 2.0)"/></g><defs><filter id="shadowFilter-g767f0c93c4_0_1788.31" filterUnits="userSpaceOnUse"><feGaussianBlur in="SourceAlpha" stdDeviation="2.0" result="blur"/><feComponentTransfer in="blur" color-interpolation-filters="sRGB"><feFuncR type="linear" slope="0" intercept="0.0"/><feFuncG type="linear" slope="0" intercept="0.0"/><feFuncB type="linear" slope="0" intercept="0.0"/><feFuncA type="linear" slope="0.21" intercept="0"/></feComponentTransfer></filter></defs><g id="g767f0c93c4_0_1788.31"><defs><linearGradient id="g767f0c93c4_0_1788.32" gradientUnits="userSpaceOnUse" gradientTransform="matrix(5.611585686693405 0.6319180044255599 -0.6319180044255599 5.611585686693405 0.0 0.0)" spreadMethod="pad" x1="106.86168427250465" y1="16.756574957314722" x2="106.86166248565704" y2="22.368160643965837"><stop offset="0.0" stop-color="#eecfae" stop-opacity="0.8901961"/><stop offset="0.5" stop-color="#f3cca4" stop-opacity="0.94509804"/><stop offset="1.0" stop-color="#f9cb9c"/></linearGradient></defs><path fill="url(#g767f0c93c4_0_1788.32)" d="m587.30164 177.30391l0 0c0.9682617 -8.696823 8.802307 -14.953186 17.497925 -13.973984l73.90735 8.322678c4.17572 0.4702301 7.9957886 2.5802612 10.619751 5.8658905c2.6239014 3.2856445 3.836853 7.4777527 3.3718872 11.654114l0 0l0 0c-0.9682617 8.696823 -8.802307 14.953186 -17.497925 13.973984l-73.90735 -8.322678c-8.695557 -0.9792023 -14.959839 -8.823181 -13.991638 -17.520004z" fill-rule="evenodd"/></g><defs><linearGradient id="g767f0c93c4_0_1788.33" gradientUnits="userSpaceOnUse" gradientTransform="matrix(5.096946965251157 0.5757379568722835 -0.5757379568722835 5.096946965251157 0.0 0.0)" spreadMethod="pad" x1="124.44797770749786" y1="18.944368228693563" x2="124.44796171700702" y2="24.041315193919637"><stop offset="0.0" stop-color="#eecfae" stop-opacity="0.8901961"/><stop offset="0.5" stop-color="#f5dabe" stop-opacity="0.94509804"/><stop offset="1.0" stop-color="#fce5cd"/></linearGradient></defs><path fill="url(#g767f0c93c4_0_1788.33)" d="m622.94977 172.17418l0 0c0.24414062 -2.1908417 2.2177734 -3.7662659 4.408203 -3.5188446l28.179993 3.183136c1.0518799 0.11882019 2.0141602 0.65071106 2.6750488 1.478653c0.6608887 0.8279419 0.9663086 1.88414 0.84906006 2.936203l-2.0113525 18.049454c-0.24414062 2.1908264 -2.2177734 3.7662659 -4.408203 3.5188446l-28.179993 -3.183136c-2.1904297 -0.24743652 -3.7682495 -2.2240295 -3.524109 -4.414856z" fill-rule="evenodd"/><path fill="#d2b090" d="m606.623 171.66278l0 0c0.107177734 -0.95069885 0.96466064 -1.6338196 1.9152222 -1.5258026l0.047424316 0.0053863525l0 0c0.45648193 0.051879883 0.87384033 0.2829895 1.1602783 0.6424866c0.28637695 0.35951233 0.418396 0.8179474 0.36688232 1.2744904l0 0l0 0c-0.1071167 0.95069885 -0.9645996 1.6338196 -1.9152222 1.5258026l-0.047424316 -0.0053863525c-0.9505615 -0.10803223 -1.6343384 -0.9662781 -1.5271606 -1.9169769z" fill-rule="evenodd"/><path fill="#d2b090" d="m605.8989 179.02084l0 0c0.1071167 -0.9506836 0.9645996 -1.6338196 1.9152222 -1.5257874l0.047424316 0.0053863525l0 0c0.45648193 0.051864624 0.87384033 0.28297424 1.1602173 0.6424866c0.286438 0.35949707 0.418396 0.8179474 0.36694336 1.2744904l0 0l0 0c-0.107177734 0.9506836 -0.96466064 1.6338196 -1.9152222 1.5257874l-0.047424316 -0.0053863525c-0.95062256 -0.10801697 -1.6343384 -0.9662781 -1.5271606 -1.9169769z" fill-rule="evenodd"/><path fill="#d2b090" d="m605.17566 186.37912l0 0c0.107177734 -0.95069885 0.96466064 -1.6338196 1.9152222 -1.5258026l0.047424316 0.0053863525l0 0c0.45648193 0.051879883 0.87384033 0.2829895 1.1602783 0.6424866c0.28637695 0.35951233 0.418396 0.81796265 0.36688232 1.2744904l0 0l0 0c-0.1071167 0.95069885 -0.9645996 1.6338196 -1.9152222 1.5258026l-0.047424316 -0.0053863525c-0.9505615 -0.10801697 -1.6343384 -0.9662781 -1.5271606 -1.9169769z" fill-rule="evenodd"/><path fill="#d2b090" d="m613.9012 172.26453l0 0c0.107177734 -0.9506836 0.96466064 -1.6338043 1.9152222 -1.5257874l0.047424316 0.0053863525l0 0c0.45648193 0.051879883 0.87384033 0.28297424 1.1602783 0.6424866c0.28637695 0.35949707 0.418396 0.8179474 0.36688232 1.2744904l0 0l0 0c-0.1071167 0.95069885 -0.9645996 1.6338196 -1.9152222 1.5257874l-0.047424316 -0.0053863525c-0.9505615 -0.10801697 -1.6343384 -0.9662781 -1.5271606 -1.9169769z" fill-rule="evenodd"/><path fill="#d2b090" d="m613.1771 179.6226l0 0c0.1071167 -0.95069885 0.9645996 -1.6338196 1.9152222 -1.5258026l0.047424316 0.0053863525l0 0c0.45648193 0.051879883 0.87384033 0.2829895 1.1602173 0.6424866c0.286438 0.35951233 0.418396 0.81796265 0.36694336 1.2744904l0 0l0 0c-0.107177734 0.95069885 -0.96466064 1.6338196 -1.9152222 1.5258026l-0.047424316 -0.0053863525c-0.95062256 -0.10801697 -1.6343384 -0.9662781 -1.5271606 -1.9169769z" fill-rule="evenodd"/><path fill="#d2b090" d="m612.45386 186.98088l0 0c0.107177734 -0.95069885 0.96466064 -1.6338196 1.9152222 -1.5258026l0.047424316 0.0053863525l0 0c0.45648193 0.051879883 0.87384033 0.2829895 1.1602783 0.6424866c0.28637695 0.35949707 0.418396 0.8179474 0.36688232 1.2744904l0 0l0 0c-0.1071167 0.95069885 -0.9645996 1.6338196 -1.9152222 1.5258026l-0.047424316 -0.0054016113c-0.9505615 -0.10801697 -1.6343384 -0.9662781 -1.5271606 -1.9169617z" fill-rule="evenodd"/><path fill="#d2b090" d="m664.6254 178.43762l0 0c0.107177734 -0.9506836 0.96466064 -1.6338043 1.9152222 -1.5257874l0.047424316 0.0053863525l0 0c0.45648193 0.051879883 0.87384033 0.2829895 1.1602783 0.6424866c0.28637695 0.35949707 0.418396 0.8179474 0.36688232 1.2744904l0 0l0 0c-0.1071167 0.95069885 -0.9645996 1.6338196 -1.9152222 1.5257874l-0.047424316 -0.0053863525c-0.9505615 -0.10801697 -1.6343384 -0.9662781 -1.5271606 -1.9169769z" fill-rule="evenodd"/><path fill="#d2b090" d="m663.90137 185.7957l0 0c0.1071167 -0.95069885 0.9645996 -1.6338196 1.9152222 -1.5258026l0.047424316 0.0053863525l0 0c0.45648193 0.051879883 0.87384033 0.2829895 1.1602173 0.6424866c0.286438 0.35951233 0.418396 0.81796265 0.36694336 1.2744904l0 0l0 0c-0.107177734 0.95069885 -0.96466064 1.6338196 -1.9152222 1.5258026l-0.047424316 -0.0053863525c-0.95062256 -0.10801697 -1.6343384 -0.9662781 -1.5271606 -1.9169769z" fill-rule="evenodd"/><path fill="#d2b090" d="m663.1781 193.15398l0 0c0.107177734 -0.95069885 0.96466064 -1.6338196 1.9152222 -1.5258026l0.047424316 0.0053863525l0 0c0.45648193 0.051879883 0.87384033 0.2829895 1.1602783 0.6424866c0.28637695 0.35949707 0.418396 0.8179474 0.36688232 1.2744904l0 0l0 0c-0.1071167 0.95069885 -0.9645996 1.6338196 -1.9152222 1.5258026l-0.047424316 -0.0053863525c-0.9505615 -0.10803223 -1.6343384 -0.96629333 -1.5271606 -1.9169769z" fill-rule="evenodd"/><path fill="#d2b090" d="m671.8724 179.03198l0 0c0.107177734 -0.95069885 0.96466064 -1.6338196 1.9152832 -1.5257874l0.04736328 0.0053863525l0 0c0.45654297 0.051864624 0.87390137 0.28297424 1.1602783 0.6424866c0.28637695 0.35949707 0.418396 0.8179474 0.36694336 1.2744904l0 0l0 0c-0.107177734 0.9506836 -0.96466064 1.6338043 -1.9152832 1.5257874l-0.04736328 -0.0053863525c-0.95062256 -0.10801697 -1.6343384 -0.9662781 -1.5272217 -1.9169769z" fill-rule="evenodd"/><path fill="#d2b090" d="m671.1483 186.39006l0 0c0.107177734 -0.95069885 0.96466064 -1.6338196 1.9152222 -1.5258026l0.047424316 0.0053863525l0 0c0.45648193 0.051879883 0.87384033 0.2829895 1.1602783 0.6424866c0.28637695 0.35949707 0.41833496 0.8179474 0.36688232 1.2744904l0 0l0 0c-0.1071167 0.95069885 -0.9645996 1.6338196 -1.9152222 1.5258026l-0.047424316 -0.0053863525c-0.9505615 -0.10803223 -1.6343384 -0.96629333 -1.5271606 -1.9169769z" fill-rule="evenodd"/><path fill="#d2b090" d="m670.42505 193.74832l0 0c0.107177734 -0.9506836 0.96466064 -1.6338196 1.9152832 -1.5257874l0.04736328 0.0053863525l0 0c0.45654297 0.051864624 0.87390137 0.28297424 1.1602783 0.6424866c0.28637695 0.35949707 0.418396 0.8179474 0.36694336 1.2744904l0 0l0 0c-0.107177734 0.9506836 -0.96466064 1.6338196 -1.9152832 1.5257874l-0.04736328 -0.0053863525c-0.95062256 -0.10801697 -1.6343384 -0.9662781 -1.5272217 -1.9169769z" fill-rule="evenodd"/><defs><linearGradient id="g767f0c93c4_0_1788.34" gradientUnits="userSpaceOnUse" gradientTransform="matrix(4.390887591563478 1.3660833102235745 -1.3660833102235745 4.390887591563478 0.0 0.0)" spreadMethod="pad" x1="9.880870493032031" y1="106.71328895466694" x2="9.880854886076614" y2="111.10417654620268"><stop offset="0.0" stop-color="#eecfae" stop-opacity="0.8901961"/><stop offset="0.5" stop-color="#f3cca4" stop-opacity="0.94509804"/><stop offset="1.0" stop-color="#f9cb9c"/></linearGradient></defs><path fill="url(#g767f0c93c4_0_1788.34)" d="m-105.39121 491.70465l0 0c1.7468567 -5.295807 7.479492 -8.245941 12.804199 -6.589325l40.733627 12.672974l0 0c2.5570145 0.7955322 4.6760597 2.5687256 5.8909683 4.9295044c1.2149124 2.3607788 1.4261665 5.1157837 0.58729553 7.658905l0 0l0 0c-1.7468567 5.2957764 -7.479496 8.245911 -12.804199 6.5892944l-40.733627 -12.672943c-5.324707 -1.6566162 -8.225128 -7.292633 -6.478264 -12.588409z" fill-rule="evenodd"/><defs><linearGradient id="g767f0c93c4_0_1788.35" gradientUnits="userSpaceOnUse" gradientTransform="matrix(3.988060652439997 1.2423724702792707 -1.2423724702792707 3.988060652439997 0.0 0.0)" spreadMethod="pad" x1="15.844777795713913" y1="117.89483338483406" x2="15.844763068790595" y2="121.88289403724687"><stop offset="0.0" stop-color="#eecfae" stop-opacity="0.8901961"/><stop offset="0.5" stop-color="#f5dabe" stop-opacity="0.94509804"/><stop offset="1.0" stop-color="#fce5cd"/></linearGradient></defs><path fill="url(#g767f0c93c4_0_1788.35)" d="m-83.850685 492.34274l0 0c0.44018555 -1.3340454 1.8843002 -2.0767822 3.225525 -1.6589661l15.704742 4.892395c0.6440735 0.20065308 1.1777954 0.6475525 1.4837532 1.2424316c0.3059578 0.59487915 0.35908508 1.288971 0.14770126 1.929596l-3.626564 10.990692c-0.44018555 1.3340454 -1.8843079 2.0768127 -3.225525 1.6589966l-15.704742 -4.892395c-1.341217 -0.41781616 -2.0716476 -1.8379822 -1.6314545 -3.1720276z" fill-rule="evenodd"/><path fill="#d2b090" d="m-93.307915 490.21423l0 0c0.18074036 -0.54559326 0.7720032 -0.848999 1.3206177 -0.6776428l0 0l0 0c0.26345825 0.08227539 0.48164368 0.2652588 0.6065674 0.5086975c0.12491608 0.24346924 0.14633179 0.5274048 0.059539795 0.7894287l-0.039794922 0.12011719c-0.18074036 0.54559326 -0.7720032 0.848999 -1.3206253 0.6776428l0 0l0 0c-0.5486145 -0.17132568 -0.8468399 -0.75253296 -0.66609955 -1.2981262z" fill-rule="evenodd"/><path fill="#d2b090" d="m-94.73027 494.705l0 0c0.18074036 -0.54559326 0.7720032 -0.8489685 1.3206253 -0.6776428l0 0l0 0c0.26345062 0.08230591 0.48164368 0.2652893 0.60655975 0.508728c0.12491608 0.24343872 0.14633942 0.5274048 0.059539795 0.7893982l-0.039794922 0.120147705c-0.18074036 0.54559326 -0.7720032 0.8489685 -1.3206177 0.6776428l0 0l0 0c-0.54862213 -0.17132568 -0.84684753 -0.75253296 -0.6661072 -1.2981262z" fill-rule="evenodd"/><path fill="#d2b090" d="m-96.15215 499.19598l0 0c0.18074036 -0.54559326 0.7720032 -0.848999 1.3206177 -0.6776428l0 0l0 0c0.26345825 0.08227539 0.48164368 0.2652588 0.60655975 0.508728c0.124923706 0.24343872 0.14633942 0.5274048 0.059547424 0.7893982l-0.03980255 0.12011719c-0.18074036 0.5456238 -0.7720032 0.848999 -1.3206177 0.67767334l0 0l0 0c-0.54862213 -0.1713562 -0.84684753 -0.75253296 -0.6661072 -1.2981262z" fill-rule="evenodd"/><path fill="#d2b090" d="m-89.13392 491.36838l0 0c0.18074036 -0.54559326 0.7720032 -0.8489685 1.3206177 -0.6776428l0 0l0 0c0.26345825 0.08227539 0.48164368 0.2652588 0.6065674 0.508728c0.12491608 0.24343872 0.14633179 0.5274048 0.059539795 0.7893982l-0.039794922 0.120147705c-0.18074036 0.54559326 -0.7720032 0.8489685 -1.3206253 0.6776428l0 0l0 0c-0.5486145 -0.1713562 -0.8468399 -0.75253296 -0.66609955 -1.2981262z" fill-rule="evenodd"/><path fill="#d2b090" d="m-90.556274 495.85916l0 0c0.18074036 -0.54559326 0.7720032 -0.848999 1.3206253 -0.6776428l0 0l0 0c0.26345062 0.08227539 0.48164368 0.2652588 0.60655975 0.5086975c0.12491608 0.24346924 0.14633942 0.5274048 0.059539795 0.7894287l-0.039794922 0.12011719c-0.18074036 0.54559326 -0.7720032 0.848999 -1.3206253 0.6776428l0 0l0 0c-0.5486145 -0.17132568 -0.8468399 -0.75253296 -0.66609955 -1.2981262z" fill-rule="evenodd"/><path fill="#d2b090" d="m-91.97816 500.35013l0 0c0.18074036 -0.54559326 0.7720032 -0.8489685 1.3206177 -0.6776428l0 0l0 0c0.26345825 0.08227539 0.48164368 0.2652893 0.60655975 0.508728c0.124923706 0.24343872 0.14633942 0.5274048 0.059547424 0.7893982l-0.03980255 0.120147705c-0.18074036 0.54559326 -0.7720032 0.8489685 -1.3206177 0.6776428l0 0l0 0c-0.54862213 -0.1713562 -0.84684753 -0.75253296 -0.6661072 -1.2981262z" fill-rule="evenodd"/><path fill="#d2b090" d="m-60.312634 500.64093l0 0c0.18074036 -0.54559326 0.7720032 -0.8489685 1.3206215 -0.6776428l0 0l0 0c0.26345444 0.08227539 0.48163986 0.2652588 0.60655975 0.508728c0.12491989 0.24343872 0.1463356 0.5274048 0.05954361 0.7893982l-0.039798737 0.120147705c-0.18074036 0.54559326 -0.7720032 0.8489685 -1.3206215 0.6776428l0 0l0 0c-0.5486183 -0.1713562 -0.8468437 -0.75253296 -0.66610336 -1.2981262z" fill-rule="evenodd"/><path fill="#d2b090" d="m-61.73499 505.1317l0 0c0.18074036 -0.54559326 0.7720032 -0.848999 1.3206215 -0.6776428l0 0l0 0c0.26345825 0.08227539 0.48164368 0.2652588 0.60656357 0.5086975c0.12491608 0.24343872 0.1463356 0.5274048 0.059539795 0.7894287l-0.039794922 0.12011719c-0.18074036 0.54559326 -0.7720032 0.848999 -1.3206215 0.6776428l0 0l0 0c-0.5486183 -0.17132568 -0.8468437 -0.75253296 -0.66610336 -1.2981262z" fill-rule="evenodd"/><path fill="#d2b090" d="m-63.156876 509.62268l0 0c0.18074036 -0.54559326 0.7720032 -0.8489685 1.3206215 -0.6776428l0 0l0 0c0.26345825 0.08227539 0.48164368 0.2652893 0.60656357 0.508728c0.12491608 0.24343872 0.1463356 0.5274048 0.059539795 0.7893982l-0.039794922 0.120147705c-0.18074036 0.54559326 -0.7720032 0.8489685 -1.3206215 0.6776428l0 0l0 0c-0.5486183 -0.1713562 -0.8468437 -0.75253296 -0.66610336 -1.2981262z" fill-rule="evenodd"/><path fill="#d2b090" d="m-56.155895 501.78714l0 0c0.18074036 -0.54559326 0.7720032 -0.8489685 1.3206215 -0.6776428l0 0l0 0c0.26345444 0.08227539 0.48164368 0.2652588 0.60655975 0.508728c0.12491989 0.24343872 0.1463356 0.5274048 0.05954361 0.7893982l-0.039798737 0.12011719c-0.18074036 0.5456238 -0.7720032 0.848999 -1.3206215 0.67767334l0 0l0 0c-0.5486183 -0.1713562 -0.8468437 -0.75253296 -0.66610336 -1.2981262z" fill-rule="evenodd"/><path fill="#d2b090" d="m-57.57825 506.27792l0 0c0.18074036 -0.54559326 0.7720032 -0.848999 1.3206215 -0.6776428l0 0l0 0c0.26345825 0.08227539 0.48164368 0.2652588 0.60656357 0.5086975c0.12491608 0.24343872 0.1463356 0.5274048 0.059539795 0.7894287l-0.039794922 0.12011719c-0.18074036 0.54559326 -0.7720032 0.848999 -1.3206215 0.6776428l0 0l0 0c-0.5486183 -0.17132568 -0.8468437 -0.75253296 -0.66610336 -1.2981262z" fill-rule="evenodd"/><path fill="#d2b090" d="m-59.000137 510.7689l0 0c0.18074036 -0.54559326 0.7720032 -0.8489685 1.3206215 -0.6776428l0 0l0 0c0.26345825 0.08227539 0.48164368 0.2652893 0.60656357 0.508728c0.12491608 0.24343872 0.1463356 0.5274048 0.059539795 0.7893982l-0.039794922 0.120147705c-0.18074036 0.54559326 -0.7720032 0.848999 -1.3206215 0.6776123l0 0l0 0c-0.5486183 -0.17132568 -0.8468437 -0.75250244 -0.66610336 -1.2980957z" fill-rule="evenodd"/><defs><linearGradient id="g767f0c93c4_0_1788.36" gradientUnits="userSpaceOnUse" gradientTransform="matrix(7.4976159634853365 0.0 0.0 7.4976159634853365 0.0 0.0)" spreadMethod="pad" x1="79.58505285355774" y1="11.101715571822846" x2="79.58352677791055" y2="18.59933137999835"><stop offset="0.0" stop-color="#ffb4ad"/><stop offset="0.85" stop-color="#c96b59"/><stop offset="1.0" stop-color="#c96b59"/></linearGradient></defs><path fill="url(#g767f0c93c4_0_1788.36)" d="m621.5798 83.24147l-24.881592 56.209167l11.060181 -0.95422363z" fill-rule="evenodd"/><g filter="url(#shadowFilter-g767f0c93c4_0_1788.37)"><use xlink:href="#g767f0c93c4_0_1788.37" transform="matrix(1.0 0.0 0.0 1.0 0.0026246719160104987 0.0)"/></g><defs><filter id="shadowFilter-g767f0c93c4_0_1788.37" filterUnits="userSpaceOnUse"><feGaussianBlur in="SourceAlpha" stdDeviation="2.2222223" result="blur"/><feComponentTransfer in="blur" color-interpolation-filters="sRGB"><feFuncR type="linear" slope="0" intercept="0.0"/><feFuncG type="linear" slope="0" intercept="0.0"/><feFuncB type="linear" slope="0" intercept="0.0"/><feFuncA type="linear" slope="0.2667" intercept="0"/></feComponentTransfer></filter></defs><g id="g767f0c93c4_0_1788.37"><defs><linearGradient id="g767f0c93c4_0_1788.38" gradientUnits="userSpaceOnUse" gradientTransform="matrix(-15.491413573519203 0.0 0.0 15.491413573519203 0.0 0.0)" spreadMethod="pad" x1="-57.25223568620664" y1="20.099865425854357" x2="-46.29379020813804" y2="31.04958538620096"><stop offset="0.0" stop-color="#cfcfd2"/><stop offset="1.0" stop-color="#ffffff"/></linearGradient></defs><path fill="url(#g767f0c93c4_0_1788.38)" d="m807.4956 311.3121l0 0c0 -43.86383 -40.414124 -79.4225 -90.267456 -79.4225l0 0c-49.85327 0 -90.267395 35.55867 -90.267395 79.4225l0 0c0 43.86383 40.414124 79.422485 90.267395 79.422485l0 0c49.853333 0 90.267456 -35.558655 90.267456 -79.422485z" fill-rule="evenodd"/></g><g filter="url(#shadowFilter-g767f0c93c4_0_1788.39)"><use xlink:href="#g767f0c93c4_0_1788.39" transform="matrix(1.0 0.0 0.0 1.0 0.0 2.0)"/></g><defs><filter id="shadowFilter-g767f0c93c4_0_1788.39" filterUnits="userSpaceOnUse"><feGaussianBlur in="SourceAlpha" stdDeviation="2.0" result="blur"/><feComponentTransfer in="blur" color-interpolation-filters="sRGB"><feFuncR type="linear" slope="0" intercept="0.0"/><feFuncG type="linear" slope="0" intercept="0.0"/><feFuncB type="linear" slope="0" intercept="0.0"/><feFuncA type="linear" slope="0.5" intercept="0"/></feComponentTransfer></filter></defs><g id="g767f0c93c4_0_1788.39"><defs><linearGradient id="g767f0c93c4_0_1788.40" gradientUnits="userSpaceOnUse" gradientTransform="matrix(11.465931446171586 0.0 0.0 11.465931446171586 0.0 0.0)" spreadMethod="pad" x1="56.18073822736131" y1="21.6678312428829" x2="56.17840262508" y2="33.1337624511742"><stop offset="0.0" stop-color="#1d324a"/><stop offset="0.1" stop-color="#22384f" stop-opacity="0.94509804"/><stop offset="0.2" stop-color="#273f55" stop-opacity="0.8901961"/><stop offset="0.3" stop-color="#2f475c" stop-opacity="0.8352941"/><stop offset="0.4" stop-color="#365164" stop-opacity="0.78039217"/><stop offset="0.5" stop-color="#3f5a6e" stop-opacity="0.7294118"/><stop offset="0.6" stop-color="#496678" stop-opacity="0.6745098"/><stop offset="0.7" stop-color="#547684" stop-opacity="0.61960787"/><stop offset="0.8" stop-color="#638793" stop-opacity="0.5647059"/><stop offset="0.90000004" stop-color="#749ba5" stop-opacity="0.50980395"/><stop offset="1.0" stop-color="#8ab5bb" stop-opacity="0.45882353"/></linearGradient></defs><path fill="url(#g767f0c93c4_0_1788.40)" d="m644.1645 314.19012l0 0c0 -36.295807 31.780945 -65.71933 70.98468 -65.71933l0 0c39.203796 0 70.98474 29.423523 70.98474 65.71933l0 0c0 36.295776 -31.780945 65.7193 -70.98474 65.7193l0 0c-39.203735 0 -70.98468 -29.423523 -70.98468 -65.7193z" fill-rule="evenodd"/></g><g filter="url(#shadowFilter-g767f0c93c4_0_1788.41)"><use xlink:href="#g767f0c93c4_0_1788.41" transform="matrix(1.0 0.0 0.0 1.0 0.0 2.0)"/></g><defs><filter id="shadowFilter-g767f0c93c4_0_1788.41" filterUnits="userSpaceOnUse"><feGaussianBlur in="SourceAlpha" stdDeviation="2.0" result="blur"/><feComponentTransfer in="blur" color-interpolation-filters="sRGB"><feFuncR type="linear" slope="0" intercept="0.0"/><feFuncG type="linear" slope="0" intercept="0.0"/><feFuncB type="linear" slope="0" intercept="0.0"/><feFuncA type="linear" slope="0.5" intercept="0"/></feComponentTransfer></filter></defs><g id="g767f0c93c4_0_1788.41"><defs><radialGradient id="g767f0c93c4_0_1788.42" gradientUnits="userSpaceOnUse" gradientTransform="matrix(-8.54256784984235 0.0 0.0 8.54256784984235 0.0 0.0)" spreadMethod="pad" cx="-83.63635129785432" cy="36.80495619140332" fx="-83.63635129785432" fy="36.80495619140332" r="8.54256820678711"><stop offset="0.0" stop-color="#7f7f7f"/><stop offset="0.29" stop-color="#000000"/><stop offset="1.0" stop-color="#000000"/></radialGradient></defs><path fill="url(#g767f0c93c4_0_1788.42)" d="m768.517 314.40884l0 0c0 -27.080261 -24.197998 -49.033142 -54.04785 -49.033142l0 0c-29.849792 0 -54.04779 21.95288 -54.04779 49.033142l0 0c0 27.080261 24.197998 49.033142 54.04779 49.033142l0 0c29.849854 0 54.04785 -21.95288 54.04785 -49.033142z" fill-rule="evenodd"/></g><g filter="url(#shadowFilter-g767f0c93c4_0_1788.43)"><use xlink:href="#g767f0c93c4_0_1788.43" transform="matrix(1.0 0.0 0.0 1.0 0.0 2.0)"/></g><defs><filter id="shadowFilter-g767f0c93c4_0_1788.43" filterUnits="userSpaceOnUse"><feGaussianBlur in="SourceAlpha" stdDeviation="2.0" result="blur"/><feComponentTransfer in="blur" color-interpolation-filters="sRGB"><feFuncR type="linear" slope="0" intercept="0.0"/><feFuncG type="linear" slope="0" intercept="0.0"/><feFuncB type="linear" slope="0" intercept="0.0"/><feFuncA type="linear" slope="0.5" intercept="0"/></feComponentTransfer></filter></defs><g id="g767f0c93c4_0_1788.43"><defs><linearGradient id="g767f0c93c4_0_1788.44" gradientUnits="userSpaceOnUse" gradientTransform="matrix(-8.748127155855329 0.0 0.0 8.748127155855329 0.0 0.0)" spreadMethod="pad" x1="-89.61268457604749" y1="33.85398399184072" x2="-83.42436153133663" y2="40.03738003522286"><stop offset="0.0" stop-color="#cfcfd2"/><stop offset="1.0" stop-color="#ffffff"/></linearGradient></defs><path fill="url(#g767f0c93c4_0_1788.44)" d="m758.3079 296.13852l0 0c0 -14.157928 -12.750183 -25.635193 -28.478333 -25.635193l0 0c-15.728149 0 -28.478333 11.477264 -28.478333 25.635193l0 0c0 14.157928 12.750183 25.635193 28.478333 25.635193l0 0c15.728149 0 28.478333 -11.477264 28.478333 -25.635193z" fill-rule="evenodd"/></g><g filter="url(#shadowFilter-g767f0c93c4_0_1788.45)"><use xlink:href="#g767f0c93c4_0_1788.45" transform="matrix(1.0 0.0 0.0 1.0 0.0 2.0)"/></g><defs><filter id="shadowFilter-g767f0c93c4_0_1788.45" filterUnits="userSpaceOnUse"><feGaussianBlur in="SourceAlpha" stdDeviation="2.0" result="blur"/><feComponentTransfer in="blur" color-interpolation-filters="sRGB"><feFuncR type="linear" slope="0" intercept="0.0"/><feFuncG type="linear" slope="0" intercept="0.0"/><feFuncB type="linear" slope="0" intercept="0.0"/><feFuncA type="linear" slope="0.5" intercept="0"/></feComponentTransfer></filter></defs><g id="g767f0c93c4_0_1788.45"><defs><linearGradient id="g767f0c93c4_0_1788.46" gradientUnits="userSpaceOnUse" gradientTransform="matrix(-5.920132516996155 0.0 0.0 5.920132516996155 0.0 0.0)" spreadMethod="pad" x1="-120.87675050839755" y1="56.987311664944464" x2="-116.68892417081751" y2="61.17181636503339"><stop offset="0.0" stop-color="#cfcfd2"/><stop offset="1.0" stop-color="#ffffff"/></linearGradient></defs><path fill="url(#g767f0c93c4_0_1788.46)" d="m703.02185 337.3624l0 0c0 -6.950226 -5.4613647 -12.584534 -12.198303 -12.584534l0 0c-3.2351685 0 -6.3378296 1.3258667 -8.625488 3.685913c-2.2875977 2.360077 -3.572754 5.5610046 -3.572754 8.898621l0 0c0 6.9502563 5.4613647 12.584564 12.198242 12.584564l0 0c6.7369385 0 12.198303 -5.634308 12.198303 -12.584564z" fill-rule="evenodd"/></g><g filter="url(#shadowFilter-g767f0c93c4_0_1788.47)"><use xlink:href="#g767f0c93c4_0_1788.47" transform="matrix(1.0 0.0 0.0 1.0 0.0026246719160104987 0.0)"/></g><defs><filter id="shadowFilter-g767f0c93c4_0_1788.47" filterUnits="userSpaceOnUse"><feGaussianBlur in="SourceAlpha" stdDeviation="2.2222223" result="blur"/><feComponentTransfer in="blur" color-interpolation-filters="sRGB"><feFuncR type="linear" slope="0" intercept="0.0"/><feFuncG type="linear" slope="0" intercept="0.0"/><feFuncB type="linear" slope="0" intercept="0.0"/><feFuncA type="linear" slope="0.2667" intercept="0"/></feComponentTransfer></filter></defs><g id="g767f0c93c4_0_1788.47"><defs><linearGradient id="g767f0c93c4_0_1788.48" gradientUnits="userSpaceOnUse" gradientTransform="matrix(-15.491412637182826 0.0 0.0 15.491412637182826 0.0 0.0)" spreadMethod="pad" x1="-44.185526721506214" y1="20.036823712462205" x2="-33.22708322838942" y2="30.9865443346349"><stop offset="0.0" stop-color="#cfcfd2"/><stop offset="1.0" stop-color="#ffffff"/></linearGradient></defs><path fill="url(#g767f0c93c4_0_1788.48)" d="m605.0738 310.33548l0 0c0 -43.86386 -40.414124 -79.422516 -90.267456 -79.422516l0 0c-49.853302 0 -90.267395 35.558655 -90.267395 79.422516l0 0c0 43.86383 40.414093 79.422485 90.267395 79.422485l0 0c49.853333 0 90.267456 -35.558655 90.267456 -79.422485z" fill-rule="evenodd"/></g><g filter="url(#shadowFilter-g767f0c93c4_0_1788.49)"><use xlink:href="#g767f0c93c4_0_1788.49" transform="matrix(1.0 0.0 0.0 1.0 0.0 2.0)"/></g><defs><filter id="shadowFilter-g767f0c93c4_0_1788.49" filterUnits="userSpaceOnUse"><feGaussianBlur in="SourceAlpha" stdDeviation="2.0" result="blur"/><feComponentTransfer in="blur" color-interpolation-filters="sRGB"><feFuncR type="linear" slope="0" intercept="0.0"/><feFuncG type="linear" slope="0" intercept="0.0"/><feFuncB type="linear" slope="0" intercept="0.0"/><feFuncA type="linear" slope="0.5" intercept="0"/></feComponentTransfer></filter></defs><g id="g767f0c93c4_0_1788.49"><defs><linearGradient id="g767f0c93c4_0_1788.50" gradientUnits="userSpaceOnUse" gradientTransform="matrix(11.465930551989992 0.0 0.0 11.465930551989992 0.0 0.0)" spreadMethod="pad" x1="38.5265387843788" y1="21.582658554011758" x2="38.52420318191534" y2="33.04858886812141"><stop offset="0.0" stop-color="#1d324a"/><stop offset="0.1" stop-color="#22384f" stop-opacity="0.94509804"/><stop offset="0.2" stop-color="#273f55" stop-opacity="0.8901961"/><stop offset="0.3" stop-color="#2f475c" stop-opacity="0.8352941"/><stop offset="0.4" stop-color="#365164" stop-opacity="0.78039217"/><stop offset="0.5" stop-color="#3f5a6e" stop-opacity="0.7294118"/><stop offset="0.6" stop-color="#496678" stop-opacity="0.6745098"/><stop offset="0.7" stop-color="#547684" stop-opacity="0.61960787"/><stop offset="0.8" stop-color="#638793" stop-opacity="0.5647059"/><stop offset="0.90000004" stop-color="#749ba5" stop-opacity="0.50980395"/><stop offset="1.0" stop-color="#8ab5bb" stop-opacity="0.45882353"/></linearGradient></defs><path fill="url(#g767f0c93c4_0_1788.50)" d="m441.74265 313.21347l0 0c0 -36.295776 31.780945 -65.719315 70.98471 -65.719315l0 0c39.203796 0 70.98474 29.423538 70.98474 65.719315l0 0c0 36.295776 -31.780945 65.71933 -70.98474 65.71933l0 0c-39.203766 0 -70.98471 -29.423553 -70.98471 -65.71933z" fill-rule="evenodd"/></g><g filter="url(#shadowFilter-g767f0c93c4_0_1788.51)"><use xlink:href="#g767f0c93c4_0_1788.51" transform="matrix(1.0 0.0 0.0 1.0 0.0 2.0)"/></g><defs><filter id="shadowFilter-g767f0c93c4_0_1788.51" filterUnits="userSpaceOnUse"><feGaussianBlur in="SourceAlpha" stdDeviation="2.0" result="blur"/><feComponentTransfer in="blur" color-interpolation-filters="sRGB"><feFuncR type="linear" slope="0" intercept="0.0"/><feFuncG type="linear" slope="0" intercept="0.0"/><feFuncB type="linear" slope="0" intercept="0.0"/><feFuncA type="linear" slope="0.5" intercept="0"/></feComponentTransfer></filter></defs><g id="g767f0c93c4_0_1788.51"><defs><radialGradient id="g767f0c93c4_0_1788.52" gradientUnits="userSpaceOnUse" gradientTransform="matrix(-8.54256784984235 0.0 0.0 8.54256784984235 0.0 0.0)" spreadMethod="pad" cx="-59.940685624883876" cy="36.69063099951393" fx="-59.940685624883876" fy="36.69063099951393" r="8.54256820678711"><stop offset="0.0" stop-color="#7f7f7f"/><stop offset="0.29" stop-color="#000000"/><stop offset="1.0" stop-color="#000000"/></radialGradient></defs><path fill="url(#g767f0c93c4_0_1788.52)" d="m566.0952 313.4322l0 0c0 -27.08023 -24.19806 -49.03311 -54.04785 -49.03311l0 0c-29.849792 0 -54.04785 21.95288 -54.04785 49.03311l0 0c0 27.080261 24.19806 49.033142 54.04785 49.033142l0 0c29.849792 0 54.04785 -21.95288 54.04785 -49.033142z" fill-rule="evenodd"/></g><g filter="url(#shadowFilter-g767f0c93c4_0_1788.53)"><use xlink:href="#g767f0c93c4_0_1788.53" transform="matrix(1.0 0.0 0.0 1.0 0.0 2.0)"/></g><defs><filter id="shadowFilter-g767f0c93c4_0_1788.53" filterUnits="userSpaceOnUse"><feGaussianBlur in="SourceAlpha" stdDeviation="2.0" result="blur"/><feComponentTransfer in="blur" color-interpolation-filters="sRGB"><feFuncR type="linear" slope="0" intercept="0.0"/><feFuncG type="linear" slope="0" intercept="0.0"/><feFuncB type="linear" slope="0" intercept="0.0"/><feFuncA type="linear" slope="0.5" intercept="0"/></feComponentTransfer></filter></defs><g id="g767f0c93c4_0_1788.53"><defs><linearGradient id="g767f0c93c4_0_1788.54" gradientUnits="userSpaceOnUse" gradientTransform="matrix(-9.08172673098901 0.0 0.0 9.08172673098901 0.0 0.0)" spreadMethod="pad" x1="-63.3791126451765" y1="32.541400988431704" x2="-56.954806702187064" y2="38.960595140911515"><stop offset="0.0" stop-color="#cfcfd2"/><stop offset="1.0" stop-color="#ffffff"/></linearGradient></defs><path fill="url(#g767f0c93c4_0_1788.54)" d="m547.48627 295.50974l0 0c0 -15.522247 -13.527344 -28.1055 -30.214233 -28.1055l0 0c-16.68686 0 -30.214233 12.583252 -30.214233 28.1055l0 0c0 15.522247 13.527374 28.1055 30.214233 28.1055l0 0c16.68689 0 30.214233 -12.583252 30.214233 -28.1055z" fill-rule="evenodd"/></g><g filter="url(#shadowFilter-g767f0c93c4_0_1788.55)"><use xlink:href="#g767f0c93c4_0_1788.55" transform="matrix(1.0 0.0 0.0 1.0 0.0 2.0)"/></g><defs><filter id="shadowFilter-g767f0c93c4_0_1788.55" filterUnits="userSpaceOnUse"><feGaussianBlur in="SourceAlpha" stdDeviation="2.0" result="blur"/><feComponentTransfer in="blur" color-interpolation-filters="sRGB"><feFuncR type="linear" slope="0" intercept="0.0"/><feFuncG type="linear" slope="0" intercept="0.0"/><feFuncB type="linear" slope="0" intercept="0.0"/><feFuncA type="linear" slope="0.5" intercept="0"/></feComponentTransfer></filter></defs><g id="g767f0c93c4_0_1788.55"><defs><linearGradient id="g767f0c93c4_0_1788.56" gradientUnits="userSpaceOnUse" gradientTransform="matrix(-5.920138641373043 0.0 0.0 5.920138641373043 0.0 0.0)" spreadMethod="pad" x1="-86.68455577512819" y1="56.822282838432855" x2="-82.49671991527615" y2="61.00678667329972"><stop offset="0.0" stop-color="#cfcfd2"/><stop offset="1.0" stop-color="#ffffff"/></linearGradient></defs><path fill="url(#g767f0c93c4_0_1788.56)" d="m500.60004 336.38577l0 0c0 -6.9502563 -5.4613647 -12.584534 -12.198303 -12.584534l0 0c-3.2351685 0 -6.33786 1.3258667 -8.625488 3.685913c-2.2876282 2.360077 -3.5727844 5.5610046 -3.5727844 8.898621l0 0c0 6.9502563 5.4613647 12.584564 12.198273 12.584564l0 0c6.7369385 0 12.198303 -5.634308 12.198303 -12.584564z" fill-rule="evenodd"/></g><defs><linearGradient id="g767f0c93c4_0_1788.57" gradientUnits="userSpaceOnUse" gradientTransform="matrix(-7.838991885893352 9.815698391015419 -9.815698391015419 -7.838991885893352 0.0 0.0)" spreadMethod="pad" x1="-13.26180988138932" y1="-49.99340320308148" x2="-13.26380870039497" y2="-40.17770501558074"><stop offset="0.0" stop-color="#ffb4ad"/><stop offset="0.85" stop-color="#c96b59"/><stop offset="1.0" stop-color="#c96b59"/></linearGradient></defs><path fill="url(#g767f0c93c4_0_1788.57)" d="m421.93457 323.5558l0 0c-5.020813 -42.49362 20.28244 -82.53288 60.911682 -96.38516c40.62921 -13.85228 85.72424 2.1851501 108.5556 38.606354z" fill-rule="evenodd"/><defs><linearGradient id="g767f0c93c4_0_1788.58" gradientUnits="userSpaceOnUse" gradientTransform="matrix(-11.00158102743401 3.5282623283890953 -3.5282623283890953 -11.00158102743401 0.0 0.0)" spreadMethod="pad" x1="-58.661097911017116" y1="-47.502063239928226" x2="-58.66333771878606" y2="-36.500482440495034"><stop offset="0.0" stop-color="#ffb4ad"/><stop offset="0.85" stop-color="#c96b59"/><stop offset="1.0" stop-color="#c96b59"/></linearGradient></defs><path fill="url(#g767f0c93c4_0_1788.58)" d="m631.7088 270.63977l0 0c18.40393 -39.630554 61.708008 -59.906067 104.15454 -48.76648c42.446533 11.139572 72.63751 50.702972 72.61511 95.1575z" fill-rule="evenodd"/></g></svg>