<svg version="1.1" viewBox="0.0 0.0 1280.0 720.0" fill="none" stroke="none" stroke-linecap="square" stroke-miterlimit="10" xmlns:xlink="http://www.w3.org/1999/xlink" xmlns="http://www.w3.org/2000/svg"><clipPath id="g767f0c93c4_0_2105.0"><path d="m0 0l1280.0 0l0 720.0l-1280.0 0l0 -720.0z" clip-rule="nonzero"/></clipPath><g clip-path="url(#g767f0c93c4_0_2105.0)"><path fill="#000000" fill-opacity="0.0" d="m0 0l1280.0 0l0 720.0l-1280.0 0z" fill-rule="evenodd"/><g filter="url(#shadowFilter-g767f0c93c4_0_2105.1)"><use xlink:href="#g767f0c93c4_0_2105.1" transform="matrix(1.0 0.0 0.0 1.0 0.0 2.0)"/></g><defs><filter id="shadowFilter-g767f0c93c4_0_2105.1" filterUnits="userSpaceOnUse"><feGaussianBlur in="SourceAlpha" stdDeviation="2.0" result="blur"/><feComponentTransfer in="blur" color-interpolation-filters="sRGB"><feFuncR type="linear" slope="0" intercept="0.0"/><feFuncG type="linear" slope="0" intercept="0.0"/><feFuncB type="linear" slope="0" intercept="0.0"/><feFuncA type="linear" slope="0.5" intercept="0"/></feComponentTransfer></filter></defs><g id="g767f0c93c4_0_2105.1"><defs><linearGradient id="g767f0c93c4_0_2105.2" gradientUnits="userSpaceOnUse" gradientTransform="matrix(8.754829123423034 7.513472754890053 -7.513472754890053 8.754829123423034 0.0 0.0)" spreadMethod="pad" x1="55.56452950392288" y1="-37.066722638160066" x2="55.56449751131342" y2="-28.31189351479549"><stop offset="0.0" stop-color="#fb9195"/><stop offset="0.51" stop-color="#c96b59"/><stop offset="0.97" stop-color="#1d324a"/><stop offset="1.0" stop-color="#1d324a"/></linearGradient></defs><path fill="url(#g767f0c93c4_0_2105.2)" d="m699.1786 169.61678l120.97638 -29.275589l-7.0236206 127.07086z" fill-rule="evenodd"/></g><g filter="url(#shadowFilter-g767f0c93c4_0_2105.3)"><use xlink:href="#g767f0c93c4_0_2105.3" transform="matrix(1.0 0.0 0.0 1.0 0.0 2.0)"/></g><defs><filter id="shadowFilter-g767f0c93c4_0_2105.3" filterUnits="userSpaceOnUse"><feGaussianBlur in="SourceAlpha" stdDeviation="2.0" result="blur"/><feComponentTransfer in="blur" color-interpolation-filters="sRGB"><feFuncR type="linear" slope="0" intercept="0.0"/><feFuncG type="linear" slope="0" intercept="0.0"/><feFuncB type="linear" slope="0" intercept="0.0"/><feFuncA type="linear" slope="0.5" intercept="0"/></feComponentTransfer></filter></defs><g id="g767f0c93c4_0_2105.3"><defs><linearGradient id="g767f0c93c4_0_2105.4" gradientUnits="userSpaceOnUse" gradientTransform="matrix(8.889616241744097 -7.072360611488154 7.072360611488154 8.889616241744097 0.0 0.0)" spreadMethod="pad" x1="15.526889336431243" y1="31.928149459931333" x2="15.526856844959077" y2="40.817765701616054"><stop offset="0.0" stop-color="#fb9195"/><stop offset="0.51" stop-color="#c96b59"/><stop offset="0.97" stop-color="#1d324a"/><stop offset="1.0" stop-color="#1d324a"/></linearGradient></defs><path fill="url(#g767f0c93c4_0_2105.4)" d="m426.70602 253.04248l-8.456665 -122.31496l120.92911 32.834656z" fill-rule="evenodd"/></g><g filter="url(#shadowFilter-g767f0c93c4_0_2105.5)"><use xlink:href="#g767f0c93c4_0_2105.5" transform="matrix(1.0 0.0 0.0 1.0 0.0 2.0)"/></g><defs><filter id="shadowFilter-g767f0c93c4_0_2105.5" filterUnits="userSpaceOnUse"><feGaussianBlur in="SourceAlpha" stdDeviation="2.0" result="blur"/><feComponentTransfer in="blur" color-interpolation-filters="sRGB"><feFuncR type="linear" slope="0" intercept="0.0"/><feFuncG type="linear" slope="0" intercept="0.0"/><feFuncB type="linear" slope="0" intercept="0.0"/><feFuncA type="linear" slope="0.5" intercept="0"/></feComponentTransfer></filter></defs><g id="g767f0c93c4_0_2105.5"><defs><linearGradient id="g767f0c93c4_0_2105.6" gradientUnits="userSpaceOnUse" gradientTransform="matrix(8.180444476806803 -6.509121371299658 6.509121371299658 8.180444476806803 0.0 0.0)" spreadMethod="pad" x1="17.73085873796836" y1="36.3694431366066" x2="17.73082931615656" y2="44.5498876133605"><stop offset="0.0" stop-color="#fb9195"/><stop offset="0.51" stop-color="#c96b59"/><stop offset="0.97" stop-color="#1d324a"/><stop offset="1.0" stop-color="#1d324a"/></linearGradient></defs><path fill="url(#g767f0c93c4_0_2105.6)" d="m435.02692 249.02559l-5.680481 -104.76782l103.89972 26.615509z" fill-rule="evenodd"/></g><g filter="url(#shadowFilter-g767f0c93c4_0_2105.7)"><use xlink:href="#g767f0c93c4_0_2105.7" transform="matrix(1.0 0.0 0.0 1.0 0.0 2.0)"/></g><defs><filter id="shadowFilter-g767f0c93c4_0_2105.7" filterUnits="userSpaceOnUse"><feGaussianBlur in="SourceAlpha" stdDeviation="2.0" result="blur"/><feComponentTransfer in="blur" color-interpolation-filters="sRGB"><feFuncR type="linear" slope="0" intercept="0.0"/><feFuncG type="linear" slope="0" intercept="0.0"/><feFuncB type="linear" slope="0" intercept="0.0"/><feFuncA type="linear" slope="0.5" intercept="0"/></feComponentTransfer></filter></defs><g id="g767f0c93c4_0_2105.7"><defs><linearGradient id="g767f0c93c4_0_2105.8" gradientUnits="userSpaceOnUse" gradientTransform="matrix(8.28914860684851 6.130385504962178 -6.130385504962178 8.28914860684851 0.0 0.0)" spreadMethod="pad" x1="65.37855536717976" y1="-34.88649834019483" x2="65.37852354458836" y2="-26.597349733407402"><stop offset="0.0" stop-color="#fb9195"/><stop offset="0.51" stop-color="#c96b59"/><stop offset="0.97" stop-color="#1d324a"/><stop offset="1.0" stop-color="#1d324a"/></linearGradient></defs><path fill="url(#g767f0c93c4_0_2105.8)" d="m704.98456 180.32635l102.892334 -30.195206l-1.8748779 104.90445z" fill-rule="evenodd"/></g><g filter="url(#shadowFilter-g767f0c93c4_0_2105.9)"><use xlink:href="#g767f0c93c4_0_2105.9" transform="matrix(1.0 0.0 0.0 1.0 0.0 2.0)"/></g><defs><filter id="shadowFilter-g767f0c93c4_0_2105.9" filterUnits="userSpaceOnUse"><feGaussianBlur in="SourceAlpha" stdDeviation="2.0" result="blur"/><feComponentTransfer in="blur" color-interpolation-filters="sRGB"><feFuncR type="linear" slope="0" intercept="0.0"/><feFuncG type="linear" slope="0" intercept="0.0"/><feFuncB type="linear" slope="0" intercept="0.0"/><feFuncA type="linear" slope="0.5" intercept="0"/></feComponentTransfer></filter></defs><g id="g767f0c93c4_0_2105.9"><defs><linearGradient id="g767f0c93c4_0_2105.10" gradientUnits="userSpaceOnUse" gradientTransform="matrix(7.365209092775075 -9.780524699121646 9.780524699121646 7.365209092775075 0.0 0.0)" spreadMethod="pad" x1="-10.625023568065618" y1="68.32030526555" x2="-10.625059575775522" y2="78.10082996460537"><stop offset="0.0" stop-color="#1d324a"/><stop offset="1.0" stop-color="#c96b59"/></linearGradient></defs><path fill="url(#g767f0c93c4_0_2105.10)" d="m667.6804 511.68958c7.582947 -0.57766724 14.2960205 4.9417725 14.994324 12.328125l8.94165 94.59442l-0.35876465 3.2330933l17.277954 12.422607c3.8955688 2.8008423 4.7631226 8.112793 1.9378052 11.864624c-2.8253174 3.751831 -8.273621 4.522766 -12.169128 1.7219849l-8.804138 -6.330078l1.2984009 13.735901c0.44128418 4.6676636 -3.0858154 8.747437 -7.8777466 9.112488c-4.791931 0.36499023 -9.03418 -3.123108 -9.475403 -7.7908325l-1.6052246 -16.981018l-7.6917725 11.792908c-2.562317 3.9283447 -7.9415283 5.0478516 -12.014832 2.5004883c-4.073303 -2.5473633 -5.298218 -7.796875 -2.7359009 -11.72522l13.664429 -20.949707l1.0744019 -0.7265625l-8.921753 -94.383545c-0.6983032 -7.3863525 4.8828735 -13.842163 12.465698 -14.419678z" fill-rule="evenodd"/></g><g filter="url(#shadowFilter-g767f0c93c4_0_2105.11)"><use xlink:href="#g767f0c93c4_0_2105.11" transform="matrix(1.0 0.0 0.0 1.0 0.0 2.0)"/></g><defs><filter id="shadowFilter-g767f0c93c4_0_2105.11" filterUnits="userSpaceOnUse"><feGaussianBlur in="SourceAlpha" stdDeviation="2.0" result="blur"/><feComponentTransfer in="blur" color-interpolation-filters="sRGB"><feFuncR type="linear" slope="0" intercept="0.0"/><feFuncG type="linear" slope="0" intercept="0.0"/><feFuncB type="linear" slope="0" intercept="0.0"/><feFuncA type="linear" slope="0.5" intercept="0"/></feComponentTransfer></filter></defs><g id="g767f0c93c4_0_2105.11"><defs><linearGradient id="g767f0c93c4_0_2105.12" gradientUnits="userSpaceOnUse" gradientTransform="matrix(8.454386635691822 -9.435406243906908 9.435406243906908 8.454386635691822 0.0 0.0)" spreadMethod="pad" x1="-10.412124780969666" y1="59.812622571967175" x2="-10.412158770255209" y2="69.24802881581286"><stop offset="0.0" stop-color="#1d324a"/><stop offset="1.0" stop-color="#c96b59"/></linearGradient></defs><path fill="url(#g767f0c93c4_0_2105.12)" d="m562.1797 515.12274c7.6119385 0.046203613 13.821594 6.10437 13.869934 13.531494l0.6175537 95.11621l-0.6413574 3.1964111l16.138794 13.813171c3.6386719 3.11438 4.0377197 8.485596 0.8913574 11.99707c-3.1464233 3.5114746 -8.6467285 3.833435 -12.2854 0.7190552l-8.223633 -7.0386353l0.089660645 13.8116455c0.030517578 4.6934814 -3.8443604 8.474487 -8.654602 8.4453125c-4.8102417 -0.029174805 -8.734375 -3.857788 -8.764893 -8.5512085l-0.110839844 -17.074707l-8.704407 11.134949c-2.8995972 3.7091675 -8.361633 4.3845825 -12.199829 1.5085449c-3.8381958 -2.8760376 -4.59906 -8.214355 -1.6994629 -11.923523l15.463257 -19.780884l1.1350708 -0.63671875l-0.616272 -94.904236c-0.04827881 -7.427124 6.083252 -13.410278 13.695068 -13.363953z" fill-rule="evenodd"/></g><g filter="url(#shadowFilter-g767f0c93c4_0_2105.13)"><use xlink:href="#g767f0c93c4_0_2105.13" transform="matrix(1.0 0.0 0.0 1.0 0.0 2.0)"/></g><defs><filter id="shadowFilter-g767f0c93c4_0_2105.13" filterUnits="userSpaceOnUse"><feGaussianBlur in="SourceAlpha" stdDeviation="2.0" result="blur"/><feComponentTransfer in="blur" color-interpolation-filters="sRGB"><feFuncR type="linear" slope="0" intercept="0.0"/><feFuncG type="linear" slope="0" intercept="0.0"/><feFuncB type="linear" slope="0" intercept="0.0"/><feFuncA type="linear" slope="0.5" intercept="0"/></feComponentTransfer></filter></defs><g id="g767f0c93c4_0_2105.13"><defs><linearGradient id="g767f0c93c4_0_2105.14" gradientUnits="userSpaceOnUse" gradientTransform="matrix(10.744898765324617 -1.4755414561352767 1.4755414561352767 10.744898765324617 0.0 0.0)" spreadMethod="pad" x1="27.580227670127645" y1="49.71363814160846" x2="27.580187966959056" y2="60.45853690685973"><stop offset="0.0" stop-color="#1d324a"/><stop offset="1.0" stop-color="#c96b59"/></linearGradient></defs><path fill="url(#g767f0c93c4_0_2105.14)" d="m496.90927 480.60968c5.801422 4.8122864 6.44751 13.252808 1.4431152 18.852722l-64.089905 71.714905l-2.6611328 1.9943848l2.990448 20.488037c0.67422485 4.6192627 -2.6658936 8.897644 -7.4603577 9.55603c-4.7944946 0.65838623 -9.227692 -2.5524902 -9.9019165 -7.171753l-1.5238037 -10.43988l-9.306366 10.413635c-3.1624756 3.5387573 -8.698151 3.9420776 -12.364258 0.901001c-3.6661072 -3.0410767 -4.0742493 -8.375122 -0.9118042 -11.913879l11.505005 -12.87384l-14.228027 2.8867188c-4.7395935 0.96154785 -9.383362 -1.9602661 -10.372253 -6.526062c-0.9888611 -4.565796 2.0516357 -9.046509 6.7912292 -10.008057l25.275818 -5.1280518l1.3019714 0.23498535l63.94702 -71.555084c5.004364 -5.599884 13.764008 -6.2381287 19.565216 -1.4258118z" fill-rule="evenodd"/></g><g filter="url(#shadowFilter-g767f0c93c4_0_2105.15)"><use xlink:href="#g767f0c93c4_0_2105.15" transform="matrix(1.0 0.0 0.0 1.0 0.0 2.0)"/></g><defs><filter id="shadowFilter-g767f0c93c4_0_2105.15" filterUnits="userSpaceOnUse"><feGaussianBlur in="SourceAlpha" stdDeviation="2.0" result="blur"/><feComponentTransfer in="blur" color-interpolation-filters="sRGB"><feFuncR type="linear" slope="0" intercept="0.0"/><feFuncG type="linear" slope="0" intercept="0.0"/><feFuncB type="linear" slope="0" intercept="0.0"/><feFuncA type="linear" slope="0.5" intercept="0"/></feComponentTransfer></filter></defs><g id="g767f0c93c4_0_2105.15"><defs><linearGradient id="g767f0c93c4_0_2105.16" gradientUnits="userSpaceOnUse" gradientTransform="matrix(-3.053682843660718 -10.775364613899256 10.775364613899256 -3.053682843660718 0.0 0.0)" spreadMethod="pad" x1="-70.1108639426074" y1="49.12882234891265" x2="-70.11090788357264" y2="59.904186962722314"><stop offset="0.0" stop-color="#1d324a"/><stop offset="1.0" stop-color="#c96b59"/></linearGradient></defs><path fill="url(#g767f0c93c4_0_2105.16)" d="m714.01263 484.14392c4.2266235 -6.1907043 12.825562 -7.9414062 19.206482 -3.9103699l81.71759 51.624603l2.381836 2.2755737l20.695618 -5.6087646c4.6660767 -1.2645264 9.481018 1.3533325 10.754578 5.847168c1.2734985 4.4938354 -1.4766235 9.161926 -6.1427 10.426453l-10.545654 2.8579712l11.866089 7.496338c4.0322876 2.5473022 5.135742 7.7838135 2.4647827 11.695923c-2.6709595 3.9121094 -8.105164 5.0183105 -12.137451 2.4709473l-14.669434 -9.267273l4.7385254 13.210632c1.5784302 4.400696 -0.8482666 9.231201 -5.420227 10.789246c-4.5718994 1.5581055 -9.557678 -0.7462158 -11.136108 -5.1469116l-8.417786 -23.468445l0.079589844 -1.2758789l-81.5354 -51.50952c-6.3809204 -4.031006 -8.127014 -12.3172 -3.9003296 -18.50769z" fill-rule="evenodd"/></g><g filter="url(#shadowFilter-g767f0c93c4_0_2105.17)"><use xlink:href="#g767f0c93c4_0_2105.17" transform="matrix(1.0 0.0 0.0 1.0 0.0 2.0)"/></g><defs><filter id="shadowFilter-g767f0c93c4_0_2105.17" filterUnits="userSpaceOnUse"><feGaussianBlur in="SourceAlpha" stdDeviation="2.0" result="blur"/><feComponentTransfer in="blur" color-interpolation-filters="sRGB"><feFuncR type="linear" slope="0" intercept="0.0"/><feFuncG type="linear" slope="0" intercept="0.0"/><feFuncB type="linear" slope="0" intercept="0.0"/><feFuncA type="linear" slope="0.5" intercept="0"/></feComponentTransfer></filter></defs><g id="g767f0c93c4_0_2105.17"><defs><linearGradient id="g767f0c93c4_0_2105.18" gradientUnits="userSpaceOnUse" gradientTransform="matrix(-6.4501537044825 -10.046159511177555 10.046159511177555 -6.4501537044825 0.0 0.0)" spreadMethod="pad" x1="-73.91904384786356" y1="34.42082912174352" x2="-73.91907819908681" y2="44.46698863286235"><stop offset="0.0" stop-color="#1d324a"/><stop offset="1.0" stop-color="#c96b59"/></linearGradient></defs><path fill="url(#g767f0c93c4_0_2105.18)" d="m758.4084 411.9324c2.2347412 -7.1045227 9.958252 -11.171539 17.251099 -9.084106l93.39606 26.734283l2.94812 1.5175781l18.17987 -11.124725c4.098877 -2.5082092 9.477722 -1.3390808 12.014038 2.6113281c2.536377 3.950409 1.2697754 9.186096 -2.8291016 11.694275l-9.263733 5.6687317l13.56189 3.882019c4.6085815 1.3191528 7.199585 6.0281677 5.7873535 10.517761c-1.4122925 4.4895935 -6.293213 7.0596313 -10.901794 5.7404785l-16.76587 -4.799164l8.408936 11.336609c2.8011475 3.7763977 1.8919067 9.077759 -2.0308228 11.840973c-3.9226685 2.763214 -9.373291 1.9418335 -12.174438 -1.8345947l-14.938232 -20.139282l-0.2975464 -1.2442017l-93.18787 -26.674652c-7.2928467 -2.0874634 -11.392883 -9.538971 -9.157959 -16.64331z" fill-rule="evenodd"/></g><g filter="url(#shadowFilter-g767f0c93c4_0_2105.19)"><use xlink:href="#g767f0c93c4_0_2105.19" transform="matrix(1.0 0.0 0.0 1.0 0.0 2.0)"/></g><defs><filter id="shadowFilter-g767f0c93c4_0_2105.19" filterUnits="userSpaceOnUse"><feGaussianBlur in="SourceAlpha" stdDeviation="2.0" result="blur"/><feComponentTransfer in="blur" color-interpolation-filters="sRGB"><feFuncR type="linear" slope="0" intercept="0.0"/><feFuncG type="linear" slope="0" intercept="0.0"/><feFuncB type="linear" slope="0" intercept="0.0"/><feFuncA type="linear" slope="0.5" intercept="0"/></feComponentTransfer></filter></defs><g id="g767f0c93c4_0_2105.19"><defs><linearGradient id="g767f0c93c4_0_2105.20" gradientUnits="userSpaceOnUse" gradientTransform="matrix(10.496074090746164 3.657189197003765 -3.657189197003765 10.496074090746164 0.0 0.0)" spreadMethod="pad" x1="39.27993220469045" y1="21.409616920787904" x2="39.27989530806271" y2="31.90569101146922"><stop offset="0.0" stop-color="#1d324a"/><stop offset="1.0" stop-color="#c96b59"/></linearGradient></defs><path fill="url(#g767f0c93c4_0_2105.20)" d="m454.44092 415.1794c2.8424072 6.8812866 -0.60961914 14.636444 -7.710388 17.3219l-90.93729 34.39041l-3.3070374 0.5585327l-7.120056 19.468292c-1.6052856 4.3893433 -6.602417 6.6598206 -11.1614685 5.071289c-4.5590515 -1.588501 -6.953491 -6.4344788 -5.3482056 -10.823822l3.6281128 -9.920258l-13.204834 4.9937744c-4.4872437 1.6970215 -9.580933 -0.4526062 -11.377136 -4.8011475c-1.7962036 -4.3485107 0.385437 -9.249359 4.8726807 -10.946381l16.324493 -6.1735535l-13.974091 -3.8893127c-4.6549377 -1.2956543 -7.373657 -5.9813843 -6.0724792 -10.465912c1.3012085 -4.484497 6.1295776 -7.0695496 10.784546 -5.7738953l24.824585 6.909363l1.0407715 0.7972107l90.73453 -34.31378c7.1007996 -2.6854553 15.161041 0.71606445 18.003265 7.59729z" fill-rule="evenodd"/></g><g filter="url(#shadowFilter-g767f0c93c4_0_2105.21)"><use xlink:href="#g767f0c93c4_0_2105.21" transform="matrix(1.0 0.0 0.0 1.0 0.0 2.0)"/></g><defs><filter id="shadowFilter-g767f0c93c4_0_2105.21" filterUnits="userSpaceOnUse"><feGaussianBlur in="SourceAlpha" stdDeviation="2.0" result="blur"/><feComponentTransfer in="blur" color-interpolation-filters="sRGB"><feFuncR type="linear" slope="0" intercept="0.0"/><feFuncG type="linear" slope="0" intercept="0.0"/><feFuncB type="linear" slope="0" intercept="0.0"/><feFuncA type="linear" slope="0.5" intercept="0"/></feComponentTransfer></filter></defs><g id="g767f0c93c4_0_2105.21"><defs><radialGradient id="g767f0c93c4_0_2105.22" gradientUnits="userSpaceOnUse" gradientTransform="matrix(24.69065594747933 -9.65291835995637 -9.65291835995637 -24.69065594747933 0.0 0.0)" spreadMethod="pad" cx="25.570762080462647" cy="-11.41790368282648" fx="25.570762080462647" fy="-11.41790368282648" r="24.690656661987305"><stop offset="0.0" stop-color="#ffb4ad"/><stop offset="0.73" stop-color="#c96b59"/><stop offset="1.0" stop-color="#1d324a"/></radialGradient></defs><path fill="url(#g767f0c93c4_0_2105.22)" d="m622.0844 81.79839l-14.011047 56.2938l4.5386353 -0.43319702l48.71161 -34.315666l-25.515137 35.129234l21.14441 1.5318146c88.91107 14.114395 158.70868 79.14221 175.69348 163.00658l0.9225464 9.915436l26.540588 25.349426l-23.47522 -10.590973l13.90564 64.83829l-16.457214 -25.909943l-2.5403442 21.388428c-21.907593 96.32437 -112.176575 169.63895 -219.24475 170.88101c-107.06818 1.2420654 -195.45914 -70.00018 -214.87064 -165.84518l-1.961792 -21.084137l-16.16565 26.359161l13.299988 -63.473846l-15.52002 13.473145l20.98822 -36.363007l0.4635315 -3.902069c19.169067 -84.283676 90.67737 -150.95064 179.98224 -167.13245l4.602112 -0.4393158z" fill-rule="evenodd"/></g><g filter="url(#shadowFilter-g767f0c93c4_0_2105.23)"><use xlink:href="#g767f0c93c4_0_2105.23" transform="matrix(1.0 0.0 0.0 1.0 0.0026246719160104987 0.0)"/></g><defs><filter id="shadowFilter-g767f0c93c4_0_2105.23" filterUnits="userSpaceOnUse"><feGaussianBlur in="SourceAlpha" stdDeviation="2.2222223" result="blur"/><feComponentTransfer in="blur" color-interpolation-filters="sRGB"><feFuncR type="linear" slope="0" intercept="0.0"/><feFuncG type="linear" slope="0" intercept="0.0"/><feFuncB type="linear" slope="0" intercept="0.0"/><feFuncA type="linear" slope="0.2667" intercept="0"/></feComponentTransfer></filter></defs><g id="g767f0c93c4_0_2105.23"><defs><linearGradient id="g767f0c93c4_0_2105.24" gradientUnits="userSpaceOnUse" gradientTransform="matrix(-15.491383154857703 0.0 0.0 15.491383154857703 0.0 0.0)" spreadMethod="pad" x1="-57.25128918175633" y1="20.100440974008947" x2="-46.29286454280404" y2="31.050138754450767"><stop offset="0.0" stop-color="#cfcfd2"/><stop offset="1.0" stop-color="#ffffff"/></linearGradient></defs><path fill="url(#g767f0c93c4_0_2105.24)" d="m807.4783 311.32037l0 0c0 -43.86429 -40.41339 -79.42331 -90.26587 -79.42331l0 0c-49.85254 0 -90.26593 35.55902 -90.26593 79.42331l0 0c0 43.86429 40.41339 79.42334 90.26593 79.42334l0 0c49.852478 0 90.26587 -35.55905 90.26587 -79.42334z" fill-rule="evenodd"/></g><g filter="url(#shadowFilter-g767f0c93c4_0_2105.25)"><use xlink:href="#g767f0c93c4_0_2105.25" transform="matrix(1.0 0.0 0.0 1.0 0.0 2.0)"/></g><defs><filter id="shadowFilter-g767f0c93c4_0_2105.25" filterUnits="userSpaceOnUse"><feGaussianBlur in="SourceAlpha" stdDeviation="2.0" result="blur"/><feComponentTransfer in="blur" color-interpolation-filters="sRGB"><feFuncR type="linear" slope="0" intercept="0.0"/><feFuncG type="linear" slope="0" intercept="0.0"/><feFuncB type="linear" slope="0" intercept="0.0"/><feFuncA type="linear" slope="0.5" intercept="0"/></feComponentTransfer></filter></defs><g id="g767f0c93c4_0_2105.25"><defs><linearGradient id="g767f0c93c4_0_2105.26" gradientUnits="userSpaceOnUse" gradientTransform="matrix(11.465989567825627 0.0 0.0 11.465989567825627 0.0 0.0)" spreadMethod="pad" x1="56.179180136377695" y1="21.668388463677157" x2="56.176844545935666" y2="33.134377793626115"><stop offset="0.0" stop-color="#1d324a"/><stop offset="0.1" stop-color="#22384f" stop-opacity="0.94509804"/><stop offset="0.2" stop-color="#273f55" stop-opacity="0.8901961"/><stop offset="0.3" stop-color="#2f475c" stop-opacity="0.8352941"/><stop offset="0.4" stop-color="#365164" stop-opacity="0.78039217"/><stop offset="0.5" stop-color="#3f5a6e" stop-opacity="0.7294118"/><stop offset="0.6" stop-color="#496678" stop-opacity="0.6745098"/><stop offset="0.7" stop-color="#547684" stop-opacity="0.61960787"/><stop offset="0.8" stop-color="#638793" stop-opacity="0.5647059"/><stop offset="0.90000004" stop-color="#749ba5" stop-opacity="0.50980395"/><stop offset="1.0" stop-color="#8ab5bb" stop-opacity="0.45882353"/></linearGradient></defs><path fill="url(#g767f0c93c4_0_2105.26)" d="m644.1499 314.19843l0 0c0 -36.296143 31.780396 -65.72 70.98352 -65.72l0 0c39.203125 0 70.98352 29.423859 70.98352 65.72l0 0c0 36.296143 -31.780396 65.72 -70.98352 65.72l0 0c-39.203125 0 -70.98352 -29.423859 -70.98352 -65.72z" fill-rule="evenodd"/></g><defs><radialGradient id="g767f0c93c4_0_2105.27" gradientUnits="userSpaceOnUse" gradientTransform="matrix(-8.542548946976128 0.0 0.0 8.542548946976128 0.0 0.0)" spreadMethod="pad" cx="-83.63469208499505" cy="36.80601120499321" fx="-83.63469208499505" fy="36.80601120499321" r="8.542549133300781"><stop offset="0.0" stop-color="#7f7f7f"/><stop offset="0.29" stop-color="#000000"/><stop offset="1.0" stop-color="#000000"/></radialGradient></defs><path fill="url(#g767f0c93c4_0_2105.27)" d="m768.5004 314.41714l0 0c0 -27.080536 -24.197693 -49.03363 -54.046997 -49.03363l0 0c-29.849304 0 -54.046936 21.953094 -54.046936 49.03363l0 0c0 27.080536 24.197632 49.03366 54.046936 49.03366l0 0c29.849304 0 54.046997 -21.953125 54.046997 -49.03366z" fill-rule="evenodd"/><g filter="url(#shadowFilter-g767f0c93c4_0_2105.28)"><use xlink:href="#g767f0c93c4_0_2105.28" transform="matrix(1.0 0.0 0.0 1.0 0.0 2.0)"/></g><defs><filter id="shadowFilter-g767f0c93c4_0_2105.28" filterUnits="userSpaceOnUse"><feGaussianBlur in="SourceAlpha" stdDeviation="2.0" result="blur"/><feComponentTransfer in="blur" color-interpolation-filters="sRGB"><feFuncR type="linear" slope="0" intercept="0.0"/><feFuncG type="linear" slope="0" intercept="0.0"/><feFuncB type="linear" slope="0" intercept="0.0"/><feFuncA type="linear" slope="0.5" intercept="0"/></feComponentTransfer></filter></defs><g id="g767f0c93c4_0_2105.28"><defs><linearGradient id="g767f0c93c4_0_2105.29" gradientUnits="userSpaceOnUse" gradientTransform="matrix(-8.748108095071018 0.0 0.0 8.748108095071018 0.0 0.0)" spreadMethod="pad" x1="-90.52548809902592" y1="32.94049080255077" x2="-84.33717969847582" y2="39.12387453500084"><stop offset="0.0" stop-color="#cfcfd2"/><stop offset="1.0" stop-color="#ffffff"/></linearGradient></defs><path fill="url(#g767f0c93c4_0_2105.29)" d="m766.2913 288.14658l0 0c0 -14.158081 -12.749939 -25.635468 -28.477844 -25.635468l0 0c-15.727905 0 -28.477905 11.477386 -28.477905 25.635468l0 0c0 14.158081 12.75 25.635468 28.477905 25.635468l0 0c15.727905 0 28.477844 -11.477386 28.477844 -25.635468z" fill-rule="evenodd"/></g><g filter="url(#shadowFilter-g767f0c93c4_0_2105.30)"><use xlink:href="#g767f0c93c4_0_2105.30" transform="matrix(1.0 0.0 0.0 1.0 0.0 2.0)"/></g><defs><filter id="shadowFilter-g767f0c93c4_0_2105.30" filterUnits="userSpaceOnUse"><feGaussianBlur in="SourceAlpha" stdDeviation="2.0" result="blur"/><feComponentTransfer in="blur" color-interpolation-filters="sRGB"><feFuncR type="linear" slope="0" intercept="0.0"/><feFuncG type="linear" slope="0" intercept="0.0"/><feFuncB type="linear" slope="0" intercept="0.0"/><feFuncA type="linear" slope="0.5" intercept="0"/></feComponentTransfer></filter></defs><g id="g767f0c93c4_0_2105.30"><defs><linearGradient id="g767f0c93c4_0_2105.31" gradientUnits="userSpaceOnUse" gradientTransform="matrix(-5.920128844702668 0.0 0.0 5.920128844702668 0.0 0.0)" spreadMethod="pad" x1="-120.874220824839" y1="56.988791356238295" x2="-116.68639188952372" y2="61.17328826105454"><stop offset="0.0" stop-color="#cfcfd2"/><stop offset="1.0" stop-color="#ffffff"/></linearGradient></defs><path fill="url(#g767f0c93c4_0_2105.31)" d="m703.0063 337.37097l0 0c0 -6.950348 -5.4612427 -12.584686 -12.198059 -12.584686l0 0c-3.2351685 0 -6.3377686 1.3258667 -8.625366 3.6859741c-2.2875977 2.360077 -3.572754 5.561035 -3.572754 8.898712l0 0c0 6.9503174 5.4613037 12.584686 12.19812 12.584686l0 0c6.7368164 0 12.198059 -5.634369 12.198059 -12.584686z" fill-rule="evenodd"/></g><g filter="url(#shadowFilter-g767f0c93c4_0_2105.32)"><use xlink:href="#g767f0c93c4_0_2105.32" transform="matrix(1.0 0.0 0.0 1.0 0.0 2.0)"/></g><defs><filter id="shadowFilter-g767f0c93c4_0_2105.32" filterUnits="userSpaceOnUse"><feGaussianBlur in="SourceAlpha" stdDeviation="2.0" result="blur"/><feComponentTransfer in="blur" color-interpolation-filters="sRGB"><feFuncR type="linear" slope="0" intercept="0.0"/><feFuncG type="linear" slope="0" intercept="0.0"/><feFuncB type="linear" slope="0" intercept="0.0"/><feFuncA type="linear" slope="0.5" intercept="0"/></feComponentTransfer></filter></defs><g id="g767f0c93c4_0_2105.32"><defs><linearGradient id="g767f0c93c4_0_2105.33" gradientUnits="userSpaceOnUse" gradientTransform="matrix(-5.766670390874455 2.1254072370975017 -2.1254072370975017 -5.766670390874455 0.0 0.0)" spreadMethod="pad" x1="-80.04956984808618" y1="-103.70558860723129" x2="-75.97029359608713" y2="-99.62956203017555"><stop offset="0.0" stop-color="#cfcfd2"/><stop offset="1.0" stop-color="#ffffff"/></linearGradient></defs><path fill="url(#g767f0c93c4_0_2105.33)" d="m663.55255 419.379l3.1205444 29.53717l-23.134949 -22.160522z" fill-rule="evenodd"/></g><g filter="url(#shadowFilter-g767f0c93c4_0_2105.34)"><use xlink:href="#g767f0c93c4_0_2105.34" transform="matrix(1.0 0.0 0.0 1.0 0.0 2.0)"/></g><defs><filter id="shadowFilter-g767f0c93c4_0_2105.34" filterUnits="userSpaceOnUse"><feGaussianBlur in="SourceAlpha" stdDeviation="2.0" result="blur"/><feComponentTransfer in="blur" color-interpolation-filters="sRGB"><feFuncR type="linear" slope="0" intercept="0.0"/><feFuncG type="linear" slope="0" intercept="0.0"/><feFuncB type="linear" slope="0" intercept="0.0"/><feFuncA type="linear" slope="0.5" intercept="0"/></feComponentTransfer></filter></defs><g id="g767f0c93c4_0_2105.34"><defs><linearGradient id="g767f0c93c4_0_2105.35" gradientUnits="userSpaceOnUse" gradientTransform="matrix(-5.7541477823170535 -1.8466074899950533 1.8466074899950533 -5.7541477823170535 0.0 0.0)" spreadMethod="pad" x1="-118.31096967533313" y1="-39.27468926718975" x2="-114.24054778087104" y2="-35.207517977235526"><stop offset="0.0" stop-color="#cfcfd2"/><stop offset="1.0" stop-color="#ffffff"/></linearGradient></defs><path fill="url(#g767f0c93c4_0_2105.35)" d="m599.31696 427.0997l-21.090454 22.251953l0.57385254 -28.83609z" fill-rule="evenodd"/></g><g filter="url(#shadowFilter-g767f0c93c4_0_2105.36)"><use xlink:href="#g767f0c93c4_0_2105.36" transform="matrix(1.0 0.0 0.0 1.0 0.0 2.0)"/></g><defs><filter id="shadowFilter-g767f0c93c4_0_2105.36" filterUnits="userSpaceOnUse"><feGaussianBlur in="SourceAlpha" stdDeviation="2.0" result="blur"/><feComponentTransfer in="blur" color-interpolation-filters="sRGB"><feFuncR type="linear" slope="0" intercept="0.0"/><feFuncG type="linear" slope="0" intercept="0.0"/><feFuncB type="linear" slope="0" intercept="0.0"/><feFuncA type="linear" slope="0.5" intercept="0"/></feComponentTransfer></filter></defs><g id="g767f0c93c4_0_2105.36"><defs><radialGradient id="g767f0c93c4_0_2105.37" gradientUnits="userSpaceOnUse" gradientTransform="matrix(-6.156681323739281 0.0 0.0 6.156681323739281 0.0 0.0)" spreadMethod="pad" cx="-100.63279046299115" cy="63.690116659958164" fx="-100.63279046299115" fy="63.690116659958164" r="6.156681537628174"><stop offset="0.0" stop-color="#3a3838"/><stop offset="0.86" stop-color="#000000"/><stop offset="1.0" stop-color="#000000"/></radialGradient></defs><path fill="url(#g767f0c93c4_0_2105.37)" d="m654.8274 387.78143c-3.071167 -3.4672241 -23.2146 -8.0672 -34.8219 -8.34436c-11.607239 -0.27716064 -30.51001 3.3804626 -34.82184 6.6814575c-4.3118896 3.3009644 2.6688232 9.571594 8.95105 11.461182c6.2822266 1.8895569 18.487793 6.749756 25.870789 7.1931458c7.3830566 0.4434204 12.350159 -2.5321045 18.427246 -4.532501c6.0770264 -2.0004272 19.46582 -8.99173 16.394653 -12.458923z" fill-rule="evenodd"/></g><path fill="#924d40" d="m725.323 413.10245l0 0c0 -5.7070007 6.190979 -10.333435 13.827881 -10.333435l0 0c7.636963 0 13.827942 4.6264343 13.827942 10.333435l0 0c0 5.7070007 -6.190979 10.333466 -13.827942 10.333466l0 0c-7.636902 0 -13.827881 -4.626465 -13.827881 -10.333466z" fill-rule="evenodd"/><path fill="#924d40" d="m478.7464 412.25818l0 0c0 -5.7070312 6.1909485 -10.333466 13.827881 -10.333466l0 0c7.636963 0 13.827911 4.6264343 13.827911 10.333466l0 0c0 5.7070007 -6.1909485 10.333435 -13.827911 10.333435l0 0c-7.6369324 0 -13.827881 -4.6264343 -13.827881 -10.333435z" fill-rule="evenodd"/><path fill="#924d40" d="m509.93564 428.11777l0 0c0 -3.5858154 3.6125793 -6.4927063 8.068939 -6.4927063l0 0c4.456299 0 8.068909 2.9068909 8.068909 6.4927063l0 0c0 3.5858154 -3.6126099 6.4927063 -8.068909 6.4927063l0 0c-4.45636 0 -8.068939 -2.9068909 -8.068939 -6.4927063z" fill-rule="evenodd"/><path fill="#924d40" d="m703.56665 426.87912l0 0c0 -3.5858154 3.6126099 -6.4927063 8.068909 -6.4927063l0 0c4.45636 0 8.068909 2.9068909 8.068909 6.4927063l0 0c0 3.5858154 -3.6125488 6.492676 -8.068909 6.492676l0 0c-4.456299 0 -8.068909 -2.9068604 -8.068909 -6.492676z" fill-rule="evenodd"/><path fill="#924d40" d="m755.39636 429.55075l0 0c0 -3.5858154 3.6125488 -6.4927063 8.068909 -6.4927063l0 0c4.45636 0 8.068909 2.9068909 8.068909 6.4927063l0 0c0 3.5858154 -3.6125488 6.492676 -8.068909 6.492676l0 0c-4.45636 0 -8.068909 -2.9068604 -8.068909 -6.492676z" fill-rule="evenodd"/><path fill="#924d40" d="m460.1301 430.14627l0 0c0 -3.5858154 3.6125793 -6.4927063 8.068939 -6.4927063l0 0c4.4563293 0 8.068909 2.9068909 8.068909 6.4927063l0 0c0 3.5858154 -3.6125793 6.492676 -8.068909 6.492676l0 0c-4.45636 0 -8.068939 -2.9068604 -8.068939 -6.492676z" fill-rule="evenodd"/><g filter="url(#shadowFilter-g767f0c93c4_0_2105.38)"><use xlink:href="#g767f0c93c4_0_2105.38" transform="matrix(1.0 0.0 0.0 1.0 0.0026246719160104987 0.0)"/></g><defs><filter id="shadowFilter-g767f0c93c4_0_2105.38" filterUnits="userSpaceOnUse"><feGaussianBlur in="SourceAlpha" stdDeviation="2.2222223" result="blur"/><feComponentTransfer in="blur" color-interpolation-filters="sRGB"><feFuncR type="linear" slope="0" intercept="0.0"/><feFuncG type="linear" slope="0" intercept="0.0"/><feFuncB type="linear" slope="0" intercept="0.0"/><feFuncA type="linear" slope="0.2667" intercept="0"/></feComponentTransfer></filter></defs><g id="g767f0c93c4_0_2105.38"><defs><linearGradient id="g767f0c93c4_0_2105.39" gradientUnits="userSpaceOnUse" gradientTransform="matrix(-15.49138221851943 0.0 0.0 15.49138221851943 0.0 0.0)" spreadMethod="pad" x1="-44.1845519120866" y1="20.037399136866206" x2="-33.226129258089934" y2="30.987097579135416"><stop offset="0.0" stop-color="#cfcfd2"/><stop offset="1.0" stop-color="#ffffff"/></linearGradient></defs><path fill="url(#g767f0c93c4_0_2105.39)" d="m605.05646 310.34375l0 0c0 -43.86429 -40.413452 -79.423325 -90.26593 -79.423325l0 0c-49.852478 0 -90.2659 35.559036 -90.2659 79.423325l0 0c0 43.86429 40.41342 79.42334 90.2659 79.42334l0 0c49.852478 0 90.26593 -35.55905 90.26593 -79.42334z" fill-rule="evenodd"/></g><g filter="url(#shadowFilter-g767f0c93c4_0_2105.40)"><use xlink:href="#g767f0c93c4_0_2105.40" transform="matrix(1.0 0.0 0.0 1.0 0.0 2.0)"/></g><defs><filter id="shadowFilter-g767f0c93c4_0_2105.40" filterUnits="userSpaceOnUse"><feGaussianBlur in="SourceAlpha" stdDeviation="2.0" result="blur"/><feComponentTransfer in="blur" color-interpolation-filters="sRGB"><feFuncR type="linear" slope="0" intercept="0.0"/><feFuncG type="linear" slope="0" intercept="0.0"/><feFuncB type="linear" slope="0" intercept="0.0"/><feFuncA type="linear" slope="0.5" intercept="0"/></feComponentTransfer></filter></defs><g id="g767f0c93c4_0_2105.40"><defs><linearGradient id="g767f0c93c4_0_2105.41" gradientUnits="userSpaceOnUse" gradientTransform="matrix(11.465990462002623 0.0 0.0 11.465990462002623 0.0 0.0)" spreadMethod="pad" x1="38.525067751194605" y1="21.583209263536673" x2="38.522732160934716" y2="33.04919948766268"><stop offset="0.0" stop-color="#1d324a"/><stop offset="0.1" stop-color="#22384f" stop-opacity="0.94509804"/><stop offset="0.2" stop-color="#273f55" stop-opacity="0.8901961"/><stop offset="0.3" stop-color="#2f475c" stop-opacity="0.8352941"/><stop offset="0.4" stop-color="#365164" stop-opacity="0.78039217"/><stop offset="0.5" stop-color="#3f5a6e" stop-opacity="0.7294118"/><stop offset="0.6" stop-color="#496678" stop-opacity="0.6745098"/><stop offset="0.7" stop-color="#547684" stop-opacity="0.61960787"/><stop offset="0.8" stop-color="#638793" stop-opacity="0.5647059"/><stop offset="0.90000004" stop-color="#749ba5" stop-opacity="0.50980395"/><stop offset="1.0" stop-color="#8ab5bb" stop-opacity="0.45882353"/></linearGradient></defs><path fill="url(#g767f0c93c4_0_2105.41)" d="m441.72806 313.2218l0 0c0 -36.296173 31.780396 -65.72002 70.98355 -65.72002l0 0c39.203125 0 70.98352 29.423843 70.98352 65.72002l0 0c0 36.296143 -31.780396 65.72 -70.98352 65.72l0 0c-39.203156 0 -70.98355 -29.423859 -70.98355 -65.72z" fill-rule="evenodd"/></g><g filter="url(#shadowFilter-g767f0c93c4_0_2105.42)"><use xlink:href="#g767f0c93c4_0_2105.42" transform="matrix(1.0 0.0 0.0 1.0 0.0 2.0)"/></g><defs><filter id="shadowFilter-g767f0c93c4_0_2105.42" filterUnits="userSpaceOnUse"><feGaussianBlur in="SourceAlpha" stdDeviation="2.0" result="blur"/><feComponentTransfer in="blur" color-interpolation-filters="sRGB"><feFuncR type="linear" slope="0" intercept="0.0"/><feFuncG type="linear" slope="0" intercept="0.0"/><feFuncB type="linear" slope="0" intercept="0.0"/><feFuncA type="linear" slope="0.5" intercept="0"/></feComponentTransfer></filter></defs><g id="g767f0c93c4_0_2105.42"><defs><radialGradient id="g767f0c93c4_0_2105.43" gradientUnits="userSpaceOnUse" gradientTransform="matrix(-8.542548946976128 0.0 0.0 8.542548946976128 0.0 0.0)" spreadMethod="pad" cx="-59.93897399474777" cy="36.69168576381315" fx="-59.93897399474777" fy="36.69168576381315" r="8.542549133300781"><stop offset="0.0" stop-color="#7f7f7f"/><stop offset="0.29" stop-color="#000000"/><stop offset="1.0" stop-color="#000000"/></radialGradient></defs><path fill="url(#g767f0c93c4_0_2105.43)" d="m566.07855 313.44052l0 0c0 -27.080536 -24.197632 -49.03366 -54.046936 -49.03366l0 0c-29.849304 0 -54.046936 21.953125 -54.046936 49.03366l0 0c0 27.080536 24.197632 49.03366 54.046936 49.03366l0 0c29.849304 0 54.046936 -21.953125 54.046936 -49.03366z" fill-rule="evenodd"/></g><g filter="url(#shadowFilter-g767f0c93c4_0_2105.44)"><use xlink:href="#g767f0c93c4_0_2105.44" transform="matrix(1.0 0.0 0.0 1.0 0.0 2.0)"/></g><defs><filter id="shadowFilter-g767f0c93c4_0_2105.44" filterUnits="userSpaceOnUse"><feGaussianBlur in="SourceAlpha" stdDeviation="2.0" result="blur"/><feComponentTransfer in="blur" color-interpolation-filters="sRGB"><feFuncR type="linear" slope="0" intercept="0.0"/><feFuncG type="linear" slope="0" intercept="0.0"/><feFuncB type="linear" slope="0" intercept="0.0"/><feFuncA type="linear" slope="0.5" intercept="0"/></feComponentTransfer></filter></defs><g id="g767f0c93c4_0_2105.44"><defs><linearGradient id="g767f0c93c4_0_2105.45" gradientUnits="userSpaceOnUse" gradientTransform="matrix(-9.081710765509222 0.0 0.0 9.081710765509222 0.0 0.0)" spreadMethod="pad" x1="-64.25833165326088" y1="32.54235230895303" x2="-57.83403699507995" y2="38.96153516763792"><stop offset="0.0" stop-color="#cfcfd2"/><stop offset="1.0" stop-color="#ffffff"/></linearGradient></defs><path fill="url(#g767f0c93c4_0_2105.45)" d="m555.4698 295.51785l0 0c0 -15.5224 -13.527161 -28.105774 -30.213745 -28.105774l0 0c-16.686584 0 -30.213715 12.583374 -30.213715 28.105774l0 0c0 15.5224 13.52713 28.105804 30.213715 28.105804l0 0c16.686584 0 30.213745 -12.583405 30.213745 -28.105804z" fill-rule="evenodd"/></g><g filter="url(#shadowFilter-g767f0c93c4_0_2105.46)"><use xlink:href="#g767f0c93c4_0_2105.46" transform="matrix(1.0 0.0 0.0 1.0 0.0 2.0)"/></g><defs><filter id="shadowFilter-g767f0c93c4_0_2105.46" filterUnits="userSpaceOnUse"><feGaussianBlur in="SourceAlpha" stdDeviation="2.0" result="blur"/><feComponentTransfer in="blur" color-interpolation-filters="sRGB"><feFuncR type="linear" slope="0" intercept="0.0"/><feFuncG type="linear" slope="0" intercept="0.0"/><feFuncB type="linear" slope="0" intercept="0.0"/><feFuncA type="linear" slope="0.5" intercept="0"/></feComponentTransfer></filter></defs><g id="g767f0c93c4_0_2105.46"><defs><linearGradient id="g767f0c93c4_0_2105.47" gradientUnits="userSpaceOnUse" gradientTransform="matrix(-5.920128844702668 0.0 0.0 5.920128844702668 0.0 0.0)" spreadMethod="pad" x1="-86.68209455715993" y1="56.82382467369355" x2="-82.49426562184465" y2="61.00832157850979"><stop offset="0.0" stop-color="#cfcfd2"/><stop offset="1.0" stop-color="#ffffff"/></linearGradient></defs><path fill="url(#g767f0c93c4_0_2105.47)" d="m500.58447 336.39435l0 0c0 -6.950348 -5.461273 -12.584686 -12.19809 -12.584686l0 0c-3.235138 0 -6.3377686 1.3258667 -8.625366 3.6859741c-2.2875671 2.360077 -3.5727234 5.561035 -3.5727234 8.898712l0 0c0 6.9503174 5.461273 12.584656 12.19809 12.584656l0 0c6.7368164 0 12.19809 -5.6343384 12.19809 -12.584656z" fill-rule="evenodd"/></g><defs><linearGradient id="g767f0c93c4_0_2105.48" gradientUnits="userSpaceOnUse" gradientTransform="matrix(7.4976159634853365 0.0 0.0 7.4976159634853365 0.0 0.0)" spreadMethod="pad" x1="79.58505285355774" y1="11.101715571822846" x2="79.58352677791055" y2="18.59933137999835"><stop offset="0.0" stop-color="#ffb4ad"/><stop offset="0.85" stop-color="#c96b59"/><stop offset="1.0" stop-color="#c96b59"/></linearGradient></defs><path fill="url(#g767f0c93c4_0_2105.48)" d="m621.5798 83.24147l-24.881592 56.209167l11.060181 -0.95422363z" fill-rule="evenodd"/><g filter="url(#shadowFilter-g767f0c93c4_0_2105.49)"><use xlink:href="#g767f0c93c4_0_2105.49" transform="matrix(1.0 0.0 0.0 1.0 0.0 2.0)"/></g><defs><filter id="shadowFilter-g767f0c93c4_0_2105.49" filterUnits="userSpaceOnUse"><feGaussianBlur in="SourceAlpha" stdDeviation="2.0" result="blur"/><feComponentTransfer in="blur" color-interpolation-filters="sRGB"><feFuncR type="linear" slope="0" intercept="0.0"/><feFuncG type="linear" slope="0" intercept="0.0"/><feFuncB type="linear" slope="0" intercept="0.0"/><feFuncA type="linear" slope="0.5" intercept="0"/></feComponentTransfer></filter></defs><g id="g767f0c93c4_0_2105.49"><defs><linearGradient id="g767f0c93c4_0_2105.50" gradientUnits="userSpaceOnUse" gradientTransform="matrix(2.2386144580762086 -6.246456471898272 6.246456471898272 2.2386144580762086 0.0 0.0)" spreadMethod="pad" x1="-33.5618057102142" y1="107.1604525609591" x2="-33.56307889029649" y2="113.4069089031048"><stop offset="0.0" stop-color="#ffb4ad"/><stop offset="0.87" stop-color="#ffb4ad"/><stop offset="1.0" stop-color="#fb9195"/></linearGradient></defs><path fill="url(#g767f0c93c4_0_2105.50)" d="m639.136 428.413c4.3048706 8.338837 2.2034912 18.446411 -5.087097 24.469238c-7.2906494 6.022827 -17.879944 6.399048 -25.635437 0.91082764c-7.755493 -5.48822 -10.666016 -15.417755 -7.0460815 -24.038147z" fill-rule="evenodd"/></g><g filter="url(#shadowFilter-g767f0c93c4_0_2105.51)"><use xlink:href="#g767f0c93c4_0_2105.51" transform="matrix(1.0 0.0 0.0 1.0 0.0 2.0)"/></g><defs><filter id="shadowFilter-g767f0c93c4_0_2105.51" filterUnits="userSpaceOnUse"><feGaussianBlur in="SourceAlpha" stdDeviation="2.0" result="blur"/><feComponentTransfer in="blur" color-interpolation-filters="sRGB"><feFuncR type="linear" slope="0" intercept="0.0"/><feFuncG type="linear" slope="0" intercept="0.0"/><feFuncB type="linear" slope="0" intercept="0.0"/><feFuncA type="linear" slope="0.5" intercept="0"/></feComponentTransfer></filter></defs><g id="g767f0c93c4_0_2105.51"><path fill="#000000" fill-opacity="0.0" d="m669.15735 413.33795l0 0c-7.5632324 9.587494 -26.541443 16.032196 -47.997253 16.299164c-21.45575 0.26696777 -41.111633 -5.6970825 -49.71106 -15.083466l48.336365 -10.089081z" fill-rule="evenodd"/><path fill="#000000" fill-opacity="0.0" d="m669.15735 413.33795l0 0c-7.5632324 9.587494 -26.541443 16.032196 -47.997253 16.299164c-21.45575 0.26696777 -41.111633 -5.6970825 -49.71106 -15.083466" fill-rule="evenodd"/><path stroke="#000000" stroke-width="2.0" stroke-miterlimit="800.0" stroke-linecap="butt" d="m669.15735 413.33795l0 0c-7.5632324 9.587494 -26.541443 16.032196 -47.997253 16.299164c-21.45575 0.26696777 -41.111633 -5.6970825 -49.71106 -15.083466" fill-rule="evenodd"/></g><defs><linearGradient id="g767f0c93c4_0_2105.52" gradientUnits="userSpaceOnUse" gradientTransform="matrix(-4.215621329277085 0.003513017941392604 -0.003513017941392604 -4.215621329277085 0.0 0.0)" spreadMethod="pad" x1="-104.28696684203324" y1="-68.83461068965703" x2="-104.28782292524127" y2="-64.61898944730407"><stop offset="0.0" stop-color="#f9cb9c"/><stop offset="1.0" stop-color="#d2b090"/></linearGradient></defs><path fill="url(#g767f0c93c4_0_2105.52)" d="m439.86877 280.9247l0 0c0 4.9053345 -3.9765625 8.885193 -8.881897 8.889282l-20.031494 0.016693115l0 0c-2.3556213 0.001953125 -4.6147766 -0.9319153 -6.2804565 -2.596222c-1.6656799 -1.6642761 -2.6014404 -3.922638 -2.6014404 -6.2782593l0 0l0 0c0 -4.9053345 3.9765625 -8.885223 8.881897 -8.889313l20.031494 -0.016693115c4.9053345 -0.0040893555 8.881897 3.9691772 8.881897 8.874512z" fill-rule="evenodd"/><defs><linearGradient id="g767f0c93c4_0_2105.53" gradientUnits="userSpaceOnUse" gradientTransform="matrix(-4.215621329277085 0.003513017941392604 -0.003513017941392604 -4.215621329277085 0.0 0.0)" spreadMethod="pad" x1="-196.66297562060316" y1="-68.91158521674288" x2="-196.66383170381118" y2="-64.69596397438993"><stop offset="0.0" stop-color="#f9cb9c"/><stop offset="1.0" stop-color="#d2b090"/></linearGradient></defs><path fill="url(#g767f0c93c4_0_2105.53)" d="m829.2913 280.9247l0 0c0 4.9053345 -3.9765625 8.885193 -8.881897 8.889282l-20.031494 0.016693115l0 0c-2.3555908 0.001953125 -4.614746 -0.9319153 -6.2803955 -2.596222c-1.6657104 -1.6642761 -2.6015015 -3.922638 -2.6015015 -6.2782593l0 0l0 0c0 -4.9053345 3.9765625 -8.885223 8.881897 -8.889313l20.031494 -0.016693115c4.9053345 -0.0040893555 8.881897 3.9691772 8.881897 8.874512z" fill-rule="evenodd"/><g filter="url(#shadowFilter-g767f0c93c4_0_2105.54)"><use xlink:href="#g767f0c93c4_0_2105.54" transform="matrix(1.0 0.0 0.0 1.0 -2.91076339761729 13.694066806102361)"/></g><defs><filter id="shadowFilter-g767f0c93c4_0_2105.54" filterUnits="userSpaceOnUse"><feGaussianBlur in="SourceAlpha" stdDeviation="8.0" result="blur"/><feComponentTransfer in="blur" color-interpolation-filters="sRGB"><feFuncR type="linear" slope="0" intercept="0.0"/><feFuncG type="linear" slope="0" intercept="0.0"/><feFuncB type="linear" slope="0" intercept="0.0"/><feFuncA type="linear" slope="0.5" intercept="0"/></feComponentTransfer></filter></defs><g id="g767f0c93c4_0_2105.54"><defs><linearGradient id="g767f0c93c4_0_2105.55" gradientUnits="userSpaceOnUse" gradientTransform="matrix(-4.215621329277085 0.003513017941392604 -0.003513017941392604 -4.215621329277085 0.0 0.0)" spreadMethod="pad" x1="-151.00660863172445" y1="-77.04081516516061" x2="-151.0074647149325" y2="-72.82519392280766"><stop offset="0.0" stop-color="#f9cb9c"/><stop offset="1.0" stop-color="#d2b090"/></linearGradient></defs><path fill="url(#g767f0c93c4_0_2105.55)" d="m636.84985 315.35483l0 0c0 4.9053345 -3.9765625 8.885223 -8.881836 8.889282l-20.031555 0.016693115l0 0c-2.3555908 0.0019836426 -4.614746 -0.9319153 -6.2803955 -2.5961914c-1.6657104 -1.6643066 -2.6014404 -3.9226685 -2.6014404 -6.27829l0 0l0 0c0 -4.9053345 3.9765015 -8.885193 8.881836 -8.889282l20.031555 -0.016693115c4.9052734 -0.0040893555 8.881836 3.9691467 8.881836 8.874481z" fill-rule="evenodd"/></g><g filter="url(#shadowFilter-g767f0c93c4_0_2105.56)"><use xlink:href="#g767f0c93c4_0_2105.56" transform="matrix(1.0 0.0 0.0 1.0 4.69471496421834 8.829476424089567)"/></g><defs><filter id="shadowFilter-g767f0c93c4_0_2105.56" filterUnits="userSpaceOnUse"><feGaussianBlur in="SourceAlpha" stdDeviation="5.0" result="blur"/><feComponentTransfer in="blur" color-interpolation-filters="sRGB"><feFuncR type="linear" slope="0" intercept="0.0"/><feFuncG type="linear" slope="0" intercept="0.0"/><feFuncB type="linear" slope="0" intercept="0.0"/><feFuncA type="linear" slope="0.5" intercept="0"/></feComponentTransfer></filter></defs><g id="g767f0c93c4_0_2105.56"><defs><linearGradient id="g767f0c93c4_0_2105.57" gradientUnits="userSpaceOnUse" gradientTransform="matrix(13.266767465030247 0.0 0.0 13.266767465030247 0.0 0.0)" spreadMethod="pad" x1="31.765674843789004" y1="16.820844987100823" x2="31.762973117392765" y2="30.087612177032952"><stop offset="0.0" stop-color="#f9cb9c"/><stop offset="1.0" stop-color="#d2b090"/></linearGradient></defs><path fill="url(#g767f0c93c4_0_2105.57)" d="m421.42783 311.1811l0 0c0 -48.592346 42.458923 -87.98424 94.834625 -87.98424l0 0c52.375732 0 94.834656 39.39189 94.834656 87.98424l0 0c0 48.592377 -42.458923 87.98425 -94.834656 87.98425l0 0c-52.3757 0 -94.834625 -39.391876 -94.834625 -87.98425z" fill-rule="evenodd"/></g><g filter="url(#shadowFilter-g767f0c93c4_0_2105.58)"><use xlink:href="#g767f0c93c4_0_2105.58" transform="matrix(1.0 0.0 0.0 1.0 0.0 9.0)"/></g><defs><filter id="shadowFilter-g767f0c93c4_0_2105.58" filterUnits="userSpaceOnUse"><feGaussianBlur in="SourceAlpha" stdDeviation="5.0" result="blur"/><feComponentTransfer in="blur" color-interpolation-filters="sRGB"><feFuncR type="linear" slope="0" intercept="0.0"/><feFuncG type="linear" slope="0" intercept="0.0"/><feFuncB type="linear" slope="0" intercept="0.0"/><feFuncA type="linear" slope="0.5" intercept="0"/></feComponentTransfer></filter></defs><g id="g767f0c93c4_0_2105.58"><defs><linearGradient id="g767f0c93c4_0_2105.59" gradientUnits="userSpaceOnUse" gradientTransform="matrix(13.266767465030247 0.0 0.0 13.266767465030247 0.0 0.0)" spreadMethod="pad" x1="46.97368654577017" y1="16.820844987100823" x2="46.97098481937393" y2="30.087612177032952"><stop offset="0.0" stop-color="#f9cb9c"/><stop offset="1.0" stop-color="#d2b090"/></linearGradient></defs><path fill="url(#g767f0c93c4_0_2105.59)" d="m623.18896 311.1811l0 0c0 -48.592346 42.458923 -87.98424 94.834656 -87.98424l0 0c52.375732 0 94.834656 39.39189 94.834656 87.98424l0 0c0 48.592377 -42.458923 87.98425 -94.834656 87.98425l0 0c-52.375732 0 -94.834656 -39.391876 -94.834656 -87.98425z" fill-rule="evenodd"/></g><defs><linearGradient id="g767f0c93c4_0_2105.60" gradientUnits="userSpaceOnUse" gradientTransform="matrix(14.594540793216053 0.0 0.0 14.594540793216053 0.0 0.0)" spreadMethod="pad" x1="38.83018105514801" y1="21.321728460179347" x2="49.150062255888756" y2="31.641644785782255"><stop offset="0.0" stop-color="#434343"/><stop offset="0.35" stop-color="#000000"/><stop offset="0.63" stop-color="#666666"/><stop offset="1.0" stop-color="#434343"/></linearGradient></defs><path fill="url(#g767f0c93c4_0_2105.60)" d="m639.81104 311.1811l0 0c0 -40.37332 34.703186 -73.102356 77.51178 -73.102356l0 0c20.557434 0 40.27289 7.7018433 54.809143 21.411194c14.536316 13.709351 22.702698 32.303223 22.702698 51.691162l0 0c0 40.37332 -34.703247 73.10239 -77.51184 73.10239l0 0c-42.808594 0 -77.51178 -32.729065 -77.51178 -73.10239z" fill-rule="evenodd"/><defs><linearGradient id="g767f0c93c4_0_2105.61" gradientUnits="userSpaceOnUse" gradientTransform="matrix(14.594539799736651 0.0 0.0 14.594539799736651 0.0 0.0)" spreadMethod="pad" x1="25.052154910880297" y1="21.321729911591888" x2="35.37203400412675" y2="31.64164693969206"><stop offset="0.0" stop-color="#434343"/><stop offset="0.35" stop-color="#000000"/><stop offset="0.63" stop-color="#666666"/><stop offset="1.0" stop-color="#434343"/></linearGradient></defs><path fill="url(#g767f0c93c4_0_2105.61)" d="m438.72702 311.1811l0 0c0 -40.37332 34.703247 -73.102356 77.51181 -73.102356l0 0c20.557434 0 40.272827 7.7018433 54.809143 21.411194c14.536255 13.709351 22.702698 32.303223 22.702698 51.691162l0 0c0 40.37332 -34.703247 73.10239 -77.51184 73.10239l0 0c-42.808563 0 -77.51181 -32.729065 -77.51181 -73.10239z" fill-rule="evenodd"/></g></svg>