<svg version="1.1" viewBox="0.0 0.0 1280.0 720.0" fill="none" stroke="none" stroke-linecap="square" stroke-miterlimit="10" xmlns:xlink="http://www.w3.org/1999/xlink" xmlns="http://www.w3.org/2000/svg"><clipPath id="g767f0c93c4_0_1549.0"><path d="m0 0l1280.0 0l0 720.0l-1280.0 0l0 -720.0z" clip-rule="nonzero"/></clipPath><g clip-path="url(#g767f0c93c4_0_1549.0)"><path fill="#000000" fill-opacity="0.0" d="m0 0l1280.0 0l0 720.0l-1280.0 0z" fill-rule="evenodd"/><g filter="url(#shadowFilter-g767f0c93c4_0_1549.1)"><use xlink:href="#g767f0c93c4_0_1549.1" transform="matrix(1.0 0.0 0.0 1.0 0.0 2.0)"/></g><defs><filter id="shadowFilter-g767f0c93c4_0_1549.1" filterUnits="userSpaceOnUse"><feGaussianBlur in="SourceAlpha" stdDeviation="2.0" result="blur"/><feComponentTransfer in="blur" color-interpolation-filters="sRGB"><feFuncR type="linear" slope="0" intercept="0.0"/><feFuncG type="linear" slope="0" intercept="0.0"/><feFuncB type="linear" slope="0" intercept="0.0"/><feFuncA type="linear" slope="0.5" intercept="0"/></feComponentTransfer></filter></defs><g id="g767f0c93c4_0_1549.1"><defs><linearGradient id="g767f0c93c4_0_1549.2" gradientUnits="userSpaceOnUse" gradientTransform="matrix(9.598455032701802 6.107907291450837 -6.107907291450837 9.598455032701802 0.0 0.0)" spreadMethod="pad" x1="57.81718665887016" y1="-28.054537811936434" x2="57.81715421680011" y2="-18.456082779289456"><stop offset="0.0" stop-color="#fb9195"/><stop offset="0.51" stop-color="#c96b59"/><stop offset="0.97" stop-color="#1d324a"/><stop offset="1.0" stop-color="#1d324a"/></linearGradient></defs><path fill="url(#g767f0c93c4_0_1549.2)" d="m667.6837 175.99214l125.055115 -49.85827l12.047241 137.10236z" fill-rule="evenodd"/></g><g filter="url(#shadowFilter-g767f0c93c4_0_1549.3)"><use xlink:href="#g767f0c93c4_0_1549.3" transform="matrix(1.0 0.0 0.0 1.0 0.0 2.0)"/></g><defs><filter id="shadowFilter-g767f0c93c4_0_1549.3" filterUnits="userSpaceOnUse"><feGaussianBlur in="SourceAlpha" stdDeviation="2.0" result="blur"/><feComponentTransfer in="blur" color-interpolation-filters="sRGB"><feFuncR type="linear" slope="0" intercept="0.0"/><feFuncG type="linear" slope="0" intercept="0.0"/><feFuncB type="linear" slope="0" intercept="0.0"/><feFuncA type="linear" slope="0.5" intercept="0"/></feComponentTransfer></filter></defs><g id="g767f0c93c4_0_1549.3"><defs><linearGradient id="g767f0c93c4_0_1549.4" gradientUnits="userSpaceOnUse" gradientTransform="matrix(10.393744583884816 -6.055022485928517 6.055022485928517 10.393744583884816 0.0 0.0)" spreadMethod="pad" x1="18.907409263205455" y1="26.39112103872006" x2="18.907371760410182" y2="36.78486562253721"><stop offset="0.0" stop-color="#fb9195"/><stop offset="0.51" stop-color="#c96b59"/><stop offset="0.97" stop-color="#1d324a"/><stop offset="1.0" stop-color="#1d324a"/></linearGradient></defs><path fill="url(#g767f0c93c4_0_1549.4)" d="m419.25195 267.84772l9.941742 -150.48416l143.6016 61.03533z" fill-rule="evenodd"/></g><g filter="url(#shadowFilter-g767f0c93c4_0_1549.5)"><use xlink:href="#g767f0c93c4_0_1549.5" transform="matrix(1.0 0.0 0.0 1.0 0.0 2.0)"/></g><defs><filter id="shadowFilter-g767f0c93c4_0_1549.5" filterUnits="userSpaceOnUse"><feGaussianBlur in="SourceAlpha" stdDeviation="2.0" result="blur"/><feComponentTransfer in="blur" color-interpolation-filters="sRGB"><feFuncR type="linear" slope="0" intercept="0.0"/><feFuncG type="linear" slope="0" intercept="0.0"/><feFuncB type="linear" slope="0" intercept="0.0"/><feFuncA type="linear" slope="0.5" intercept="0"/></feComponentTransfer></filter></defs><g id="g767f0c93c4_0_1549.5"><path fill="#ffffff" d="m599.3036 427.0886l-21.09021 22.2518l0.57385254 -28.835876z" fill-rule="evenodd"/></g><g filter="url(#shadowFilter-g767f0c93c4_0_1549.6)"><use xlink:href="#g767f0c93c4_0_1549.6" transform="matrix(1.0 0.0 0.0 1.0 0.0 2.0)"/></g><defs><filter id="shadowFilter-g767f0c93c4_0_1549.6" filterUnits="userSpaceOnUse"><feGaussianBlur in="SourceAlpha" stdDeviation="2.0" result="blur"/><feComponentTransfer in="blur" color-interpolation-filters="sRGB"><feFuncR type="linear" slope="0" intercept="0.0"/><feFuncG type="linear" slope="0" intercept="0.0"/><feFuncB type="linear" slope="0" intercept="0.0"/><feFuncA type="linear" slope="0.5" intercept="0"/></feComponentTransfer></filter></defs><g id="g767f0c93c4_0_1549.6"><path fill="#000000" fill-opacity="0.0" d="m669.1412 413.32486c-7.5649414 9.585358 -26.544067 16.028473 -48.00061 16.29541c-21.456482 0.26696777 -41.113342 -5.695465 -49.71472 -15.079712l48.33966 -10.089752z" fill-rule="evenodd"/><path fill="#000000" fill-opacity="0.0" d="m669.1412 413.32486c-7.5649414 9.585358 -26.544067 16.028473 -48.00061 16.29541c-21.456482 0.26696777 -41.113342 -5.695465 -49.71472 -15.079712" fill-rule="evenodd"/><path stroke="#000000" stroke-width="2.0" stroke-miterlimit="800.0" stroke-linecap="butt" d="m669.1412 413.32486c-7.5649414 9.585358 -26.544067 16.028473 -48.00061 16.29541c-21.456482 0.26696777 -41.113342 -5.695465 -49.71472 -15.079712" fill-rule="evenodd"/></g><g filter="url(#shadowFilter-g767f0c93c4_0_1549.7)"><use xlink:href="#g767f0c93c4_0_1549.7" transform="matrix(1.0 0.0 0.0 1.0 0.0 2.0)"/></g><defs><filter id="shadowFilter-g767f0c93c4_0_1549.7" filterUnits="userSpaceOnUse"><feGaussianBlur in="SourceAlpha" stdDeviation="2.0" result="blur"/><feComponentTransfer in="blur" color-interpolation-filters="sRGB"><feFuncR type="linear" slope="0" intercept="0.0"/><feFuncG type="linear" slope="0" intercept="0.0"/><feFuncB type="linear" slope="0" intercept="0.0"/><feFuncA type="linear" slope="0.5" intercept="0"/></feComponentTransfer></filter></defs><g id="g767f0c93c4_0_1549.7"><path fill="#ffffff" d="m663.5383 419.36795l3.1204834 29.536957l-23.134705 -22.16034z" fill-rule="evenodd"/></g><g filter="url(#shadowFilter-g767f0c93c4_0_1549.8)"><use xlink:href="#g767f0c93c4_0_1549.8" transform="matrix(1.0 0.0 0.0 1.0 0.0 2.0)"/></g><defs><filter id="shadowFilter-g767f0c93c4_0_1549.8" filterUnits="userSpaceOnUse"><feGaussianBlur in="SourceAlpha" stdDeviation="2.0" result="blur"/><feComponentTransfer in="blur" color-interpolation-filters="sRGB"><feFuncR type="linear" slope="0" intercept="0.0"/><feFuncG type="linear" slope="0" intercept="0.0"/><feFuncB type="linear" slope="0" intercept="0.0"/><feFuncA type="linear" slope="0.5" intercept="0"/></feComponentTransfer></filter></defs><g id="g767f0c93c4_0_1549.8"><path fill="#ffffff" d="m599.3036 427.0886l-21.09021 22.2518l0.57385254 -28.835876z" fill-rule="evenodd"/></g><g filter="url(#shadowFilter-g767f0c93c4_0_1549.9)"><use xlink:href="#g767f0c93c4_0_1549.9" transform="matrix(1.0 0.0 0.0 1.0 0.0 2.0)"/></g><defs><filter id="shadowFilter-g767f0c93c4_0_1549.9" filterUnits="userSpaceOnUse"><feGaussianBlur in="SourceAlpha" stdDeviation="2.0" result="blur"/><feComponentTransfer in="blur" color-interpolation-filters="sRGB"><feFuncR type="linear" slope="0" intercept="0.0"/><feFuncG type="linear" slope="0" intercept="0.0"/><feFuncB type="linear" slope="0" intercept="0.0"/><feFuncA type="linear" slope="0.5" intercept="0"/></feComponentTransfer></filter></defs><g id="g767f0c93c4_0_1549.9"><path fill="#000000" fill-opacity="0.0" d="m669.1412 413.32486c-7.5649414 9.585358 -26.544067 16.028473 -48.00061 16.29541c-21.456482 0.26696777 -41.113342 -5.695465 -49.71472 -15.079712l48.33966 -10.089752z" fill-rule="evenodd"/><path fill="#000000" fill-opacity="0.0" d="m669.1412 413.32486c-7.5649414 9.585358 -26.544067 16.028473 -48.00061 16.29541c-21.456482 0.26696777 -41.113342 -5.695465 -49.71472 -15.079712" fill-rule="evenodd"/><path stroke="#000000" stroke-width="2.0" stroke-miterlimit="800.0" stroke-linecap="butt" d="m669.1412 413.32486c-7.5649414 9.585358 -26.544067 16.028473 -48.00061 16.29541c-21.456482 0.26696777 -41.113342 -5.695465 -49.71472 -15.079712" fill-rule="evenodd"/></g><g filter="url(#shadowFilter-g767f0c93c4_0_1549.10)"><use xlink:href="#g767f0c93c4_0_1549.10" transform="matrix(1.0 0.0 0.0 1.0 0.0 2.0)"/></g><defs><filter id="shadowFilter-g767f0c93c4_0_1549.10" filterUnits="userSpaceOnUse"><feGaussianBlur in="SourceAlpha" stdDeviation="2.0" result="blur"/><feComponentTransfer in="blur" color-interpolation-filters="sRGB"><feFuncR type="linear" slope="0" intercept="0.0"/><feFuncG type="linear" slope="0" intercept="0.0"/><feFuncB type="linear" slope="0" intercept="0.0"/><feFuncA type="linear" slope="0.5" intercept="0"/></feComponentTransfer></filter></defs><g id="g767f0c93c4_0_1549.10"><defs><linearGradient id="g767f0c93c4_0_1549.11" gradientUnits="userSpaceOnUse" gradientTransform="matrix(8.535095464765172 -5.196620396157113 5.196620396157113 8.535095464765172 0.0 0.0)" spreadMethod="pad" x1="24.606535541811297" y1="34.378383223309584" x2="24.606504761261846" y2="42.913478688019254"><stop offset="0.0" stop-color="#fb9195"/><stop offset="0.51" stop-color="#c96b59"/><stop offset="0.97" stop-color="#1d324a"/><stop offset="1.0" stop-color="#1d324a"/></linearGradient></defs><path fill="url(#g767f0c93c4_0_1549.11)" d="m433.0242 238.3998l7.344116 -104.32367l99.60635 39.206528z" fill-rule="evenodd"/></g><g filter="url(#shadowFilter-g767f0c93c4_0_1549.12)"><use xlink:href="#g767f0c93c4_0_1549.12" transform="matrix(1.0 0.0 0.0 1.0 0.0 2.0)"/></g><defs><filter id="shadowFilter-g767f0c93c4_0_1549.12" filterUnits="userSpaceOnUse"><feGaussianBlur in="SourceAlpha" stdDeviation="2.0" result="blur"/><feComponentTransfer in="blur" color-interpolation-filters="sRGB"><feFuncR type="linear" slope="0" intercept="0.0"/><feFuncG type="linear" slope="0" intercept="0.0"/><feFuncB type="linear" slope="0" intercept="0.0"/><feFuncA type="linear" slope="0.5" intercept="0"/></feComponentTransfer></filter></defs><g id="g767f0c93c4_0_1549.12"><defs><linearGradient id="g767f0c93c4_0_1549.13" gradientUnits="userSpaceOnUse" gradientTransform="matrix(8.657179610862295 4.681231137379057 -4.681231137379057 8.657179610862295 0.0 0.0)" spreadMethod="pad" x1="70.37886253980756" y1="-24.971738954538505" x2="70.37882920397762" y2="-16.314559343740395"><stop offset="0.0" stop-color="#fb9195"/><stop offset="0.51" stop-color="#c96b59"/><stop offset="0.97" stop-color="#1d324a"/><stop offset="1.0" stop-color="#1d324a"/></linearGradient></defs><path fill="url(#g767f0c93c4_0_1549.13)" d="m685.65466 188.22165l97.40033 -44.192474l12.845276 103.806z" fill-rule="evenodd"/></g><g filter="url(#shadowFilter-g767f0c93c4_0_1549.14)"><use xlink:href="#g767f0c93c4_0_1549.14" transform="matrix(1.0 0.0 0.0 1.0 0.0 2.0)"/></g><defs><filter id="shadowFilter-g767f0c93c4_0_1549.14" filterUnits="userSpaceOnUse"><feGaussianBlur in="SourceAlpha" stdDeviation="2.0" result="blur"/><feComponentTransfer in="blur" color-interpolation-filters="sRGB"><feFuncR type="linear" slope="0" intercept="0.0"/><feFuncG type="linear" slope="0" intercept="0.0"/><feFuncB type="linear" slope="0" intercept="0.0"/><feFuncA type="linear" slope="0.5" intercept="0"/></feComponentTransfer></filter></defs><g id="g767f0c93c4_0_1549.14"><defs><linearGradient id="g767f0c93c4_0_1549.15" gradientUnits="userSpaceOnUse" gradientTransform="matrix(7.361570261836035 -9.767298640733046 9.767298640733046 7.361570261836035 0.0 0.0)" spreadMethod="pad" x1="-10.613851650245795" y1="68.28264380960398" x2="-10.61388685723982" y2="78.04994245027358"><stop offset="0.0" stop-color="#1d324a"/><stop offset="1.0" stop-color="#c96b59"/></linearGradient></defs><path fill="url(#g767f0c93c4_0_1549.15)" d="m666.32983 511.2452c7.5671997 -0.57598877 14.266296 4.9272156 14.963135 12.291901l8.923035 94.31641l-0.35803223 3.2235718l17.242004 12.386108c3.8873901 2.7926025 4.753174 8.088928 1.9337158 11.829712c-2.819458 3.7408447 -8.256348 4.5095215 -12.143738 1.716919l-8.785828 -6.3114624l1.2957153 13.695557c0.44030762 4.6539917 -3.0794067 8.721741 -7.861328 9.085693c-4.7819824 0.36395264 -9.015381 -3.1139526 -9.4557495 -7.7679443l-1.6018066 -16.931091l-7.6757812 11.75824c-2.5570068 3.916809 -7.924988 5.03302 -11.989807 2.493164c-4.0648193 -2.539856 -5.2871704 -7.773987 -2.7302246 -11.690735l13.635986 -20.888184l1.0721436 -0.72442627l-8.903137 -94.10614c-0.6968384 -7.364624 4.8726807 -13.801483 12.439697 -14.377289z" fill-rule="evenodd"/></g><g filter="url(#shadowFilter-g767f0c93c4_0_1549.16)"><use xlink:href="#g767f0c93c4_0_1549.16" transform="matrix(1.0 0.0 0.0 1.0 0.0 2.0)"/></g><defs><filter id="shadowFilter-g767f0c93c4_0_1549.16" filterUnits="userSpaceOnUse"><feGaussianBlur in="SourceAlpha" stdDeviation="2.0" result="blur"/><feComponentTransfer in="blur" color-interpolation-filters="sRGB"><feFuncR type="linear" slope="0" intercept="0.0"/><feFuncG type="linear" slope="0" intercept="0.0"/><feFuncB type="linear" slope="0" intercept="0.0"/><feFuncA type="linear" slope="0.5" intercept="0"/></feComponentTransfer></filter></defs><g id="g767f0c93c4_0_1549.16"><defs><linearGradient id="g767f0c93c4_0_1549.17" gradientUnits="userSpaceOnUse" gradientTransform="matrix(8.449604033765766 -9.421971541374479 9.421971541374479 8.449604033765766 0.0 0.0)" spreadMethod="pad" x1="-10.40038331746111" y1="59.78568183055019" x2="-10.400417342186962" y2="69.20765337186323"><stop offset="0.0" stop-color="#1d324a"/><stop offset="1.0" stop-color="#c96b59"/></linearGradient></defs><path fill="url(#g767f0c93c4_0_1549.17)" d="m561.04877 514.6683c7.5961304 0.046081543 13.792847 6.086426 13.841064 13.491699l0.616333 94.83673l-0.6400757 3.1869507l16.105164 13.772644c3.6311035 3.1051636 4.029358 8.460632 0.88952637 11.961792c-3.1398315 3.5011597 -8.628662 3.8221436 -12.259766 0.71691895l-8.206543 -7.0179443l0.08947754 13.771057c0.030456543 4.6796875 -3.8363037 8.449585 -8.636597 8.420471c-4.800232 -0.02911377 -8.7161255 -3.8464355 -8.746582 -8.526062l-0.11065674 -17.024536l-8.686279 11.102234c-2.8935547 3.6982422 -8.344238 4.371643 -12.174438 1.5040894c-3.8302002 -2.8676147 -4.5894775 -8.190186 -1.6958618 -11.888489l15.430969 -19.722717l1.1326904 -0.6348877l-0.6149292 -94.625244c-0.048217773 -7.4052734 6.0705566 -13.37085 13.666504 -13.324707z" fill-rule="evenodd"/></g><g filter="url(#shadowFilter-g767f0c93c4_0_1549.18)"><use xlink:href="#g767f0c93c4_0_1549.18" transform="matrix(1.0 0.0 0.0 1.0 0.0 2.0)"/></g><defs><filter id="shadowFilter-g767f0c93c4_0_1549.18" filterUnits="userSpaceOnUse"><feGaussianBlur in="SourceAlpha" stdDeviation="2.0" result="blur"/><feComponentTransfer in="blur" color-interpolation-filters="sRGB"><feFuncR type="linear" slope="0" intercept="0.0"/><feFuncG type="linear" slope="0" intercept="0.0"/><feFuncB type="linear" slope="0" intercept="0.0"/><feFuncA type="linear" slope="0.5" intercept="0"/></feComponentTransfer></filter></defs><g id="g767f0c93c4_0_1549.18"><defs><linearGradient id="g767f0c93c4_0_1549.19" gradientUnits="userSpaceOnUse" gradientTransform="matrix(10.673310968181076 2.2669674781381 -2.2669674781381 10.673310968181076 0.0 0.0)" spreadMethod="pad" x1="42.328680721802066" y1="31.707105495708063" x2="42.32864313680968" y2="42.38041646382296"><stop offset="0.0" stop-color="#1d324a"/><stop offset="1.0" stop-color="#c96b59"/></linearGradient></defs><path fill="url(#g767f0c93c4_0_1549.19)" d="m504.5782 465.5191c3.7027283 6.4635315 1.3019409 14.586487 -5.3623047 18.143341l-85.34726 45.550507l-3.1937866 0.9703369l-4.4999695 20.196777c-1.0145874 4.553589 -5.654999 7.434021 -10.364746 6.433716c-4.7097473 -1.0003662 -7.7052307 -5.5026245 -6.6906433 -10.056213l2.2929993 -10.291443l-12.393127 6.614319c-4.2113953 2.2476807 -9.522217 0.7584839 -11.862091 -3.3260498c-2.3398743 -4.0845337 -0.8225403 -9.217834 3.388855 -11.465515l15.320984 -8.176941l-14.308563 -2.0949097c-4.7663574 -0.697937 -8.061279 -5.0004883 -7.3594666 -9.610107c0.70181274 -4.609619 5.1346436 -7.78067 9.901001 -7.0827637l25.418793 3.7216797l1.1317139 0.65914917l85.15695 -45.448975c6.664276 -3.5568542 15.068115 -1.2003784 18.77066 5.263092z" fill-rule="evenodd"/></g><g filter="url(#shadowFilter-g767f0c93c4_0_1549.20)"><use xlink:href="#g767f0c93c4_0_1549.20" transform="matrix(1.0 0.0 0.0 1.0 0.0 2.0)"/></g><defs><filter id="shadowFilter-g767f0c93c4_0_1549.20" filterUnits="userSpaceOnUse"><feGaussianBlur in="SourceAlpha" stdDeviation="2.0" result="blur"/><feComponentTransfer in="blur" color-interpolation-filters="sRGB"><feFuncR type="linear" slope="0" intercept="0.0"/><feFuncG type="linear" slope="0" intercept="0.0"/><feFuncB type="linear" slope="0" intercept="0.0"/><feFuncA type="linear" slope="0.5" intercept="0"/></feComponentTransfer></filter></defs><g id="g767f0c93c4_0_1549.20"><defs><linearGradient id="g767f0c93c4_0_1549.21" gradientUnits="userSpaceOnUse" gradientTransform="matrix(-3.052928406146781 -10.763452474702836 10.763452474702836 -3.052928406146781 0.0 0.0)" spreadMethod="pad" x1="-69.020513585477" y1="50.19956563659506" x2="-69.02055024113055" y2="60.96301811123548"><stop offset="0.0" stop-color="#1d324a"/><stop offset="1.0" stop-color="#c96b59"/></linearGradient></defs><path fill="url(#g767f0c93c4_0_1549.21)" d="m721.6224 468.6637c4.2178955 -6.1724854 12.798889 -7.91803 19.166565 -3.8988647l81.54736 51.4729l2.3769531 2.2688599l20.652527 -5.592285c4.656311 -1.2608032 9.461243 1.3493652 10.732117 5.829956c1.270874 4.480652 -1.4735718 9.13501 -6.129883 10.395813l-10.523682 2.8496094l11.841309 7.474243c4.023987 2.539917 5.125122 7.7609863 2.4597168 11.661621c-2.6654663 3.9005737 -8.088257 5.00354 -12.112244 2.463684l-14.638855 -9.240051l4.7286987 13.171814c1.5751343 4.3877563 -0.8465576 9.204041 -5.4089355 10.757568c-4.562378 1.5534668 -9.537781 -0.7440796 -11.112915 -5.131836l-8.40033 -23.399475l0.07946777 -1.2721558l-81.3656 -51.358093c-6.367676 -4.019165 -8.110168 -12.281006 -3.892273 -18.453308z" fill-rule="evenodd"/></g><g filter="url(#shadowFilter-g767f0c93c4_0_1549.22)"><use xlink:href="#g767f0c93c4_0_1549.22" transform="matrix(1.0 0.0 0.0 1.0 0.0 2.0)"/></g><defs><filter id="shadowFilter-g767f0c93c4_0_1549.22" filterUnits="userSpaceOnUse"><feGaussianBlur in="SourceAlpha" stdDeviation="2.0" result="blur"/><feComponentTransfer in="blur" color-interpolation-filters="sRGB"><feFuncR type="linear" slope="0" intercept="0.0"/><feFuncG type="linear" slope="0" intercept="0.0"/><feFuncB type="linear" slope="0" intercept="0.0"/><feFuncA type="linear" slope="0.5" intercept="0"/></feComponentTransfer></filter></defs><g id="g767f0c93c4_0_1549.22"><defs><linearGradient id="g767f0c93c4_0_1549.23" gradientUnits="userSpaceOnUse" gradientTransform="matrix(-11.817497047627075 -3.964281218107586 3.964281218107586 -11.817497047627075 0.0 0.0)" spreadMethod="pad" x1="-80.62501029686025" y1="-14.014227692351485" x2="-80.62505635869503" y2="-2.196730644814181"><stop offset="0.0" stop-color="#1d324a"/><stop offset="1.0" stop-color="#c96b59"/></linearGradient></defs><path fill="url(#g767f0c93c4_0_1549.23)" d="m762.59467 433.98495c-2.972107 -8.405487 1.1952515 -18.273193 9.3081665 -22.040405l103.89972 -48.24411l3.7544556 -0.8920593l8.715759 -24.67978c1.9650879 -5.5643616 7.687683 -8.689758 12.781921 -6.9808655c5.0941772 1.7088928 7.6308594 7.60495 5.6657715 13.169281l-4.441223 12.575836l15.087097 -7.0054626c5.126892 -2.3806152 10.805542 -0.0043029785 12.683716 5.307434c1.8781738 5.311737 -0.75561523 11.547577 -5.8824463 13.928192l-18.651428 8.660522l15.648376 4.0172424c5.2127075 1.3382874 8.121094 7.015442 6.496216 12.680328c-1.6248779 5.6648865 -7.1677856 9.172241 -12.380493 7.833954l-27.79889 -7.136688l-1.1478882 -0.9315796l-103.66809 48.136566c-8.112915 3.7672424 -17.098816 0.0069885254 -20.07074 -8.398407z" fill-rule="evenodd"/></g><g filter="url(#shadowFilter-g767f0c93c4_0_1549.24)"><use xlink:href="#g767f0c93c4_0_1549.24" transform="matrix(1.0 0.0 0.0 1.0 0.0 2.0)"/></g><defs><filter id="shadowFilter-g767f0c93c4_0_1549.24" filterUnits="userSpaceOnUse"><feGaussianBlur in="SourceAlpha" stdDeviation="2.0" result="blur"/><feComponentTransfer in="blur" color-interpolation-filters="sRGB"><feFuncR type="linear" slope="0" intercept="0.0"/><feFuncG type="linear" slope="0" intercept="0.0"/><feFuncB type="linear" slope="0" intercept="0.0"/><feFuncA type="linear" slope="0.5" intercept="0"/></feComponentTransfer></filter></defs><g id="g767f0c93c4_0_1549.24"><defs><linearGradient id="g767f0c93c4_0_1549.25" gradientUnits="userSpaceOnUse" gradientTransform="matrix(6.647743898105832 11.528234360403916 -11.528234360403916 6.647743898105832 0.0 0.0)" spreadMethod="pad" x1="33.51316900787235" y1="-15.030006148767189" x2="33.513125863637335" y2="-3.501771788444004"><stop offset="0.0" stop-color="#1d324a"/><stop offset="1.0" stop-color="#c96b59"/></linearGradient></defs><path fill="url(#g767f0c93c4_0_1549.25)" d="m466.98022 421.4509c-3.4693604 8.62738 -13.571075 13.377441 -22.56314 10.609711l-115.15732 -35.446594l-3.5729065 -1.9432068l-23.920929 13.079376c-5.3932495 2.948883 -12.059509 1.3608398 -14.889648 -3.5470276c-2.8301086 -4.9078674 -0.75231934 -11.276978 4.64093 -14.225861l12.189148 -6.6647034l-16.721802 -5.1471252c-5.682373 -1.749054 -8.511383 -7.5867004 -6.3189697 -13.038666c2.1924438 -5.451935 8.576324 -8.453583 14.258728 -6.704529l20.672333 6.3631287l-9.545166 -14.11734c-3.179535 -4.702759 -1.5458069 -11.162659 3.6490784 -14.428741c5.194916 -3.2660522 11.983673 -2.10141 15.163208 2.6013489l16.956635 25.079193l0.25997925 1.5310974l114.900604 35.367554c8.992065 2.7677307 13.4687195 12.0052185 9.999237 20.632385z" fill-rule="evenodd"/></g><g filter="url(#shadowFilter-g767f0c93c4_0_1549.26)"><use xlink:href="#g767f0c93c4_0_1549.26" transform="matrix(1.0 0.0 0.0 1.0 0.0 2.0)"/></g><defs><filter id="shadowFilter-g767f0c93c4_0_1549.26" filterUnits="userSpaceOnUse"><feGaussianBlur in="SourceAlpha" stdDeviation="2.0" result="blur"/><feComponentTransfer in="blur" color-interpolation-filters="sRGB"><feFuncR type="linear" slope="0" intercept="0.0"/><feFuncG type="linear" slope="0" intercept="0.0"/><feFuncB type="linear" slope="0" intercept="0.0"/><feFuncA type="linear" slope="0.5" intercept="0"/></feComponentTransfer></filter></defs><g id="g767f0c93c4_0_1549.26"><defs><radialGradient id="g767f0c93c4_0_1549.27" gradientUnits="userSpaceOnUse" gradientTransform="matrix(24.662098256425658 -9.633474692565981 -9.633474692565981 -24.662098256425658 0.0 0.0)" spreadMethod="pad" cx="25.54768741837151" cy="-11.437943663168692" fx="25.54768741837151" fy="-11.437943663168692" r="24.662097930908203"><stop offset="0.0" stop-color="#ffb4ad"/><stop offset="0.73" stop-color="#c96b59"/><stop offset="1.0" stop-color="#1d324a"/></radialGradient></defs><path fill="url(#g767f0c93c4_0_1549.27)" d="m620.8288 82.617546l-13.981873 56.12835l4.529175 -0.43193054l48.61017 -34.214813l-25.461975 35.025986l21.100342 1.5273132c88.72601 14.072922 158.37823 78.90961 175.3277 162.52748l0.92059326 9.8862915l26.485352 25.274933l-23.426392 -10.559845l13.876709 64.647705l-16.422974 -25.833801l-2.5349731 21.325562c-21.862 96.04126 -111.943054 169.14038 -218.78827 170.37878c-106.845215 1.2384033 -195.05215 -69.79443 -214.42322 -165.35773l-1.9577026 -21.022186l-16.132019 26.281677l13.272308 -63.287292l-15.487701 13.433563l20.944519 -36.256104l0.46255493 -3.890625c19.12915 -84.03595 90.488556 -150.50697 179.60745 -166.64122l4.5925293 -0.43803406z" fill-rule="evenodd"/></g><g filter="url(#shadowFilter-g767f0c93c4_0_1549.28)"><use xlink:href="#g767f0c93c4_0_1549.28" transform="matrix(1.0 0.0 0.0 1.0 0.0 2.0)"/></g><defs><filter id="shadowFilter-g767f0c93c4_0_1549.28" filterUnits="userSpaceOnUse"><feGaussianBlur in="SourceAlpha" stdDeviation="2.0" result="blur"/><feComponentTransfer in="blur" color-interpolation-filters="sRGB"><feFuncR type="linear" slope="0" intercept="0.0"/><feFuncG type="linear" slope="0" intercept="0.0"/><feFuncB type="linear" slope="0" intercept="0.0"/><feFuncA type="linear" slope="0.5" intercept="0"/></feComponentTransfer></filter></defs><g id="g767f0c93c4_0_1549.28"><defs><radialGradient id="g767f0c93c4_0_1549.29" gradientUnits="userSpaceOnUse" gradientTransform="matrix(-6.1499717760432535 0.0 0.0 6.1499717760432535 0.0 0.0)" spreadMethod="pad" cx="-100.53926645116225" cy="63.74449128511938" fx="-100.53926645116225" fy="63.74449128511938" r="6.149971961975098"><stop offset="0.0" stop-color="#3a3838"/><stop offset="0.86" stop-color="#000000"/><stop offset="1.0" stop-color="#000000"/></radialGradient></defs><path fill="url(#g767f0c93c4_0_1549.29)" d="m653.5036 387.70123c-3.0647583 -3.4570007 -23.16626 -8.043457 -34.74939 -8.319824c-11.58313 -0.27633667 -30.446472 3.3705444 -34.74933 6.6618347c-4.3029175 3.2912598 2.663269 9.543457 8.932434 11.42749c6.269104 1.8840027 18.44928 6.7299194 25.816895 7.171997c7.367676 0.44210815 12.324402 -2.5246582 18.388855 -4.5191956c6.064392 -1.9945068 19.425293 -8.965271 16.360535 -12.422302z" fill-rule="evenodd"/></g><path fill="#924d40" d="m723.8524 412.94785l0 0c0 -5.690216 6.1780396 -10.30307 13.799072 -10.30307l0 0c7.6210938 0 13.799133 4.612854 13.799133 10.30307l0 0c0 5.6902466 -6.1780396 10.30307 -13.799133 10.30307l0 0c-7.6210327 0 -13.799072 -4.6128235 -13.799072 -10.30307z" fill-rule="evenodd"/><path fill="#924d40" d="m477.78925 412.10605l0 0c0 -5.6902466 6.17807 -10.30307 13.799103 -10.30307l0 0c7.6210327 0 13.799103 4.6128235 13.799103 10.30307l0 0c0 5.690216 -6.17807 10.30307 -13.799103 10.30307l0 0c-7.6210327 0 -13.799103 -4.612854 -13.799103 -10.30307z" fill-rule="evenodd"/><path fill="#924d40" d="m508.91354 427.91904l0 0c0 -3.5752869 3.605072 -6.4736023 8.052155 -6.4736023l0 0c4.4470215 0 8.052063 2.8983154 8.052063 6.4736023l0 0c0 3.5752869 -3.6050415 6.4736023 -8.052063 6.4736023l0 0c-4.4470825 0 -8.052155 -2.8983154 -8.052155 -6.4736023z" fill-rule="evenodd"/><path fill="#924d40" d="m702.14136 426.68402l0 0c0 -3.5752869 3.6051025 -6.4736023 8.052124 -6.4736023l0 0c4.4470825 0 8.052124 2.8983154 8.052124 6.4736023l0 0c0 3.5752869 -3.6050415 6.4736023 -8.052124 6.4736023l0 0c-4.4470215 0 -8.052124 -2.8983154 -8.052124 -6.4736023z" fill-rule="evenodd"/><path fill="#924d40" d="m753.86316 429.3478l0 0c0 -3.5752869 3.6050415 -6.473633 8.052124 -6.473633l0 0c4.4470215 0 8.052063 2.898346 8.052063 6.473633l0 0c0 3.5752563 -3.6050415 6.4736023 -8.052063 6.4736023l0 0c-4.4470825 0 -8.052124 -2.898346 -8.052124 -6.4736023z" fill-rule="evenodd"/><path fill="#924d40" d="m459.21173 429.94156l0 0c0 -3.5752869 3.6050415 -6.4736023 8.052124 -6.4736023l0 0c4.447052 0 8.0520935 2.8983154 8.0520935 6.4736023l0 0c0 3.5752869 -3.6050415 6.4736023 -8.0520935 6.4736023l0 0c-4.4470825 0 -8.052124 -2.8983154 -8.052124 -6.4736023z" fill-rule="evenodd"/><defs><linearGradient id="g767f0c93c4_0_1549.30" gradientUnits="userSpaceOnUse" gradientTransform="matrix(7.4976159634853365 0.0 0.0 7.4976159634853365 0.0 0.0)" spreadMethod="pad" x1="79.58505285355774" y1="11.101715571822846" x2="79.58352677791055" y2="18.59933137999835"><stop offset="0.0" stop-color="#ffb4ad"/><stop offset="0.85" stop-color="#c96b59"/><stop offset="1.0" stop-color="#c96b59"/></linearGradient></defs><path fill="url(#g767f0c93c4_0_1549.30)" d="m621.5798 83.24147l-24.881592 56.209167l11.060181 -0.95422363z" fill-rule="evenodd"/><g filter="url(#shadowFilter-g767f0c93c4_0_1549.31)"><use xlink:href="#g767f0c93c4_0_1549.31" transform="matrix(1.0 0.0 0.0 1.0 0.0026246719160104987 0.0)"/></g><defs><filter id="shadowFilter-g767f0c93c4_0_1549.31" filterUnits="userSpaceOnUse"><feGaussianBlur in="SourceAlpha" stdDeviation="2.2222223" result="blur"/><feComponentTransfer in="blur" color-interpolation-filters="sRGB"><feFuncR type="linear" slope="0" intercept="0.0"/><feFuncG type="linear" slope="0" intercept="0.0"/><feFuncB type="linear" slope="0" intercept="0.0"/><feFuncA type="linear" slope="0.2667" intercept="0"/></feComponentTransfer></filter></defs><g id="g767f0c93c4_0_1549.31"><defs><linearGradient id="g767f0c93c4_0_1549.32" gradientUnits="userSpaceOnUse" gradientTransform="matrix(-15.491413573519203 0.0 0.0 15.491413573519203 0.0 0.0)" spreadMethod="pad" x1="-57.25223568620664" y1="20.099865425854357" x2="-46.29379020813804" y2="31.04958538620096"><stop offset="0.0" stop-color="#cfcfd2"/><stop offset="1.0" stop-color="#ffffff"/></linearGradient></defs><path fill="url(#g767f0c93c4_0_1549.32)" d="m807.4956 311.3121l0 0c0 -43.86383 -40.414124 -79.4225 -90.267456 -79.4225l0 0c-49.85327 0 -90.267395 35.55867 -90.267395 79.4225l0 0c0 43.86383 40.414124 79.422485 90.267395 79.422485l0 0c49.853333 0 90.267456 -35.558655 90.267456 -79.422485z" fill-rule="evenodd"/></g><g filter="url(#shadowFilter-g767f0c93c4_0_1549.33)"><use xlink:href="#g767f0c93c4_0_1549.33" transform="matrix(1.0 0.0 0.0 1.0 0.0 2.0)"/></g><defs><filter id="shadowFilter-g767f0c93c4_0_1549.33" filterUnits="userSpaceOnUse"><feGaussianBlur in="SourceAlpha" stdDeviation="2.0" result="blur"/><feComponentTransfer in="blur" color-interpolation-filters="sRGB"><feFuncR type="linear" slope="0" intercept="0.0"/><feFuncG type="linear" slope="0" intercept="0.0"/><feFuncB type="linear" slope="0" intercept="0.0"/><feFuncA type="linear" slope="0.5" intercept="0"/></feComponentTransfer></filter></defs><g id="g767f0c93c4_0_1549.33"><defs><linearGradient id="g767f0c93c4_0_1549.34" gradientUnits="userSpaceOnUse" gradientTransform="matrix(11.465931446171586 0.0 0.0 11.465931446171586 0.0 0.0)" spreadMethod="pad" x1="56.18073822736131" y1="21.6678312428829" x2="56.17840262508" y2="33.1337624511742"><stop offset="0.0" stop-color="#1d324a"/><stop offset="0.1" stop-color="#22384f" stop-opacity="0.94509804"/><stop offset="0.2" stop-color="#273f55" stop-opacity="0.8901961"/><stop offset="0.3" stop-color="#2f475c" stop-opacity="0.8352941"/><stop offset="0.4" stop-color="#365164" stop-opacity="0.78039217"/><stop offset="0.5" stop-color="#3f5a6e" stop-opacity="0.7294118"/><stop offset="0.6" stop-color="#496678" stop-opacity="0.6745098"/><stop offset="0.7" stop-color="#547684" stop-opacity="0.61960787"/><stop offset="0.8" stop-color="#638793" stop-opacity="0.5647059"/><stop offset="0.90000004" stop-color="#749ba5" stop-opacity="0.50980395"/><stop offset="1.0" stop-color="#8ab5bb" stop-opacity="0.45882353"/></linearGradient></defs><path fill="url(#g767f0c93c4_0_1549.34)" d="m644.1645 314.19012l0 0c0 -36.295807 31.780945 -65.71933 70.98468 -65.71933l0 0c39.203796 0 70.98474 29.423523 70.98474 65.71933l0 0c0 36.295776 -31.780945 65.7193 -70.98474 65.7193l0 0c-39.203735 0 -70.98468 -29.423523 -70.98468 -65.7193z" fill-rule="evenodd"/></g><g filter="url(#shadowFilter-g767f0c93c4_0_1549.35)"><use xlink:href="#g767f0c93c4_0_1549.35" transform="matrix(1.0 0.0 0.0 1.0 0.0 2.0)"/></g><defs><filter id="shadowFilter-g767f0c93c4_0_1549.35" filterUnits="userSpaceOnUse"><feGaussianBlur in="SourceAlpha" stdDeviation="2.0" result="blur"/><feComponentTransfer in="blur" color-interpolation-filters="sRGB"><feFuncR type="linear" slope="0" intercept="0.0"/><feFuncG type="linear" slope="0" intercept="0.0"/><feFuncB type="linear" slope="0" intercept="0.0"/><feFuncA type="linear" slope="0.5" intercept="0"/></feComponentTransfer></filter></defs><g id="g767f0c93c4_0_1549.35"><defs><radialGradient id="g767f0c93c4_0_1549.36" gradientUnits="userSpaceOnUse" gradientTransform="matrix(-8.54256784984235 0.0 0.0 8.54256784984235 0.0 0.0)" spreadMethod="pad" cx="-83.63635129785432" cy="36.80495619140332" fx="-83.63635129785432" fy="36.80495619140332" r="8.54256820678711"><stop offset="0.0" stop-color="#7f7f7f"/><stop offset="0.29" stop-color="#000000"/><stop offset="1.0" stop-color="#000000"/></radialGradient></defs><path fill="url(#g767f0c93c4_0_1549.36)" d="m768.517 314.40884l0 0c0 -27.080261 -24.197998 -49.033142 -54.04785 -49.033142l0 0c-29.849792 0 -54.04779 21.95288 -54.04779 49.033142l0 0c0 27.080261 24.197998 49.033142 54.04779 49.033142l0 0c29.849854 0 54.04785 -21.95288 54.04785 -49.033142z" fill-rule="evenodd"/></g><g filter="url(#shadowFilter-g767f0c93c4_0_1549.37)"><use xlink:href="#g767f0c93c4_0_1549.37" transform="matrix(1.0 0.0 0.0 1.0 0.0 2.0)"/></g><defs><filter id="shadowFilter-g767f0c93c4_0_1549.37" filterUnits="userSpaceOnUse"><feGaussianBlur in="SourceAlpha" stdDeviation="2.0" result="blur"/><feComponentTransfer in="blur" color-interpolation-filters="sRGB"><feFuncR type="linear" slope="0" intercept="0.0"/><feFuncG type="linear" slope="0" intercept="0.0"/><feFuncB type="linear" slope="0" intercept="0.0"/><feFuncA type="linear" slope="0.5" intercept="0"/></feComponentTransfer></filter></defs><g id="g767f0c93c4_0_1549.37"><defs><linearGradient id="g767f0c93c4_0_1549.38" gradientUnits="userSpaceOnUse" gradientTransform="matrix(-8.748125499086543 0.0 0.0 8.748125499086543 0.0 0.0)" spreadMethod="pad" x1="-90.5271831698701" y1="32.93951112478342" x2="-84.33885895318012" y2="39.12290365129316"><stop offset="0.0" stop-color="#cfcfd2"/><stop offset="1.0" stop-color="#ffffff"/></linearGradient></defs><path fill="url(#g767f0c93c4_0_1549.38)" d="m766.3079 288.13852l0 0c0 -14.157928 -12.750183 -25.635193 -28.478333 -25.635193l0 0c-15.728149 0 -28.478333 11.477264 -28.478333 25.635193l0 0c0 14.157928 12.750183 25.635193 28.478333 25.635193l0 0c15.728149 0 28.478333 -11.477264 28.478333 -25.635193z" fill-rule="evenodd"/></g><g filter="url(#shadowFilter-g767f0c93c4_0_1549.39)"><use xlink:href="#g767f0c93c4_0_1549.39" transform="matrix(1.0 0.0 0.0 1.0 0.0 2.0)"/></g><defs><filter id="shadowFilter-g767f0c93c4_0_1549.39" filterUnits="userSpaceOnUse"><feGaussianBlur in="SourceAlpha" stdDeviation="2.0" result="blur"/><feComponentTransfer in="blur" color-interpolation-filters="sRGB"><feFuncR type="linear" slope="0" intercept="0.0"/><feFuncG type="linear" slope="0" intercept="0.0"/><feFuncB type="linear" slope="0" intercept="0.0"/><feFuncA type="linear" slope="0.5" intercept="0"/></feComponentTransfer></filter></defs><g id="g767f0c93c4_0_1549.39"><defs><linearGradient id="g767f0c93c4_0_1549.40" gradientUnits="userSpaceOnUse" gradientTransform="matrix(-5.920132516996155 0.0 0.0 5.920132516996155 0.0 0.0)" spreadMethod="pad" x1="-120.87675050839755" y1="56.987311664944464" x2="-116.68892417081751" y2="61.17181636503339"><stop offset="0.0" stop-color="#cfcfd2"/><stop offset="1.0" stop-color="#ffffff"/></linearGradient></defs><path fill="url(#g767f0c93c4_0_1549.40)" d="m703.02185 337.3624l0 0c0 -6.950226 -5.4613647 -12.584534 -12.198303 -12.584534l0 0c-3.2351685 0 -6.3378296 1.3258667 -8.625488 3.685913c-2.2875977 2.360077 -3.572754 5.5610046 -3.572754 8.898621l0 0c0 6.9502563 5.4613647 12.584564 12.198242 12.584564l0 0c6.7369385 0 12.198303 -5.634308 12.198303 -12.584564z" fill-rule="evenodd"/></g><g filter="url(#shadowFilter-g767f0c93c4_0_1549.41)"><use xlink:href="#g767f0c93c4_0_1549.41" transform="matrix(1.0 0.0 0.0 1.0 0.0026246719160104987 0.0)"/></g><defs><filter id="shadowFilter-g767f0c93c4_0_1549.41" filterUnits="userSpaceOnUse"><feGaussianBlur in="SourceAlpha" stdDeviation="2.2222223" result="blur"/><feComponentTransfer in="blur" color-interpolation-filters="sRGB"><feFuncR type="linear" slope="0" intercept="0.0"/><feFuncG type="linear" slope="0" intercept="0.0"/><feFuncB type="linear" slope="0" intercept="0.0"/><feFuncA type="linear" slope="0.2667" intercept="0"/></feComponentTransfer></filter></defs><g id="g767f0c93c4_0_1549.41"><defs><linearGradient id="g767f0c93c4_0_1549.42" gradientUnits="userSpaceOnUse" gradientTransform="matrix(-15.491412637182826 0.0 0.0 15.491412637182826 0.0 0.0)" spreadMethod="pad" x1="-44.185526721506214" y1="20.036823712462205" x2="-33.22708322838942" y2="30.9865443346349"><stop offset="0.0" stop-color="#cfcfd2"/><stop offset="1.0" stop-color="#ffffff"/></linearGradient></defs><path fill="url(#g767f0c93c4_0_1549.42)" d="m605.0738 310.33548l0 0c0 -43.86386 -40.414124 -79.422516 -90.267456 -79.422516l0 0c-49.853302 0 -90.267395 35.558655 -90.267395 79.422516l0 0c0 43.86383 40.414093 79.422485 90.267395 79.422485l0 0c49.853333 0 90.267456 -35.558655 90.267456 -79.422485z" fill-rule="evenodd"/></g><g filter="url(#shadowFilter-g767f0c93c4_0_1549.43)"><use xlink:href="#g767f0c93c4_0_1549.43" transform="matrix(1.0 0.0 0.0 1.0 0.0 2.0)"/></g><defs><filter id="shadowFilter-g767f0c93c4_0_1549.43" filterUnits="userSpaceOnUse"><feGaussianBlur in="SourceAlpha" stdDeviation="2.0" result="blur"/><feComponentTransfer in="blur" color-interpolation-filters="sRGB"><feFuncR type="linear" slope="0" intercept="0.0"/><feFuncG type="linear" slope="0" intercept="0.0"/><feFuncB type="linear" slope="0" intercept="0.0"/><feFuncA type="linear" slope="0.5" intercept="0"/></feComponentTransfer></filter></defs><g id="g767f0c93c4_0_1549.43"><defs><linearGradient id="g767f0c93c4_0_1549.44" gradientUnits="userSpaceOnUse" gradientTransform="matrix(11.465930551989992 0.0 0.0 11.465930551989992 0.0 0.0)" spreadMethod="pad" x1="38.5265387843788" y1="21.582658554011758" x2="38.52420318191534" y2="33.04858886812141"><stop offset="0.0" stop-color="#1d324a"/><stop offset="0.1" stop-color="#22384f" stop-opacity="0.94509804"/><stop offset="0.2" stop-color="#273f55" stop-opacity="0.8901961"/><stop offset="0.3" stop-color="#2f475c" stop-opacity="0.8352941"/><stop offset="0.4" stop-color="#365164" stop-opacity="0.78039217"/><stop offset="0.5" stop-color="#3f5a6e" stop-opacity="0.7294118"/><stop offset="0.6" stop-color="#496678" stop-opacity="0.6745098"/><stop offset="0.7" stop-color="#547684" stop-opacity="0.61960787"/><stop offset="0.8" stop-color="#638793" stop-opacity="0.5647059"/><stop offset="0.90000004" stop-color="#749ba5" stop-opacity="0.50980395"/><stop offset="1.0" stop-color="#8ab5bb" stop-opacity="0.45882353"/></linearGradient></defs><path fill="url(#g767f0c93c4_0_1549.44)" d="m441.74265 313.21347l0 0c0 -36.295776 31.780945 -65.719315 70.98471 -65.719315l0 0c39.203796 0 70.98474 29.423538 70.98474 65.719315l0 0c0 36.295776 -31.780945 65.71933 -70.98474 65.71933l0 0c-39.203766 0 -70.98471 -29.423553 -70.98471 -65.71933z" fill-rule="evenodd"/></g><g filter="url(#shadowFilter-g767f0c93c4_0_1549.45)"><use xlink:href="#g767f0c93c4_0_1549.45" transform="matrix(1.0 0.0 0.0 1.0 0.0 2.0)"/></g><defs><filter id="shadowFilter-g767f0c93c4_0_1549.45" filterUnits="userSpaceOnUse"><feGaussianBlur in="SourceAlpha" stdDeviation="2.0" result="blur"/><feComponentTransfer in="blur" color-interpolation-filters="sRGB"><feFuncR type="linear" slope="0" intercept="0.0"/><feFuncG type="linear" slope="0" intercept="0.0"/><feFuncB type="linear" slope="0" intercept="0.0"/><feFuncA type="linear" slope="0.5" intercept="0"/></feComponentTransfer></filter></defs><g id="g767f0c93c4_0_1549.45"><defs><radialGradient id="g767f0c93c4_0_1549.46" gradientUnits="userSpaceOnUse" gradientTransform="matrix(-8.54256784984235 0.0 0.0 8.54256784984235 0.0 0.0)" spreadMethod="pad" cx="-59.940685624883876" cy="36.69063099951393" fx="-59.940685624883876" fy="36.69063099951393" r="8.54256820678711"><stop offset="0.0" stop-color="#7f7f7f"/><stop offset="0.29" stop-color="#000000"/><stop offset="1.0" stop-color="#000000"/></radialGradient></defs><path fill="url(#g767f0c93c4_0_1549.46)" d="m566.0952 313.4322l0 0c0 -27.08023 -24.19806 -49.03311 -54.04785 -49.03311l0 0c-29.849792 0 -54.04785 21.95288 -54.04785 49.03311l0 0c0 27.080261 24.19806 49.033142 54.04785 49.033142l0 0c29.849792 0 54.04785 -21.95288 54.04785 -49.033142z" fill-rule="evenodd"/></g><g filter="url(#shadowFilter-g767f0c93c4_0_1549.47)"><use xlink:href="#g767f0c93c4_0_1549.47" transform="matrix(1.0 0.0 0.0 1.0 0.0 2.0)"/></g><defs><filter id="shadowFilter-g767f0c93c4_0_1549.47" filterUnits="userSpaceOnUse"><feGaussianBlur in="SourceAlpha" stdDeviation="2.0" result="blur"/><feComponentTransfer in="blur" color-interpolation-filters="sRGB"><feFuncR type="linear" slope="0" intercept="0.0"/><feFuncG type="linear" slope="0" intercept="0.0"/><feFuncB type="linear" slope="0" intercept="0.0"/><feFuncA type="linear" slope="0.5" intercept="0"/></feComponentTransfer></filter></defs><g id="g767f0c93c4_0_1549.47"><defs><linearGradient id="g767f0c93c4_0_1549.48" gradientUnits="userSpaceOnUse" gradientTransform="matrix(-9.08172673098901 0.0 0.0 9.08172673098901 0.0 0.0)" spreadMethod="pad" x1="-64.26000239631843" y1="32.541400988431704" x2="-57.835696453329" y2="38.960595140911515"><stop offset="0.0" stop-color="#cfcfd2"/><stop offset="1.0" stop-color="#ffffff"/></linearGradient></defs><path fill="url(#g767f0c93c4_0_1549.48)" d="m555.48627 295.50974l0 0c0 -15.522247 -13.527344 -28.1055 -30.214233 -28.1055l0 0c-16.68686 0 -30.214233 12.583252 -30.214233 28.1055l0 0c0 15.522247 13.527374 28.1055 30.214233 28.1055l0 0c16.68689 0 30.214233 -12.583252 30.214233 -28.1055z" fill-rule="evenodd"/></g><g filter="url(#shadowFilter-g767f0c93c4_0_1549.49)"><use xlink:href="#g767f0c93c4_0_1549.49" transform="matrix(1.0 0.0 0.0 1.0 0.0 2.0)"/></g><defs><filter id="shadowFilter-g767f0c93c4_0_1549.49" filterUnits="userSpaceOnUse"><feGaussianBlur in="SourceAlpha" stdDeviation="2.0" result="blur"/><feComponentTransfer in="blur" color-interpolation-filters="sRGB"><feFuncR type="linear" slope="0" intercept="0.0"/><feFuncG type="linear" slope="0" intercept="0.0"/><feFuncB type="linear" slope="0" intercept="0.0"/><feFuncA type="linear" slope="0.5" intercept="0"/></feComponentTransfer></filter></defs><g id="g767f0c93c4_0_1549.49"><defs><linearGradient id="g767f0c93c4_0_1549.50" gradientUnits="userSpaceOnUse" gradientTransform="matrix(-5.920138641373043 0.0 0.0 5.920138641373043 0.0 0.0)" spreadMethod="pad" x1="-86.68455577512819" y1="56.822282838432855" x2="-82.49671991527615" y2="61.00678667329972"><stop offset="0.0" stop-color="#cfcfd2"/><stop offset="1.0" stop-color="#ffffff"/></linearGradient></defs><path fill="url(#g767f0c93c4_0_1549.50)" d="m500.60004 336.38577l0 0c0 -6.9502563 -5.4613647 -12.584534 -12.198303 -12.584534l0 0c-3.2351685 0 -6.33786 1.3258667 -8.625488 3.685913c-2.2876282 2.360077 -3.5727844 5.5610046 -3.5727844 8.898621l0 0c0 6.9502563 5.4613647 12.584564 12.198273 12.584564l0 0c6.7369385 0 12.198303 -5.634308 12.198303 -12.584564z" fill-rule="evenodd"/></g><defs><linearGradient id="g767f0c93c4_0_1549.51" gradientUnits="userSpaceOnUse" gradientTransform="matrix(-8.715083100163751 9.763212337026525 -9.763212337026525 -8.715083100163751 0.0 0.0)" spreadMethod="pad" x1="-25.43281565454228" y1="-59.36219041471373" x2="-25.43480395603621" y2="-49.59897828014838"><stop offset="0.0" stop-color="#ffb4ad"/><stop offset="0.85" stop-color="#c96b59"/><stop offset="1.0" stop-color="#c96b59"/></linearGradient></defs><path fill="url(#g767f0c93c4_0_1549.51)" d="m620.8263 322.95905c-4.510193 -43.463654 22.602478 -83.05228 65.20935 -95.215546c42.606873 -12.163284 89.2652 6.3654175 112.21918 44.563843z" fill-rule="evenodd"/><defs><linearGradient id="g767f0c93c4_0_1549.52" gradientUnits="userSpaceOnUse" gradientTransform="matrix(-10.633408946947851 1.9614159841562016 -1.9614159841562016 -10.633408946947851 0.0 0.0)" spreadMethod="pad" x1="-50.15048281868648" y1="-39.74440164547453" x2="-50.15264849319264" y2="-29.110992919064902"><stop offset="0.0" stop-color="#ffb4ad"/><stop offset="0.85" stop-color="#c96b59"/><stop offset="1.0" stop-color="#c96b59"/></linearGradient></defs><path fill="url(#g767f0c93c4_0_1549.52)" d="m438.42462 259.6282l0 0c28.184174 -30.707321 75.96649 -41.313873 115.45984 -25.629395c39.493347 15.684479 60.352478 53.551483 50.40338 91.50073z" fill-rule="evenodd"/><g filter="url(#shadowFilter-g767f0c93c4_0_1549.53)"><use xlink:href="#g767f0c93c4_0_1549.53" transform="matrix(1.0 0.0 0.0 1.0 0.0 2.0)"/></g><defs><filter id="shadowFilter-g767f0c93c4_0_1549.53" filterUnits="userSpaceOnUse"><feGaussianBlur in="SourceAlpha" stdDeviation="2.0" result="blur"/><feComponentTransfer in="blur" color-interpolation-filters="sRGB"><feFuncR type="linear" slope="0" intercept="0.0"/><feFuncG type="linear" slope="0" intercept="0.0"/><feFuncB type="linear" slope="0" intercept="0.0"/><feFuncA type="linear" slope="0.5" intercept="0"/></feComponentTransfer></filter></defs><g id="g767f0c93c4_0_1549.53"><defs><linearGradient id="g767f0c93c4_0_1549.54" gradientUnits="userSpaceOnUse" gradientTransform="matrix(-5.716092994800388 -2.411158667878135 2.411158667878135 -5.716092994800388 0.0 0.0)" spreadMethod="pad" x1="-127.3226006767901" y1="-24.76590136407506" x2="-123.2791032167644" y2="-20.725623228108216"><stop offset="0.0" stop-color="#cfcfd2"/><stop offset="1.0" stop-color="#ffffff"/></linearGradient></defs><path fill="url(#g767f0c93c4_0_1549.54)" d="m660.3921 429.69165l-17.933899 23.714905l-1.7216187 -32.00598z" fill-rule="evenodd"/></g><g filter="url(#shadowFilter-g767f0c93c4_0_1549.55)"><use xlink:href="#g767f0c93c4_0_1549.55" transform="matrix(1.0 0.0 0.0 1.0 0.0 2.0)"/></g><defs><filter id="shadowFilter-g767f0c93c4_0_1549.55" filterUnits="userSpaceOnUse"><feGaussianBlur in="SourceAlpha" stdDeviation="2.0" result="blur"/><feComponentTransfer in="blur" color-interpolation-filters="sRGB"><feFuncR type="linear" slope="0" intercept="0.0"/><feFuncG type="linear" slope="0" intercept="0.0"/><feFuncB type="linear" slope="0" intercept="0.0"/><feFuncA type="linear" slope="0.5" intercept="0"/></feComponentTransfer></filter></defs><g id="g767f0c93c4_0_1549.55"><defs><linearGradient id="g767f0c93c4_0_1549.56" gradientUnits="userSpaceOnUse" gradientTransform="matrix(-5.685755969205625 2.251466681994882 -2.251466681994882 -5.685755969205625 0.0 0.0)" spreadMethod="pad" x1="-67.88393392373547" y1="-102.35978557429532" x2="-63.86189820892762" y2="-98.34094872140274"><stop offset="0.0" stop-color="#cfcfd2"/><stop offset="1.0" stop-color="#ffffff"/></linearGradient></defs><path fill="url(#g767f0c93c4_0_1549.56)" d="m598.49225 421.40097l-2.1879272 30.60382l-17.826233 -22.678528z" fill-rule="evenodd"/></g><g filter="url(#shadowFilter-g767f0c93c4_0_1549.57)"><use xlink:href="#g767f0c93c4_0_1549.57" transform="matrix(1.0 0.0 0.0 1.0 0.0 2.0)"/></g><defs><filter id="shadowFilter-g767f0c93c4_0_1549.57" filterUnits="userSpaceOnUse"><feGaussianBlur in="SourceAlpha" stdDeviation="2.0" result="blur"/><feComponentTransfer in="blur" color-interpolation-filters="sRGB"><feFuncR type="linear" slope="0" intercept="0.0"/><feFuncG type="linear" slope="0" intercept="0.0"/><feFuncB type="linear" slope="0" intercept="0.0"/><feFuncA type="linear" slope="0.5" intercept="0"/></feComponentTransfer></filter></defs><g id="g767f0c93c4_0_1549.57"><path fill="#000000" fill-opacity="0.0" d="m570.3898 435.57642c7.5650024 -9.585388 26.544128 -16.028473 48.00061 -16.29544c21.456543 -0.26693726 41.113403 5.695465 49.714783 15.079712l-48.33966 10.089783z" fill-rule="evenodd"/><path fill="#000000" fill-opacity="0.0" d="m570.3898 435.57642c7.5650024 -9.585388 26.544128 -16.028473 48.00061 -16.29544c21.456543 -0.26693726 41.113403 5.695465 49.714783 15.079712" fill-rule="evenodd"/><path stroke="#000000" stroke-width="2.0" stroke-miterlimit="800.0" stroke-linecap="butt" d="m570.3898 435.57642c7.5650024 -9.585388 26.544128 -16.028473 48.00061 -16.29544c21.456543 -0.26693726 41.113403 5.695465 49.714783 15.079712" fill-rule="evenodd"/></g></g></svg>